<?xml version="1.0" encoding="UTF-8"?>
<!-- Generator: visioncortex VTracer 0.6.3 -->
<svg version="1.1" xmlns="http://www.w3.org/2000/svg" width="1280" height="1280">
<path d="M0 0 C0 0.66 0 1.32 0 2 C0.54 2.22 1.09 2.43 1.64 2.66 C4.81 4.46 7.16 6.91 9.68 9.49 C10.49 10.3 10.49 10.3 11.31 11.13 C13.03 12.85 14.73 14.58 16.44 16.31 C17.58 17.47 18.72 18.62 19.87 19.77 C21.98 21.9 24.09 24.03 26.2 26.17 C28.79 28.79 31.39 31.4 34 34 C56 56 56 56 58.67 58.71 C60.92 61.02 60.92 61.02 63.38 62.81 C66.4 65.33 68.77 68.15 71.25 71.2 C73.07 73.07 74.69 73.86 77 75 C77.69 76.66 78.36 78.32 79 80 C79.99 80.33 80.98 80.66 82 81 C84.56 83.36 86.81 85.75 88.94 88.5 C90.63 90.55 92.15 92.03 94.19 93.69 C97 96 97 96 98 98 C98.91 98.45 98.91 98.45 99.83 98.91 C102.26 100.13 103.74 101.51 105.65 103.44 C106.69 104.49 106.69 104.49 107.76 105.56 C108.51 106.32 109.25 107.08 110.02 107.86 C111.18 109.03 111.18 109.03 112.37 110.23 C114.86 112.73 117.34 115.24 119.81 117.75 C122.28 120.24 124.75 122.74 127.22 125.23 C128.76 126.78 130.29 128.33 131.82 129.88 C135.6 133.69 139.43 137.34 143.56 140.76 C145.5 142.43 147.12 144.28 148.75 146.25 C150.81 148.73 152.27 150.18 155 152 C155 152.66 155 153.32 155 154 C155.99 154.33 156.98 154.66 158 155 C158 155.66 158 156.32 158 157 C158.66 157 159.32 157 160 157 C160 157.66 160 158.32 160 159 C160.99 159.33 161.98 159.66 163 160 C163 160.66 163 161.32 163 162 C163.66 162 164.32 162 165 162 C165 162.66 165 163.32 165 164 C165.99 164.33 166.98 164.66 168 165 C168 165.66 168 166.32 168 167 C168.66 167 169.32 167 170 167 C170 167.66 170 168.32 170 169 C170.99 169.33 171.98 169.66 173 170 C173 170.66 173 171.32 173 172 C173.66 172 174.32 172 175 172 C175 172.66 175 173.32 175 174 C175.99 174.33 176.98 174.66 178 175 C178 175.66 178 176.32 178 177 C178.66 177 179.32 177 180 177 C180 177.66 180 178.32 180 179 C180.99 179.33 181.98 179.66 183 180 C183 180.66 183 181.32 183 182 C183.66 182 184.32 182 185 182 C185 182.66 185 183.32 185 184 C185.99 184.33 186.98 184.66 188 185 C188 185.66 188 186.32 188 187 C188.66 187 189.32 187 190 187 C190 187.66 190 188.32 190 189 C190.99 189.33 191.98 189.66 193 190 C193 190.66 193 191.32 193 192 C193.55 192.23 194.11 192.45 194.67 192.69 C197.69 194.39 199.77 196.54 202.21 199 C202.97 199.76 202.97 199.76 203.74 200.54 C205.41 202.21 207.08 203.89 208.74 205.58 C209.9 206.75 211.07 207.92 212.24 209.09 C215.31 212.18 218.37 215.27 221.44 218.36 C226.33 223.29 231.22 228.22 236.13 233.14 C237.83 234.86 239.53 236.57 241.23 238.29 C246.32 243.42 251.44 248.38 257 253 C258.27 254.36 259.5 255.75 260.69 257.19 C262.45 259.32 263.97 260.98 266.21 262.61 C266.8 263.07 267.39 263.53 268 264 C268 264.66 268 265.32 268 266 C268.66 266 269.32 266 270 266 C272.62 268.38 272.62 268.38 275 271 C275 271.66 275 272.32 275 273 C275.66 273 276.32 273 277 273 C277 273.66 277 274.32 277 275 C277.66 275 278.32 275 279 275 C280.4 276.46 280.4 276.46 281.94 278.38 C283.92 280.84 285.31 282.2 288 284 C288 284.66 288 285.32 288 286 C288.66 286 289.32 286 290 286 C291.55 287.57 291.55 287.57 293.31 289.69 C298.3 296.01 298.3 296.01 305 300 C305 300.66 305 301.32 305 302 C305.66 302 306.32 302 307 302 C308.62 303.38 308.62 303.38 310 305 C310 305.66 310 306.32 310 307 C310.66 307 311.32 307 312 307 C313.62 308.38 313.62 308.38 315 310 C315 310.66 315 311.32 315 312 C315.66 312 316.32 312 317 312 C318.62 313.38 318.62 313.38 320 315 C320 315.66 320 316.32 320 317 C320.66 317 321.32 317 322 317 C323.62 318.38 323.62 318.38 325 320 C325 320.66 325 321.32 325 322 C325.66 322 326.32 322 327 322 C328.62 323.38 328.62 323.38 330 325 C330 325.66 330 326.32 330 327 C331.32 327 332.64 327 334 327 C334 326.34 334 325.68 334 325 C333.34 324.67 332.68 324.34 332 324 C332.64 323.9 333.28 323.79 333.94 323.69 C334.96 323.35 334.96 323.35 336 323 C336.33 322.01 336.66 321.02 337 320 C337.64 319.69 338.28 319.38 338.94 319.06 C341.14 318.2 341.14 318.2 341.81 316.19 C343.14 313.74 344.22 313.03 346.5 311.5 C349.27 309.64 350.91 308.27 352 305 C352.66 305 353.32 305 354 305 C354.33 304.01 354.66 303.02 355 302 C355.66 302 356.32 302 357 302 C357 301.34 357 300.68 357 300 C359.33 298.79 361.5 297.83 364 297 C363.67 296.01 363.34 295.02 363 294 C364.32 294 365.64 294 367 294 C367.22 293.45 367.45 292.9 367.68 292.34 C369.41 289.28 371.72 287 374.2 284.55 C374.73 284.02 375.27 283.48 375.82 282.93 C377.61 281.13 379.42 279.33 381.22 277.54 C382.51 276.25 383.79 274.96 385.08 273.67 C388.58 270.17 392.09 266.67 395.59 263.17 C399.27 259.51 402.93 255.84 406.6 252.17 C412.77 246.01 418.94 239.84 425.11 233.69 C432.23 226.58 439.35 219.46 446.47 212.35 C454.05 204.76 461.64 197.18 469.23 189.6 C471.41 187.42 473.59 185.24 475.77 183.06 C479.21 179.63 482.65 176.19 486.09 172.76 C487.35 171.51 488.6 170.25 489.86 168.99 C501.48 157.37 501.48 157.37 507.51 152.37 C509.25 150.87 509.25 150.87 511 148 C511.66 148 512.32 148 513 148 C513 147.34 513 146.68 513 146 C513.66 146 514.32 146 515 146 C515.33 145.01 515.66 144.02 516 143 C516.66 143 517.32 143 518 143 C518.23 142.44 518.45 141.89 518.69 141.31 C521.62 136.15 526.64 132.53 531.13 128.75 C533.08 127.03 533.08 127.03 534.62 124.79 C535.07 124.2 535.53 123.61 536 123 C536.66 123 537.32 123 538 123 C538.27 122.36 538.54 121.72 538.81 121.06 C540 119 540 119 543 118 C543.33 117.34 543.66 116.68 544 116 C545 114 545 114 548 113 C548 112.34 548 111.68 548 111 C549.32 110.67 550.64 110.34 552 110 C552.33 108.68 552.66 107.36 553 106 C554.32 105.67 555.64 105.34 557 105 C557.1 104.36 557.21 103.72 557.31 103.06 C557.54 102.38 557.77 101.7 558 101 C559.49 100.5 559.49 100.5 561 100 C561.31 99.34 561.62 98.68 561.94 98 C562.29 97.34 562.64 96.68 563 96 C563.6 95.87 564.2 95.74 564.81 95.6 C567.68 94.81 568.95 93.43 571.04 91.32 C571.78 90.58 572.53 89.83 573.3 89.06 C574.07 88.28 574.83 87.5 575.62 86.69 C576.79 85.53 576.79 85.53 577.98 84.35 C581.27 81.02 583.98 78.25 586 74 C587.57 72.24 589.2 70.54 590.88 68.88 C591.74 68.01 592.6 67.14 593.49 66.24 C596 64 596 64 597.91 63.09 C600.35 61.82 601.95 60.31 603.89 58.38 C604.6 57.67 605.31 56.96 606.04 56.23 C606.77 55.5 607.5 54.76 608.25 54 C609 53.26 609.74 52.53 610.51 51.77 C611.21 51.06 611.92 50.35 612.64 49.62 C613.29 48.98 613.93 48.33 614.59 47.66 C616.22 46.11 616.22 46.11 616 44 C617.66 42.98 619.32 41.99 621 41 C622.45 39.71 623.85 38.38 625.21 37 C626 36.21 626.8 35.41 627.61 34.59 C628.46 33.73 629.3 32.87 630.17 31.99 C631.04 31.11 631.92 30.23 632.82 29.32 C635.14 26.99 637.46 24.65 639.77 22.31 C643.04 19 646.31 15.7 649.58 12.41 C651.33 10.65 653.07 8.9 654.8 7.13 C655.59 6.34 656.37 5.55 657.18 4.74 C657.87 4.04 658.56 3.34 659.27 2.62 C661 1 661 1 663 0 C663.56 -0.29 664.11 -0.58 664.69 -0.88 C675.98 -6.37 685.08 -7.42 697.02 -3.3 C700.32 -1.98 702.61 -0.6 705 2 C705.89 2.52 706.77 3.03 707.69 3.56 C708.45 4.04 709.21 4.51 710 5 C710 5.66 710 6.32 710 7 C710.96 7.4 710.96 7.4 711.94 7.81 C714 9 714 9 715 12 C715.66 12.33 716.32 12.66 717 13 C717.66 13.33 718.32 13.66 719 14 C719.33 14.99 719.66 15.98 720 17 C720.66 17.33 721.32 17.66 722 18 C722.66 18.33 723.32 18.66 724 19 C724.33 19.99 724.66 20.98 725 22 C725.66 22.33 726.32 22.66 727 23 C727.66 23.33 728.32 23.66 729 24 C729.33 24.99 729.66 25.98 730 27 C730.66 27.33 731.32 27.66 732 28 C732.66 28.33 733.32 28.66 734 29 C734.33 29.99 734.66 30.98 735 32 C735.66 32.33 736.32 32.66 737 33 C737.66 33.33 738.32 33.66 739 34 C739.33 34.99 739.66 35.98 740 37 C740.66 37.33 741.32 37.66 742 38 C742.66 38.33 743.32 38.66 744 39 C744.33 39.99 744.66 40.98 745 42 C745.66 42.33 746.32 42.66 747 43 C747.66 43.33 748.32 43.66 749 44 C749.33 44.99 749.66 45.98 750 47 C750.66 47.33 751.32 47.66 752 48 C752.66 48.33 753.32 48.66 754 49 C754.33 49.99 754.66 50.98 755 52 C755.66 52.33 756.32 52.66 757 53 C757.66 53.33 758.32 53.66 759 54 C759.33 54.99 759.66 55.98 760 57 C760.99 57.33 761.98 57.66 763 58 C763 58.66 763 59.32 763 60 C763.66 60 764.32 60 765 60 C765 60.66 765 61.32 765 62 C765.66 62 766.32 62 767 62 C768.62 63.37 768.62 63.37 770 65 C770 65.66 770 66.32 770 67 C770.66 67 771.32 67 772 67 C773.62 68.37 773.62 68.37 775 70 C775 70.66 775 71.32 775 72 C775.66 72 776.32 72 777 72 C778.62 73.37 778.62 73.37 780 75 C780 75.66 780 76.32 780 77 C780.66 77 781.32 77 782 77 C783.62 78.37 783.62 78.37 785 80 C785 80.66 785 81.32 785 82 C785.66 82 786.32 82 787 82 C788.62 83.37 788.62 83.37 790 85 C790 85.66 790 86.32 790 87 C790.66 87 791.32 87 792 87 C793.62 88.37 793.62 88.37 795 90 C795 90.66 795 91.32 795 92 C795.66 92 796.32 92 797 92 C798.62 93.38 798.62 93.38 800 95 C800 95.66 800 96.32 800 97 C800.66 97 801.32 97 802 97 C803.4 98.5 803.4 98.5 804.94 100.56 C805.69 101.55 805.69 101.55 806.46 102.57 C811 109.76 811.52 115.53 811.5 123.94 C811.53 124.98 811.56 126.03 811.59 127.11 C811.6 134.21 810.34 138.42 806 144 C805.34 145.05 804.68 146.1 804 147.19 C801.9 150.14 799.63 152.5 797 155 C796.17 155.82 795.35 156.65 794.5 157.5 C792.94 159.06 791.38 160.61 789.83 162.17 C787.01 164.99 784.21 167.82 781.4 170.65 C778.41 173.66 775.42 176.67 772.43 179.68 C770.85 181.27 769.28 182.86 767.7 184.45 C765.42 186.75 763.14 189.05 760.85 191.35 C760.15 192.06 759.45 192.76 758.74 193.49 C758.07 194.16 757.41 194.82 756.72 195.5 C756.15 196.08 755.57 196.66 754.98 197.26 C753 199 753 199 750.3 200.7 C746.5 203.22 743.41 206.32 740.22 209.56 C739.23 210.54 739.23 210.54 738.23 211.55 C736.03 213.74 733.85 215.94 731.66 218.14 C730.09 219.72 728.52 221.3 726.94 222.87 C723.56 226.26 720.17 229.66 716.8 233.05 C711.46 238.42 706.11 243.78 700.76 249.14 C693.27 256.64 685.78 264.15 678.3 271.66 C677.82 272.14 677.35 272.61 676.86 273.1 C673.49 276.49 670.12 279.87 666.75 283.25 C662.89 287.12 659.04 290.99 655.18 294.86 C654.47 295.58 654.47 295.58 653.74 296.31 C645.83 304.25 637.91 312.18 629.99 320.12 C624.67 325.45 619.35 330.78 614.04 336.12 C610.74 339.44 607.44 342.74 604.14 346.05 C602.6 347.59 601.07 349.13 599.54 350.67 C597.45 352.77 595.37 354.86 593.27 356.95 C592.66 357.57 592.05 358.19 591.42 358.83 C587.23 363 587.23 363 585 363 C584.73 363.64 584.46 364.28 584.19 364.94 C583 367 583 367 580 368 C579.67 368.66 579.34 369.32 579 370 C578.67 370.66 578.34 371.32 578 372 C577.01 372.33 576.02 372.66 575 373 C574.67 373.66 574.34 374.32 574 375 C573.67 375.66 573.34 376.32 573 377 C572.01 377.33 571.02 377.66 570 378 C569.67 378.66 569.34 379.32 569 380 C568.67 380.66 568.34 381.32 568 382 C567.01 382.33 566.02 382.66 565 383 C564.67 383.66 564.34 384.32 564 385 C563.67 385.66 563.34 386.32 563 387 C562.01 387.33 561.02 387.66 560 388 C560 388.66 560 389.32 560 390 C558.62 391.62 558.62 391.62 557 393 C556.34 393 555.68 393 555 393 C555 393.66 555 394.32 555 395 C553.62 396.62 553.62 396.62 552 398 C551.34 398 550.68 398 550 398 C550 398.66 550 399.32 550 400 C548.62 401.62 548.62 401.62 547 403 C546.34 403 545.68 403 545 403 C545 403.66 545 404.32 545 405 C543.62 406.62 543.62 406.62 542 408 C541.34 408 540.68 408 540 408 C540 408.66 540 409.32 540 410 C538.62 411.62 538.62 411.62 537 413 C536.34 413 535.68 413 535 413 C535 413.66 535 414.32 535 415 C533.57 415.97 532.13 416.93 530.68 417.85 C527.97 419.7 525.78 421.99 523.49 424.32 C522.97 424.84 522.46 425.35 521.93 425.89 C520.82 427 519.71 428.12 518.61 429.24 C516.87 431.01 515.12 432.77 513.37 434.53 C509.65 438.27 505.95 442.01 502.25 445.75 C497.95 450.1 493.64 454.45 489.32 458.79 C487.59 460.53 485.87 462.28 484.15 464.02 C483.1 465.08 482.05 466.14 481 467.2 C479.62 468.59 479.62 468.59 478.21 470.01 C476 472 476 472 474 472 C474.93 473.13 475.87 474.25 476.81 475.38 C477.33 476 477.86 476.63 478.39 477.27 C480.08 479.22 480.08 479.22 483 481 C483 481.99 483 482.98 483 484 C484.65 484.66 486.3 485.32 488 486 C488 486.99 488 487.98 488 489 C488.87 489.37 488.87 489.37 489.75 489.75 C492.3 491.17 493.98 492.91 496 495 C496.66 495.33 497.32 495.66 498 496 C498.33 496.99 498.66 497.98 499 499 C500.64 500.59 500.64 500.59 502.56 502.06 C504.5 503.6 504.5 503.6 506 505 C506 505.66 506 506.32 506 507 C506.66 507 507.32 507 508 507 C509.44 508.5 509.44 508.5 511 510.44 C513.15 513.15 513.15 513.15 516 515 C516 515.66 516 516.32 516 517 C516.99 517.33 517.98 517.66 519 518 C520.37 519.58 521.74 521.16 523.08 522.78 C527.23 527.57 531.84 531.96 536.33 536.44 C537.49 537.6 538.65 538.75 539.81 539.91 C542.98 543.08 546.15 546.25 549.32 549.41 C552.75 552.83 556.18 556.25 559.6 559.67 C565.53 565.6 571.46 571.52 577.4 577.44 C585.98 586.01 594.56 594.58 603.14 603.15 C617.06 617.06 630.99 630.97 644.92 644.88 C646.17 646.13 646.17 646.13 647.44 647.4 C659.28 659.22 671.11 671.04 682.95 682.86 C683.78 683.69 684.61 684.52 685.47 685.38 C686.31 686.21 687.14 687.04 688 687.9 C701.88 701.76 715.76 715.62 729.63 729.49 C738.19 738.04 746.75 746.59 755.32 755.13 C761.18 760.98 767.05 766.84 772.9 772.7 C776.29 776.08 779.67 779.46 783.06 782.83 C786.16 785.92 789.25 789.01 792.35 792.11 C793.47 793.23 794.59 794.35 795.71 795.47 C797.24 796.98 798.76 798.51 800.27 800.03 C801.12 800.88 801.97 801.72 802.84 802.59 C809.61 810.14 811.51 817.59 811.44 827.44 C811.46 828.34 811.48 829.24 811.5 830.17 C811.49 836.08 810.73 841.22 807 846 C806.01 846.33 805.02 846.66 804 847 C802.77 850.01 802.77 850.01 802 853 C801.34 853 800.68 853 800 853 C799.73 853.64 799.46 854.28 799.19 854.94 C798 857 798 857 795 858 C794.67 858.66 794.34 859.32 794 860 C793.67 860.66 793.34 861.32 793 862 C792.01 862.33 791.02 862.66 790 863 C789.3 864.32 788.64 865.65 788 867 C786.46 868.8 786.46 868.8 784.61 870.65 C783.91 871.36 783.21 872.07 782.49 872.8 C781.72 873.56 780.95 874.33 780.16 875.12 C779.35 875.93 778.54 876.75 777.7 877.59 C775.02 880.28 772.33 882.97 769.64 885.66 C767.77 887.53 765.91 889.4 764.04 891.27 C760.13 895.19 756.21 899.11 752.29 903.03 C747.76 907.55 743.25 912.07 738.74 916.61 C734.39 920.97 730.03 925.33 725.67 929.69 C723.82 931.54 721.98 933.39 720.13 935.25 C717.55 937.84 714.95 940.43 712.36 943.01 C711.6 943.78 710.84 944.55 710.06 945.34 C701.6 953.72 693.11 956.41 681.22 956.44 C673.03 956.24 665.22 953.42 659 948 C659 947.34 659 946.68 659 946 C658.01 945.67 657.02 945.34 656 945 C656 944.34 656 943.68 656 943 C655.34 943 654.68 943 654 943 C654 942.34 654 941.68 654 941 C653.01 940.67 652.02 940.34 651 940 C651 939.34 651 938.68 651 938 C650.34 938 649.68 938 649 938 C649 937.34 649 936.68 649 936 C648.01 935.67 647.02 935.34 646 935 C646 934.34 646 933.68 646 933 C645.34 933 644.68 933 644 933 C644 932.34 644 931.68 644 931 C643.01 930.67 642.02 930.34 641 930 C641 929.34 641 928.68 641 928 C640.34 928 639.68 928 639 928 C639 927.34 639 926.68 639 926 C638.01 925.67 637.02 925.34 636 925 C636 924.34 636 923.68 636 923 C635.34 923 634.68 923 634 923 C634 922.34 634 921.68 634 921 C633.01 920.67 632.02 920.34 631 920 C631 919.34 631 918.68 631 918 C630.34 918 629.68 918 629 918 C629 917.34 629 916.68 629 916 C628.01 915.67 627.02 915.34 626 915 C626 914.34 626 913.68 626 913 C625.34 913 624.68 913 624 913 C624 912.34 624 911.68 624 911 C623.01 910.67 622.02 910.34 621 910 C621 909.34 621 908.68 621 908 C620.34 908 619.68 908 619 908 C619 907.34 619 906.68 619 906 C618.01 905.67 617.02 905.34 616 905 C616 904.34 616 903.68 616 903 C615.34 903 614.68 903 614 903 C614 902.34 614 901.68 614 901 C613.01 900.67 612.02 900.34 611 900 C611 899.34 611 898.68 611 898 C610.34 898 609.68 898 609 898 C609 897.34 609 896.68 609 896 C608.01 895.67 607.02 895.34 606 895 C606 894.34 606 893.68 606 893 C605.34 893 604.68 893 604 893 C604 892.34 604 891.68 604 891 C603.01 890.67 602.02 890.34 601 890 C601 889.34 601 888.68 601 888 C600.34 888 599.68 888 599 888 C599 887.34 599 886.68 599 886 C598.01 885.67 597.02 885.34 596 885 C596 884.34 596 883.68 596 883 C595.34 883 594.68 883 594 883 C594 882.34 594 881.68 594 881 C593.01 880.67 592.02 880.34 591 880 C591 879.34 591 878.68 591 878 C590.34 878 589.68 878 589 878 C589 877.34 589 876.68 589 876 C588.01 875.67 587.02 875.34 586 875 C586 874.34 586 873.68 586 873 C585.34 873 584.68 873 584 873 C584 872.34 584 871.68 584 871 C583.01 870.67 582.02 870.34 581 870 C581 869.34 581 868.68 581 868 C580.34 868 579.68 868 579 868 C579 867.34 579 866.68 579 866 C578.01 865.67 577.02 865.34 576 865 C576 864.34 576 863.68 576 863 C575.34 863 574.68 863 574 863 C574 862.34 574 861.68 574 861 C573.01 860.67 572.02 860.34 571 860 C571 859.34 571 858.68 571 858 C570.34 858 569.68 858 569 858 C569 857.34 569 856.68 569 856 C567.35 855.34 565.7 854.68 564 854 C564 853.01 564 852.02 564 851 C563.01 850.67 562.02 850.34 561 850 C561 849.34 561 848.68 561 848 C560.34 848 559.68 848 559 848 C559 847.34 559 846.68 559 846 C558.01 845.67 557.02 845.34 556 845 C556 844.34 556 843.68 556 843 C555.34 843 554.68 843 554 843 C554 842.34 554 841.68 554 841 C553.01 840.67 552.02 840.34 551 840 C551 839.34 551 838.68 551 838 C550.34 838 549.68 838 549 838 C549 837.34 549 836.68 549 836 C547.35 835.34 545.7 834.68 544 834 C544 833.01 544 832.02 544 831 C543.01 830.67 542.02 830.34 541 830 C541 829.34 541 828.68 541 828 C540.34 828 539.68 828 539 828 C539 827.34 539 826.68 539 826 C538.01 825.67 537.02 825.34 536 825 C536 824.34 536 823.68 536 823 C535.34 823 534.68 823 534 823 C534 822.34 534 821.68 534 821 C533.01 820.67 532.02 820.34 531 820 C531 819.34 531 818.68 531 818 C530.34 818 529.68 818 529 818 C529 817.34 529 816.68 529 816 C528.01 815.67 527.02 815.34 526 815 C526 814.34 526 813.68 526 813 C525.34 813 524.68 813 524 813 C524 812.34 524 811.68 524 811 C523.01 810.67 522.02 810.34 521 810 C521 809.34 521 808.68 521 808 C520.34 808 519.68 808 519 808 C517.45 806.43 517.45 806.43 515.69 804.31 C512.92 801.05 510.07 797.99 507 795 C449 737 391 679 333 621 C328.86 622.9 326.03 625.7 322.86 628.9 C322.25 629.5 321.65 630.11 321.02 630.73 C319.02 632.72 317.03 634.73 315.04 636.73 C313.65 638.12 312.25 639.52 310.86 640.91 C307.94 643.83 305.03 646.76 302.11 649.68 C298.39 653.42 294.66 657.16 290.93 660.89 C288.05 663.76 285.18 666.64 282.3 669.53 C280.93 670.9 279.55 672.28 278.18 673.65 C276.25 675.58 274.33 677.52 272.4 679.45 C271.84 680.01 271.28 680.58 270.7 681.15 C267.4 684.48 264.3 687.91 261.3 691.5 C259.66 693.4 257.86 695.02 255.94 696.62 C252.81 699.29 249.87 702.05 247 705 C217 735 217 735 214.31 737.62 C211.89 739.97 211.89 739.97 210 743 C209.34 743 208.68 743 208 743 C207.67 743.99 207.34 744.98 207 746 C206.34 746 205.68 746 205 746 C205 746.66 205 747.32 205 748 C204.34 748 203.68 748 203 748 C202.67 748.99 202.34 749.98 202 751 C201.34 751 200.68 751 200 751 C200 751.66 200 752.32 200 753 C199.34 753 198.68 753 198 753 C197.67 753.99 197.34 754.98 197 756 C196.34 756 195.68 756 195 756 C195 756.66 195 757.32 195 758 C194.34 758 193.68 758 193 758 C192.67 758.99 192.34 759.98 192 761 C191.34 761 190.68 761 190 761 C190 761.66 190 762.32 190 763 C189.34 763 188.68 763 188 763 C187.67 763.99 187.34 764.98 187 766 C186.34 766 185.68 766 185 766 C185 766.66 185 767.32 185 768 C184.34 768 183.68 768 183 768 C182.67 768.99 182.34 769.98 182 771 C181.34 771 180.68 771 180 771 C180 771.66 180 772.32 180 773 C179.34 773 178.68 773 178 773 C177.67 773.99 177.34 774.98 177 776 C176.34 776 175.68 776 175 776 C175 776.66 175 777.32 175 778 C174.34 778 173.68 778 173 778 C172.67 778.99 172.34 779.98 172 781 C171.34 781 170.68 781 170 781 C170 781.66 170 782.32 170 783 C169.34 783 168.68 783 168 783 C167.67 783.99 167.34 784.98 167 786 C166.34 786 165.68 786 165 786 C165 786.66 165 787.32 165 788 C164.34 788 163.68 788 163 788 C162.67 788.99 162.34 789.98 162 791 C161.34 791 160.68 791 160 791 C160 791.66 160 792.32 160 793 C159.34 793 158.68 793 158 793 C157.67 793.99 157.34 794.98 157 796 C156.34 796 155.68 796 155 796 C155 796.66 155 797.32 155 798 C154.34 798 153.68 798 153 798 C152.67 798.99 152.34 799.98 152 801 C151.34 801 150.68 801 150 801 C150 801.66 150 802.32 150 803 C149.34 803 148.68 803 148 803 C147.67 803.99 147.34 804.98 147 806 C146.34 806 145.68 806 145 806 C145 806.66 145 807.32 145 808 C144.34 808 143.68 808 143 808 C142.67 808.99 142.34 809.98 142 811 C141.34 811 140.68 811 140 811 C140 811.66 140 812.32 140 813 C139.34 813 138.68 813 138 813 C137.67 813.99 137.34 814.98 137 816 C136.34 816 135.68 816 135 816 C135 816.66 135 817.32 135 818 C134.34 818 133.68 818 133 818 C132.67 818.99 132.34 819.98 132 821 C131.34 821 130.68 821 130 821 C130 821.66 130 822.32 130 823 C129.34 823 128.68 823 128 823 C127.67 823.99 127.34 824.98 127 826 C126.34 826 125.68 826 125 826 C125 826.66 125 827.32 125 828 C124.34 828 123.68 828 123 828 C122.67 828.99 122.34 829.98 122 831 C121.34 831 120.68 831 120 831 C120 831.66 120 832.32 120 833 C119.34 833 118.68 833 118 833 C117.67 833.99 117.34 834.98 117 836 C116.34 836 115.68 836 115 836 C115 836.66 115 837.32 115 838 C114.34 838 113.68 838 113 838 C112.67 838.99 112.34 839.98 112 841 C111.34 841 110.68 841 110 841 C110 841.66 110 842.32 110 843 C109.34 843 108.68 843 108 843 C107.67 843.99 107.34 844.98 107 846 C106.34 846 105.68 846 105 846 C105 846.66 105 847.32 105 848 C104.34 848 103.68 848 103 848 C102.67 848.99 102.34 849.98 102 851 C101.34 851 100.68 851 100 851 C99.75 851.58 99.5 852.15 99.24 852.74 C97.83 855.31 96.22 857.04 94.15 859.11 C92.94 860.33 92.94 860.33 91.71 861.57 C90.83 862.45 89.95 863.33 89.04 864.23 C87.65 865.64 87.65 865.64 86.23 867.06 C83.68 869.62 81.13 872.17 78.58 874.72 C76.45 876.86 74.32 878.99 72.19 881.12 C67.17 886.16 62.14 891.18 57.11 896.21 C51.92 901.39 46.74 906.58 41.57 911.78 C37.12 916.24 32.67 920.7 28.22 925.15 C25.56 927.81 22.9 930.47 20.25 933.13 C17.29 936.1 14.32 939.06 11.35 942.02 C10.03 943.35 10.03 943.35 8.69 944.7 C7.88 945.51 7.07 946.31 6.23 947.14 C5.53 947.84 4.83 948.54 4.11 949.27 C1.82 951.15 -0.22 952.02 -3 953 C-4.61 953.8 -4.61 953.8 -6.25 954.62 C-14.51 957.69 -25.71 957.33 -33.88 954.12 C-36.45 952.91 -38.62 951.59 -41 950 C-41 949.34 -41 948.68 -41 948 C-41.59 947.73 -42.18 947.47 -42.79 947.19 C-45.06 945.97 -46.55 944.71 -48.37 942.89 C-49.01 942.25 -49.66 941.61 -50.32 940.95 C-51.02 940.25 -51.71 939.55 -52.43 938.83 C-53.17 938.09 -53.91 937.35 -54.68 936.59 C-57.13 934.15 -59.57 931.7 -62.02 929.25 C-63.71 927.55 -65.41 925.86 -67.11 924.16 C-70.67 920.61 -74.22 917.05 -77.77 913.49 C-82.33 908.91 -86.91 904.35 -91.48 899.79 C-94.99 896.29 -98.49 892.78 -101.99 889.28 C-103.67 887.59 -105.36 885.91 -107.05 884.23 C-109.4 881.88 -111.74 879.53 -114.09 877.17 C-114.79 876.47 -115.5 875.77 -116.22 875.05 C-116.86 874.41 -117.49 873.77 -118.14 873.11 C-118.97 872.28 -118.97 872.28 -119.82 871.43 C-121 870 -121 870 -121 868 C-121.64 867.73 -122.28 867.46 -122.94 867.19 C-125 866 -125 866 -126 863 C-126.66 862.67 -127.32 862.34 -128 862 C-130 861 -130 861 -131 858 C-131.66 857.67 -132.32 857.34 -133 857 C-135 856 -135 856 -136 853 C-136.99 852.67 -137.98 852.34 -139 852 C-145.84 843.86 -149.25 834.62 -149 824 C-148.06 817.63 -147.11 812.07 -143 807 C-142.75 806.42 -142.5 805.84 -142.24 805.23 C-140.52 802.14 -138.11 799.84 -135.62 797.37 C-135.06 796.81 -134.5 796.25 -133.93 795.67 C-132.04 793.79 -130.16 791.91 -128.27 790.03 C-126.91 788.67 -125.55 787.31 -124.19 785.95 C-120.45 782.2 -116.7 778.46 -112.95 774.72 C-108.91 770.69 -104.88 766.65 -100.85 762.62 C-93.85 755.63 -86.86 748.64 -79.86 741.65 C-69.74 731.54 -59.63 721.44 -49.51 711.33 C-33.11 694.93 -16.7 678.53 -0.29 662.13 C15.66 646.21 31.6 630.28 47.55 614.34 C48.04 613.85 48.53 613.36 49.03 612.86 C53.97 607.93 58.9 602.99 63.84 598.06 C105.22 556.7 146.61 515.35 188 474 C187.34 473.01 186.68 472.02 186 471 C185.67 470.01 185.34 469.02 185 468 C184.34 468 183.68 468 183 468 C181.17 466.06 179.53 464.01 177.85 461.95 C175.98 459.98 174.46 459.09 172 458 C170.25 456.5 170.25 456.5 169 455 C169 454.34 169 453.68 169 453 C168.34 453 167.68 453 167 453 C165.38 451.62 165.38 451.62 164 450 C164 449.34 164 448.68 164 448 C163.34 448 162.68 448 162 448 C160.38 446.62 160.38 446.62 159 445 C159 444.34 159 443.68 159 443 C158.34 443 157.68 443 157 443 C155.38 441.62 155.38 441.62 154 440 C154 439.34 154 438.68 154 438 C153.34 438 152.68 438 152 438 C150.38 436.62 150.38 436.62 149 435 C149 434.34 149 433.68 149 433 C148.34 433 147.68 433 147 433 C145.38 431.62 145.38 431.62 144 430 C144 429.34 144 428.68 144 428 C143.36 427.73 142.72 427.46 142.06 427.19 C140 426 140 426 139 423 C138.34 422.67 137.68 422.34 137 422 C135 421 135 421 134 418 C133.34 417.67 132.68 417.34 132 417 C130 416 130 416 129 413 C128.34 412.67 127.68 412.34 127 412 C125 411 125 411 124 408 C123.34 407.67 122.68 407.34 122 407 C120 406 120 406 119 403 C118.16 402.58 118.16 402.58 117.3 402.16 C114.04 400.51 111.74 398 109.2 395.43 C108.62 394.86 108.05 394.28 107.46 393.69 C105.53 391.76 103.6 389.83 101.68 387.89 C100.3 386.51 98.92 385.13 97.54 383.74 C94.56 380.77 91.59 377.78 88.62 374.8 C83.92 370.08 79.22 365.37 74.51 360.66 C67.07 353.2 59.63 345.74 52.2 338.28 C38.88 324.93 25.56 311.57 12.24 298.23 C7.57 293.54 2.89 288.86 -1.78 284.17 C-4.69 281.25 -7.6 278.33 -10.51 275.42 C-11.85 274.07 -13.2 272.71 -14.55 271.36 C-16.39 269.51 -18.23 267.67 -20.07 265.82 C-20.6 265.28 -21.14 264.75 -21.68 264.2 C-24.64 261.24 -27.73 258.6 -31 256 C-31.52 255.3 -32.03 254.6 -32.56 253.88 C-34.18 251.77 -35.57 251 -38 250 C-38 249.01 -38 248.02 -38 247 C-38.99 246.67 -39.98 246.34 -41 246 C-41.66 245.01 -42.32 244.02 -43 243 C-44.66 241.99 -46.33 240.99 -48 240 C-49.45 238.71 -50.86 237.37 -52.22 235.99 C-53.02 235.19 -53.82 234.39 -54.64 233.56 C-55.49 232.7 -56.34 231.84 -57.21 230.95 C-58.1 230.06 -58.98 229.17 -59.9 228.25 C-62.25 225.88 -64.6 223.51 -66.94 221.14 C-70.23 217.81 -73.53 214.48 -76.83 211.16 C-78.59 209.39 -80.34 207.63 -82.08 205.85 C-86.56 201.34 -91.13 197.09 -96 193 C-97.14 191.76 -98.26 190.5 -99.31 189.19 C-101.31 186.68 -101.31 186.68 -104 185 C-104 184.34 -104 183.68 -104 183 C-104.66 183 -105.32 183 -106 183 C-106 182.34 -106 181.68 -106 181 C-106.99 180.67 -107.98 180.34 -109 180 C-109 179.34 -109 178.68 -109 178 C-109.66 178 -110.32 178 -111 178 C-111 177.34 -111 176.68 -111 176 C-112.65 175.34 -114.3 174.68 -116 174 C-116 173.01 -116 172.02 -116 171 C-116.99 170.67 -117.98 170.34 -119 170 C-119 169.34 -119 168.68 -119 168 C-119.66 168 -120.32 168 -121 168 C-121 167.34 -121 166.68 -121 166 C-121.99 165.67 -122.98 165.34 -124 165 C-124 164.34 -124 163.68 -124 163 C-124.66 163 -125.32 163 -126 163 C-126 162.34 -126 161.68 -126 161 C-126.99 160.67 -127.98 160.34 -129 160 C-129 159.34 -129 158.68 -129 158 C-129.66 158 -130.32 158 -131 158 C-131 157.34 -131 156.68 -131 156 C-131.99 155.67 -132.98 155.34 -134 155 C-134 154.34 -134 153.68 -134 153 C-134.66 153 -135.32 153 -136 153 C-136 152.34 -136 151.68 -136 151 C-136.99 150.67 -137.98 150.34 -139 150 C-139 149.34 -139 148.68 -139 148 C-139.66 148 -140.32 148 -141 148 C-142.56 146.02 -143.77 144.19 -145 142 C-145.38 141.34 -145.76 140.69 -146.15 140.01 C-148.96 134.25 -149.36 128.93 -149.38 122.62 C-149.38 121.84 -149.38 121.05 -149.38 120.25 C-149.3 116.35 -149.13 113.32 -147 110 C-146.67 109.15 -146.34 108.31 -146 107.44 C-145 105 -145 105 -143 102 C-142.34 102 -141.68 102 -141 102 C-140.94 101.24 -140.88 100.47 -140.81 99.69 C-139.74 96.13 -138.16 95.77 -135 94 C-134.32 92.67 -133.65 91.34 -133 90 C-131.67 89.32 -130.34 88.65 -129 88 C-128.5 86.51 -128.5 86.51 -128 85 C-127.34 85 -126.68 85 -126 85 C-125.77 84.38 -125.55 83.76 -125.31 83.12 C-124 81 -124 81 -121.44 80 C-120.23 79.5 -120.23 79.5 -119 79 C-118.11 76.96 -118.11 76.96 -118 75 C-117.34 75 -116.68 75 -116 75 C-115.5 73.51 -115.5 73.51 -115 72 C-114.34 72 -113.68 72 -113 72 C-113 71.34 -113 70.68 -113 70 C-111.02 69.01 -111.02 69.01 -109 68 C-109 67.34 -109 66.68 -109 66 C-107.12 63.87 -107.12 63.87 -105 62 C-104.34 62 -103.68 62 -103 62 C-103 61.34 -103 60.68 -103 60 C-102.34 60 -101.68 60 -101 60 C-100.5 58.51 -100.5 58.51 -100 57 C-99.34 57 -98.68 57 -98 57 C-98 56.34 -98 55.68 -98 55 C-97.34 55 -96.68 55 -96 55 C-95.67 54.01 -95.34 53.02 -95 52 C-94.34 52 -93.68 52 -93 52 C-93 51.34 -93 50.68 -93 50 C-92.34 50 -91.68 50 -91 50 C-90.67 49.01 -90.34 48.02 -90 47 C-87.56 44.31 -87.56 44.31 -85 42 C-84.34 42 -83.68 42 -83 42 C-83 41.34 -83 40.68 -83 40 C-82.34 40 -81.68 40 -81 40 C-80.67 39.01 -80.34 38.02 -80 37 C-79.34 37 -78.68 37 -78 37 C-78 36.34 -78 35.68 -78 35 C-77.34 35 -76.68 35 -76 35 C-75.67 34.01 -75.34 33.02 -75 32 C-74.34 32 -73.68 32 -73 32 C-73 31.34 -73 30.68 -73 30 C-72.34 30 -71.68 30 -71 30 C-70.67 29.01 -70.34 28.02 -70 27 C-69.34 27 -68.68 27 -68 27 C-68 26.34 -68 25.68 -68 25 C-67.34 25 -66.68 25 -66 25 C-65.75 24.42 -65.5 23.85 -65.24 23.26 C-63.83 20.7 -62.22 18.96 -60.16 16.89 C-59.4 16.14 -58.65 15.38 -57.88 14.61 C-57.09 13.83 -56.31 13.05 -55.5 12.25 C-54.71 11.46 -53.93 10.66 -53.12 9.85 C-52.37 9.1 -51.62 8.35 -50.84 7.58 C-50.15 6.89 -49.47 6.2 -48.76 5.5 C-47 4 -47 4 -45 4 C-44.67 3.01 -44.34 2.02 -44 1 C-41.03 0.5 -41.03 0.5 -38 0 C-37.67 -0.99 -37.34 -1.98 -37 -3 C-35.14 -3.7 -35.14 -3.7 -32.81 -4.12 C-31.99 -4.28 -31.17 -4.43 -30.33 -4.59 C-29.56 -4.73 -28.79 -4.86 -28 -5 C-27.03 -5.23 -26.06 -5.45 -25.06 -5.69 C-15.74 -6.64 -8.38 -3.9 0 0 Z " fill="#CC0001" transform="translate(308,165)"/>
<path d="M0 0 C0.33 0 0.66 0 1 0 C1 4.62 1 9.24 1 14 C0.67 14 0.34 14 0 14 C0 9.38 0 4.76 0 0 Z " fill="#000000" transform="translate(1120,282)"/>
<path d="M0 0 C0.33 0 0.66 0 1 0 C1 2.31 1 4.62 1 7 C0.67 7 0.34 7 0 7 C0 4.69 0 2.38 0 0 Z " fill="#000000" transform="translate(1120,989)"/>
<path d="M0 0 C0.66 0.33 1.32 0.66 2 1 C1.01 1.66 0.02 2.32 -1 3 C-0.67 2.01 -0.34 1.02 0 0 Z " fill="#CD0002" transform="translate(859,273)"/>
<path d="M0 0 C0.66 0.33 1.32 0.66 2 1 C1.01 1.66 0.02 2.32 -1 3 C-0.67 2.01 -0.34 1.02 0 0 Z " fill="#CD0002" transform="translate(874,258)"/>
<path d="M0 0 C0.66 0.33 1.32 0.66 2 1 C1.01 1.66 0.02 2.32 -1 3 C-0.67 2.01 -0.34 1.02 0 0 Z " fill="#CD0002" transform="translate(907,225)"/>
<path d="M0 0 C0.99 0.5 0.99 0.5 2 1 C1.01 1.5 1.01 1.5 0 2 C0 1.34 0 0.68 0 0 Z " fill="#CD0002" transform="translate(886,246)"/>
<path d="" fill="#000000" transform="translate(0,0)"/>
<path d="" fill="#000000" transform="translate(0,0)"/>
<path d="" fill="#000000" transform="translate(0,0)"/>
<path d="" fill="#000000" transform="translate(0,0)"/>
<path d="" fill="#000000" transform="translate(0,0)"/>
<path d="" fill="#000000" transform="translate(0,0)"/>
<path d="" fill="#000000" transform="translate(0,0)"/>
<path d="" fill="#CD0002" transform="translate(0,0)"/>
<path d="" fill="#000000" transform="translate(0,0)"/>
<path d="" fill="#CD0002" transform="translate(0,0)"/>
<path d="" fill="#CD0002" transform="translate(0,0)"/>
<path d="" fill="#CD0002" transform="translate(0,0)"/>
<path d="" fill="#CD0002" transform="translate(0,0)"/>
<path d="" fill="#CD0002" transform="translate(0,0)"/>
<path d="" fill="#CD0002" transform="translate(0,0)"/>
<path d="" fill="#000000" transform="translate(0,0)"/>
<path d="" fill="#000000" transform="translate(0,0)"/>
<path d="" fill="#000000" transform="translate(0,0)"/>
<path d="" fill="#CD0002" transform="translate(0,0)"/>
<path d="" fill="#CD0002" transform="translate(0,0)"/>
<path d="" fill="#CD0002" transform="translate(0,0)"/>
<path d="" fill="#CD0002" transform="translate(0,0)"/>
<path d="" fill="#CD0002" transform="translate(0,0)"/>
<path d="" fill="#CD0002" transform="translate(0,0)"/>
<path d="" fill="#CD0002" transform="translate(0,0)"/>
<path d="" fill="#CD0002" transform="translate(0,0)"/>
<path d="" fill="#CD0002" transform="translate(0,0)"/>
<path d="" fill="#CD0002" transform="translate(0,0)"/>
<path d="" fill="#CD0002" transform="translate(0,0)"/>
<path d="" fill="#CD0002" transform="translate(0,0)"/>
<path d="" fill="#CD0002" transform="translate(0,0)"/>
<path d="" fill="#CD0002" transform="translate(0,0)"/>
<path d="" fill="#CD0002" transform="translate(0,0)"/>
<path d="" fill="#CD0002" transform="translate(0,0)"/>
<path d="" fill="#CD0002" transform="translate(0,0)"/>
<path d="" fill="#CD0002" transform="translate(0,0)"/>
<path d="" fill="#CD0002" transform="translate(0,0)"/>
<path d="" fill="#CD0002" transform="translate(0,0)"/>
<path d="" fill="#CD0002" transform="translate(0,0)"/>
<path d="" fill="#CD0002" transform="translate(0,0)"/>
<path d="" fill="#CD0002" transform="translate(0,0)"/>
<path d="" fill="#CD0002" transform="translate(0,0)"/>
<path d="" fill="#CD0002" transform="translate(0,0)"/>
<path d="" fill="#CD0002" transform="translate(0,0)"/>
<path d="" fill="#CD0002" transform="translate(0,0)"/>
<path d="" fill="#CD0002" transform="translate(0,0)"/>
<path d="" fill="#CD0002" transform="translate(0,0)"/>
<path d="" fill="#CD0002" transform="translate(0,0)"/>
<path d="" fill="#CD0002" transform="translate(0,0)"/>
<path d="" fill="#CD0002" transform="translate(0,0)"/>
<path d="" fill="#CD0002" transform="translate(0,0)"/>
<path d="" fill="#CD0002" transform="translate(0,0)"/>
<path d="" fill="#CD0002" transform="translate(0,0)"/>
<path d="" fill="#CD0002" transform="translate(0,0)"/>
<path d="" fill="#CD0002" transform="translate(0,0)"/>
<path d="" fill="#CD0002" transform="translate(0,0)"/>
<path d="" fill="#CD0002" transform="translate(0,0)"/>
<path d="" fill="#CD0002" transform="translate(0,0)"/>
<path d="" fill="#CD0002" transform="translate(0,0)"/>
</svg>
