<?xml version="1.0" encoding="UTF-8"?>
<!-- Generator: visioncortex VTracer 0.6.3 -->
<svg version="1.1" xmlns="http://www.w3.org/2000/svg" width="640" height="1280">
<path d="M0 0 C2.08 -0.02 4.16 -0.04 6.24 -0.06 C7.4 -0.07 8.55 -0.08 9.75 -0.09 C13.87 0.02 16.82 0.78 20.69 2.19 C21.31 2.41 21.93 2.63 22.57 2.86 C27.92 4.83 33.02 7.24 38 10 C38 10.66 38 11.32 38 12 C38.78 12.31 39.57 12.62 40.38 12.94 C43 14 43 14 45 15 C45 15.66 45 16.32 45 17 C45.59 17.27 46.18 17.54 46.79 17.81 C59.02 24.39 66.7 40.79 71.04 53.31 C72.2 56.55 73.59 59.65 75.01 62.79 C77.42 68.18 79.5 73.71 81.63 79.21 C85.61 89.5 89.71 99.72 94.1 109.84 C97.91 118.65 101.62 127.44 104.9 136.47 C106.41 140.56 108.12 144.5 110 148.44 C112.71 154.14 114.84 159.93 116.82 165.91 C118.26 170.21 120.02 174.16 122.09 178.18 C123.23 180.46 124.07 182.78 124.88 185.19 C126.33 189.31 128 193.24 129.88 197.19 C133.09 204.01 135.7 210.98 138.29 218.06 C140.91 225.21 143.51 232.25 147.04 239 C148.16 241.35 149.02 243.73 149.88 246.19 C151.35 250.4 153.08 254.4 155 258.44 C157.46 263.64 159.34 268.84 161.08 274.32 C161.87 276.61 162.74 278.62 163.88 280.75 C165.93 284.61 167.43 288.65 168.94 292.75 C171.89 300.76 175.1 308.63 178.5 316.46 C180.86 321.89 183.16 327.29 185.12 332.88 C186.21 335.94 187.35 338.82 188.88 341.69 C191.26 346.24 192.95 351.05 194.72 355.87 C196.6 360.99 198.65 366.03 200.77 371.05 C203.9 378.57 206.98 386.1 209 394 C215.81 395.49 222.5 396.24 229.46 396.61 C241.1 397.25 252.7 398.54 264.25 400.06 C271.02 400.94 277.76 401.42 284.57 401.75 C288 402 288 402 290.41 402.49 C292.92 402.98 295.34 403.26 297.89 403.46 C299.31 403.58 299.31 403.58 300.76 403.7 C301.77 403.78 302.77 403.86 303.81 403.94 C304.86 404.02 305.9 404.11 306.98 404.2 C311.46 404.56 315.93 404.92 320.41 405.27 C323.69 405.53 326.97 405.8 330.25 406.06 C331.27 406.14 332.28 406.22 333.33 406.3 C334.28 406.38 335.23 406.46 336.2 406.54 C337.03 406.6 337.87 406.67 338.72 406.73 C340.89 406.99 342.88 407.47 345 408 C347.81 408.18 350.62 408.32 353.44 408.44 C358.84 408.69 364.1 409.07 369.44 410 C375.82 411.1 382.18 411.41 388.64 411.66 C391.97 411.79 394.82 411.94 398 413 C399.93 413.21 401.87 413.37 403.8 413.5 C404.95 413.58 406.09 413.67 407.26 413.75 C408.45 413.83 409.65 413.92 410.88 414 C413.23 414.16 415.58 414.33 417.93 414.5 C418.97 414.57 420.02 414.64 421.09 414.72 C424 415 424 415 426.57 415.51 C429.08 416.02 431.45 416.19 434.01 416.28 C434.93 416.32 435.86 416.36 436.81 416.39 C438.74 416.47 440.67 416.54 442.6 416.61 C443.52 416.64 444.44 416.68 445.39 416.72 C446.22 416.75 447.06 416.78 447.92 416.81 C450 417 450 417 452 418 C453.91 418.21 455.83 418.37 457.74 418.5 C458.89 418.58 460.04 418.67 461.22 418.75 C462.43 418.83 463.63 418.92 464.88 419 C467.25 419.16 469.62 419.33 471.99 419.5 C473.05 419.57 474.1 419.64 475.19 419.72 C477.58 419.96 479.68 420.42 482 421 C483.71 421.13 485.42 421.22 487.13 421.28 C488.1 421.32 489.07 421.36 490.07 421.39 C492.12 421.47 494.16 421.54 496.2 421.61 C497.17 421.64 498.14 421.68 499.13 421.72 C500.02 421.75 500.9 421.78 501.82 421.81 C504 422 504 422 506 423 C507.91 423.21 509.83 423.37 511.74 423.5 C512.89 423.58 514.04 423.67 515.22 423.75 C516.43 423.83 517.63 423.92 518.88 424 C521.25 424.16 523.62 424.33 525.99 424.5 C527.05 424.57 528.1 424.64 529.19 424.72 C531.58 424.96 533.68 425.42 536 426 C537.62 426.13 539.25 426.22 540.88 426.28 C541.8 426.32 542.72 426.36 543.67 426.39 C545.6 426.46 547.53 426.54 549.47 426.61 C550.39 426.64 551.31 426.68 552.25 426.72 C553.09 426.75 553.93 426.78 554.8 426.81 C557 427 557 427 560 428 C563.56 428.23 567.1 428.39 570.66 428.52 C574.87 428.71 578.13 429.17 582 431 C583.05 431.29 584.1 431.58 585.19 431.88 C594.78 434.7 603.11 438.74 611 445 C611 445.66 611 446.32 611 447 C611.66 447 612.32 447 613 447 C613 447.66 613 448.32 613 449 C613.96 449.4 613.96 449.4 614.94 449.81 C617 451 617 451 618 454 C618.99 454.33 619.98 454.66 621 455 C622.19 457.56 622.19 457.56 623 460 C623.66 460 624.32 460 625 460 C629.51 466.06 632.46 472.94 635 480 C635.28 480.73 635.55 481.46 635.84 482.21 C639.42 492.1 640.73 502.51 640 513 C639.67 513.66 639.34 514.32 639 515 C638.85 516.54 638.73 518.08 638.62 519.62 C638.16 524.56 636.95 528.47 635 533 C634.63 533.95 634.25 534.9 633.87 535.88 C631.42 542.02 628.84 547.61 625 553 C624.34 553 623.68 553 623 553 C622.79 553.68 622.59 554.36 622.38 555.06 C619.37 561.49 613.78 566.94 608 571 C607.34 571 606.68 571 606 571 C606 571.66 606 572.32 606 573 C604.36 574.62 604.36 574.62 602.19 576.44 C599.18 578.97 599.18 578.97 596.36 581.72 C595 583 595 583 593 583 C593 583.66 593 584.32 593 585 C591.5 586.52 591.5 586.52 589.44 588.25 C588.71 588.86 587.99 589.48 587.24 590.11 C586.5 590.74 585.76 591.36 585 592 C584.33 592.59 583.67 593.18 582.98 593.79 C582.06 594.61 582.06 594.61 581.12 595.44 C580.57 595.93 580.02 596.42 579.45 596.93 C578 598 578 598 576 598 C575.67 598.99 575.34 599.98 575 601 C574.34 601 573.68 601 573 601 C573 601.66 573 602.32 573 603 C571.67 604.34 571.67 604.34 569.75 605.94 C567.07 608.21 564.43 610.51 561.87 612.91 C561.33 613.41 560.8 613.91 560.24 614.42 C559.17 615.43 558.1 616.43 557.04 617.44 C553.22 621 553.22 621 551 621 C551 621.66 551 622.32 551 623 C549.36 624.62 549.36 624.62 547.19 626.44 C544.18 628.97 544.18 628.97 541.36 631.72 C540 633 540 633 538 633 C538 633.66 538 634.32 538 635 C536.67 636.34 536.67 636.34 534.75 637.94 C532.07 640.21 529.43 642.51 526.87 644.91 C526.33 645.41 525.8 645.91 525.24 646.42 C524.17 647.43 523.1 648.43 522.04 649.44 C518.22 653 518.22 653 516 653 C515.67 653.99 515.34 654.98 515 656 C514.34 656 513.68 656 513 656 C513 656.66 513 657.32 513 658 C511.6 659.41 511.6 659.41 509.62 661.06 C505.34 664.69 501.22 668.46 497.1 672.28 C495 674 495 674 493 674 C493 674.66 493 675.32 493 676 C492.34 676 491.68 676 491 676 C491 676.66 491 677.32 491 678 C485.52 683 485.52 683 483 683 C482.6 683.96 482.6 683.96 482.19 684.94 C481 687 481 687 478 688 C478 688.66 478 689.32 478 690 C476.6 691.41 476.6 691.41 474.62 693.06 C470.34 696.69 466.22 700.46 462.1 704.28 C460 706 460 706 458 706 C458 706.66 458 707.32 458 708 C456.67 709.34 456.67 709.34 454.75 710.94 C452.07 713.21 449.43 715.51 446.87 717.91 C446.33 718.41 445.8 718.91 445.24 719.42 C444.17 720.43 443.1 721.43 442.04 722.44 C438.22 726 438.22 726 436 726 C436 726.66 436 727.32 436 728 C434.36 729.62 434.36 729.62 432.19 731.44 C429.18 733.97 429.18 733.97 426.36 736.72 C425 738 425 738 423 738 C423 738.66 423 739.32 423 740 C421.39 741.66 421.39 741.66 419.25 743.5 C418.55 744.11 417.86 744.72 417.14 745.34 C415.16 746.88 413.28 747.97 411 749 C411 749.66 411 750.32 411 751 C405.52 756 405.52 756 403 756 C403 756.66 403 757.32 403 758 C402.34 758 401.68 758 401 758 C400.67 758.99 400.34 759.98 400 761 C399.34 761 398.68 761 398 761 C398 761.66 398 762.32 398 763 C396.64 764.41 396.64 764.41 394.69 766.06 C393.6 766.99 393.6 766.99 392.49 767.93 C388.89 770.92 385.26 773.86 381.61 776.79 C378.11 779.75 374.96 782.98 371.81 786.31 C370 788 370 788 368 788 C367.6 788.96 367.6 788.96 367.19 789.94 C366 792 366 792 363 793 C363 793.66 363 794.32 363 795 C361.3 796.52 359.54 797.97 357.75 799.38 C354.95 801.59 352.26 803.73 349.77 806.29 C348 808 348 808 346 808 C345.67 808.99 345.34 809.98 345 811 C344.34 811 343.68 811 343 811 C343 811.66 343 812.32 343 813 C342.34 813 341.68 813 341 813 C341.45 815.71 341.91 818.42 342.38 821.12 C342.5 821.89 342.63 822.65 342.76 823.43 C343.33 826.74 343.94 829.83 345.01 833.02 C346.51 837.52 347.12 842.13 347.86 846.81 C348.36 849.85 348.84 852.6 350 855.46 C351.76 859.92 352.16 864.69 352.86 869.41 C353.5 873.58 354.41 877.08 356 881 C356.61 883.79 357.05 886.61 357.5 889.44 C358.42 895.28 358.42 895.28 360 900.97 C361.56 905.69 362.13 910.55 362.86 915.46 C363.5 919.59 364.35 923.13 366 927 C366.38 929.2 366.38 929.2 366.56 931.25 C366.58 934.79 366.58 934.79 368 936 C368.33 937.6 368.61 939.2 368.88 940.81 C369.59 944.93 370.45 948.95 371.5 953 C372.48 956.82 373.33 960.61 374 964.5 C374.85 969.44 376.03 974.25 377.28 979.1 C378.13 982.51 378.81 985.93 379.47 989.37 C380.09 992.43 380.79 995.46 381.5 998.5 C382.58 1003.12 383.56 1007.75 384.47 1012.41 C385.09 1015.45 385.79 1018.47 386.5 1021.5 C388.46 1029.91 390.09 1038.34 391.54 1046.85 C391.79 1048.97 391.79 1048.97 393 1050 C393.18 1051.41 393.32 1052.83 393.44 1054.25 C393.8 1057.87 394.62 1060.63 396 1064 C396.22 1065.41 396.4 1066.83 396.56 1068.25 C396.58 1071.79 396.58 1071.79 398 1073 C398.18 1074.41 398.32 1075.83 398.44 1077.25 C398.8 1080.87 399.62 1083.63 401 1087 C401.22 1088.41 401.4 1089.83 401.56 1091.25 C401.58 1094.79 401.58 1094.79 403 1096 C403.33 1097.6 403.61 1099.2 403.88 1100.81 C404.77 1105.98 405.98 1111.02 407.28 1116.1 C408.13 1119.51 408.81 1122.93 409.47 1126.37 C410.09 1129.43 410.79 1132.46 411.5 1135.5 C412.58 1140.12 413.56 1144.75 414.47 1149.41 C415.09 1152.45 415.79 1155.47 416.5 1158.5 C417.58 1163.14 418.58 1167.78 419.46 1172.46 C419.97 1175.03 419.97 1175.03 420.79 1177.63 C422.98 1185.3 423.32 1192.61 423.38 1200.56 C423.39 1201.6 423.4 1202.64 423.42 1203.72 C423.36 1213.75 421.26 1222.93 417 1232 C416.72 1232.75 416.45 1233.5 416.16 1234.28 C414.75 1237.6 412.92 1240.58 411 1243.62 C410.64 1244.2 410.29 1244.77 409.92 1245.36 C408.32 1247.93 406.68 1250.48 405 1253 C404.34 1253 403.68 1253 403 1253 C402.6 1253.96 402.6 1253.96 402.19 1254.94 C401 1257 401 1257 398 1258 C397.67 1258.99 397.34 1259.98 397 1261 C396.34 1261 395.68 1261 395 1261 C395 1261.66 395 1262.32 395 1263 C390.62 1266 390.62 1266 388 1266 C388 1266.66 388 1267.32 388 1268 C383.11 1270.85 378.48 1273.44 373 1275 C372.33 1275.25 371.66 1275.49 370.97 1275.75 C353.83 1281.71 334.57 1279.66 318.3 1272.18 C314.85 1270.41 311.55 1268.41 308.26 1266.37 C306.21 1265.13 304.15 1264.04 302 1263 C302 1262.34 302 1261.68 302 1261 C301.12 1260.82 301.12 1260.82 300.22 1260.63 C297.99 1260 296.44 1259.2 294.5 1257.96 C293.84 1257.55 293.19 1257.14 292.52 1256.71 C291.83 1256.27 291.15 1255.83 290.44 1255.38 C289.72 1254.92 289 1254.47 288.27 1254 C286.17 1252.67 284.09 1251.34 282 1250 C280.17 1248.83 278.33 1247.67 276.5 1246.5 C275.65 1245.95 274.79 1245.41 273.91 1244.85 C269.55 1242.08 265.16 1239.36 260.77 1236.63 C257.2 1234.4 253.67 1232.13 250.19 1229.75 C246.14 1227.01 241.9 1224.69 237.58 1222.39 C232.34 1219.56 232.34 1219.56 230 1218 C230 1217.34 230 1216.68 230 1216 C229.13 1215.81 229.13 1215.81 228.25 1215.62 C225.98 1214.99 224.07 1214.11 222 1213 C222 1212.34 222 1211.68 222 1211 C221.14 1210.84 221.14 1210.84 220.27 1210.68 C217.66 1209.9 215.91 1208.75 213.69 1207.19 C211.01 1205.35 208.35 1203.57 205.5 1202 C202.73 1200.46 200.12 1198.77 197.5 1197 C192.52 1193.64 187.42 1190.6 182 1188 C182 1187.34 182 1186.68 182 1186 C181.19 1185.87 181.19 1185.87 180.36 1185.74 C177.21 1184.75 174.9 1183.07 172.19 1181.19 C167.87 1178.25 163.58 1175.51 159 1173 C157.35 1172.08 155.71 1171.17 154.06 1170.25 C152.71 1169.5 151.35 1168.75 150 1168 C150 1167.34 150 1166.68 150 1166 C149.13 1165.81 149.13 1165.81 148.25 1165.62 C145.98 1164.99 144.07 1164.11 142 1163 C142 1162.34 142 1161.68 142 1161 C141.13 1160.81 141.13 1160.81 140.25 1160.62 C137.98 1159.99 136.07 1159.11 134 1158 C134 1157.34 134 1156.68 134 1156 C133.42 1155.89 132.85 1155.78 132.25 1155.67 C129.72 1154.92 128.09 1153.84 125.94 1152.31 C122.47 1149.93 118.97 1147.85 115.25 1145.88 C111.48 1143.87 108.29 1141.74 105 1139 C103.32 1138.03 101.65 1137.07 99.95 1136.13 C97.73 1134.85 95.62 1133.44 93.5 1132 C90.34 1129.87 87.16 1127.92 83.83 1126.07 C80.79 1124.29 77.91 1122.27 75.02 1120.27 C72.93 1118.84 72.93 1118.84 70 1118 C70 1117.34 70 1116.68 70 1116 C69.42 1115.88 68.84 1115.75 68.25 1115.62 C65.98 1114.99 64.07 1114.11 62 1113 C62 1112.34 62 1111.68 62 1111 C61.42 1110.88 60.84 1110.75 60.25 1110.62 C57.98 1109.99 56.07 1109.11 54 1108 C54 1107.34 54 1106.68 54 1106 C53.14 1105.84 53.14 1105.84 52.27 1105.68 C49.66 1104.9 47.91 1103.75 45.69 1102.19 C41.92 1099.55 38.01 1097.25 34 1095 C31.01 1093.3 28.04 1091.59 25.06 1089.88 C24.28 1089.43 23.5 1088.99 22.7 1088.54 C21.97 1088.11 21.23 1087.68 20.47 1087.24 C19.81 1086.86 19.14 1086.48 18.45 1086.08 C17.97 1085.72 17.49 1085.37 17 1085 C17 1084.34 17 1083.68 17 1083 C16.48 1082.9 15.95 1082.79 15.42 1082.68 C9.69 1081.06 3.94 1078.6 0 1074 C-1.95 1068.11 -1.73 1062.4 -1.6 1056.24 C-1.61 1054.4 -1.62 1052.56 -1.65 1050.72 C-1.69 1045.64 -1.64 1040.57 -1.59 1035.5 C-1.54 1029.98 -1.58 1024.47 -1.6 1018.95 C-1.62 1009.28 -1.6 999.62 -1.55 989.95 C-1.47 975.57 -1.47 961.19 -1.48 946.81 C-1.5 922.62 -1.45 898.44 -1.37 874.25 C-1.3 850.3 -1.25 826.35 -1.23 802.4 C-1.23 801.28 -1.23 801.28 -1.23 800.14 C-1.23 793.35 -1.22 786.56 -1.22 779.76 C-1.21 762.88 -1.2 745.99 -1.18 729.1 C-1.18 728.33 -1.18 727.56 -1.18 726.77 C-1.15 689.36 -1.07 651.95 -0.98 614.53 C-0.95 601.55 -0.92 588.57 -0.89 575.59 C-0.89 574.78 -0.89 573.97 -0.89 573.15 C-0.8 535.71 -0.76 498.28 -0.72 460.85 C-0.71 458.42 -0.71 455.99 -0.71 453.56 C-0.69 437.46 -0.68 421.36 -0.66 405.25 C-0.63 373.21 -0.59 341.17 -0.55 309.13 C-0.55 307.6 -0.55 306.08 -0.55 304.55 C-0.45 223.34 -0.3 142.13 0 0 Z " fill="#BABCBA" transform="translate(0,0)"/>
<path d="M0 0 C14.68 0 14.68 0 20.69 2.19 C21.31 2.41 21.93 2.63 22.57 2.86 C27.92 4.83 33.02 7.24 38 10 C38 10.66 38 11.32 38 12 C38.78 12.31 39.57 12.62 40.38 12.94 C43 14 43 14 45 15 C45 15.66 45 16.32 45 17 C45.59 17.27 46.18 17.54 46.79 17.81 C59.02 24.39 66.7 40.79 71.04 53.31 C72.2 56.55 73.59 59.65 75.01 62.79 C77.42 68.18 79.5 73.71 81.63 79.21 C85.61 89.5 89.71 99.72 94.1 109.84 C97.91 118.65 101.62 127.44 104.9 136.47 C106.41 140.56 108.12 144.5 110 148.44 C112.71 154.14 114.84 159.93 116.82 165.91 C118.26 170.21 120.02 174.16 122.09 178.18 C123.23 180.46 124.07 182.78 124.88 185.19 C126.33 189.31 128 193.24 129.88 197.19 C133.09 204.01 135.7 210.98 138.29 218.06 C140.91 225.21 143.51 232.25 147.04 239 C148.16 241.35 149.02 243.73 149.88 246.19 C151.35 250.4 153.08 254.4 155 258.44 C157.46 263.64 159.34 268.84 161.08 274.32 C161.87 276.61 162.74 278.62 163.88 280.75 C165.93 284.61 167.43 288.65 168.94 292.75 C171.89 300.76 175.1 308.63 178.5 316.46 C180.86 321.89 183.16 327.29 185.12 332.88 C186.21 335.94 187.35 338.82 188.88 341.69 C191.26 346.24 192.95 351.05 194.72 355.87 C196.6 360.99 198.65 366.03 200.77 371.05 C203.9 378.57 206.98 386.1 209 394 C215.81 395.49 222.5 396.24 229.46 396.61 C241.1 397.25 252.7 398.54 264.25 400.06 C271.02 400.94 277.76 401.42 284.57 401.75 C288 402 288 402 290.41 402.49 C292.92 402.98 295.34 403.26 297.89 403.46 C299.31 403.58 299.31 403.58 300.76 403.7 C301.77 403.78 302.77 403.86 303.81 403.94 C304.86 404.02 305.9 404.11 306.98 404.2 C311.46 404.56 315.93 404.92 320.41 405.27 C323.69 405.53 326.97 405.8 330.25 406.06 C331.27 406.14 332.28 406.22 333.33 406.3 C334.28 406.38 335.23 406.46 336.2 406.54 C337.03 406.6 337.87 406.67 338.72 406.73 C340.89 406.99 342.88 407.47 345 408 C347.81 408.18 350.62 408.32 353.44 408.44 C358.84 408.69 364.1 409.07 369.44 410 C375.82 411.1 382.18 411.41 388.64 411.66 C391.97 411.79 394.82 411.94 398 413 C399.93 413.21 401.87 413.37 403.8 413.5 C404.95 413.58 406.09 413.67 407.26 413.75 C408.45 413.83 409.65 413.92 410.88 414 C413.23 414.16 415.58 414.33 417.93 414.5 C418.97 414.57 420.02 414.64 421.09 414.72 C424 415 424 415 426.57 415.51 C429.08 416.02 431.45 416.19 434.01 416.28 C434.93 416.32 435.86 416.36 436.81 416.39 C438.74 416.47 440.67 416.54 442.6 416.61 C443.52 416.64 444.44 416.68 445.39 416.72 C446.22 416.75 447.06 416.78 447.92 416.81 C450 417 450 417 452 418 C453.91 418.21 455.83 418.37 457.74 418.5 C458.89 418.58 460.04 418.67 461.22 418.75 C462.43 418.83 463.63 418.92 464.88 419 C467.25 419.16 469.62 419.33 471.99 419.5 C473.05 419.57 474.1 419.64 475.19 419.72 C477.58 419.96 479.68 420.42 482 421 C483.71 421.13 485.42 421.22 487.13 421.28 C488.1 421.32 489.07 421.36 490.07 421.39 C492.12 421.47 494.16 421.54 496.2 421.61 C497.17 421.64 498.14 421.68 499.13 421.72 C500.02 421.75 500.9 421.78 501.82 421.81 C504 422 504 422 506 423 C507.91 423.21 509.83 423.37 511.74 423.5 C512.89 423.58 514.04 423.67 515.22 423.75 C516.43 423.83 517.63 423.92 518.88 424 C521.25 424.16 523.62 424.33 525.99 424.5 C527.05 424.57 528.1 424.64 529.19 424.72 C531.58 424.96 533.68 425.42 536 426 C537.62 426.13 539.25 426.22 540.88 426.28 C541.8 426.32 542.72 426.36 543.67 426.39 C545.6 426.46 547.53 426.54 549.47 426.61 C550.39 426.64 551.31 426.68 552.25 426.72 C553.09 426.75 553.93 426.78 554.8 426.81 C557 427 557 427 560 428 C563.56 428.23 567.1 428.39 570.66 428.52 C574.87 428.71 578.13 429.17 582 431 C583.05 431.29 584.1 431.58 585.19 431.88 C594.78 434.7 603.11 438.74 611 445 C611 445.66 611 446.32 611 447 C611.66 447 612.32 447 613 447 C613 447.66 613 448.32 613 449 C613.96 449.4 613.96 449.4 614.94 449.81 C617 451 617 451 618 454 C618.99 454.33 619.98 454.66 621 455 C622.19 457.56 622.19 457.56 623 460 C623.66 460 624.32 460 625 460 C629.51 466.06 632.46 472.94 635 480 C635.28 480.73 635.55 481.46 635.84 482.21 C639.42 492.1 640.73 502.51 640 513 C639.67 513.66 639.34 514.32 639 515 C638.85 516.54 638.73 518.08 638.62 519.62 C638.16 524.56 636.95 528.47 635 533 C634.63 533.95 634.25 534.9 633.87 535.88 C631.42 542.02 628.84 547.61 625 553 C624.34 553 623.68 553 623 553 C622.79 553.68 622.59 554.36 622.38 555.06 C619.37 561.49 613.78 566.94 608 571 C607.34 571 606.68 571 606 571 C606 571.66 606 572.32 606 573 C604.36 574.62 604.36 574.62 602.19 576.44 C599.18 578.97 599.18 578.97 596.36 581.72 C595 583 595 583 593 583 C593 583.66 593 584.32 593 585 C591.5 586.52 591.5 586.52 589.44 588.25 C588.71 588.86 587.99 589.48 587.24 590.11 C586.5 590.74 585.76 591.36 585 592 C584.33 592.59 583.67 593.18 582.98 593.79 C582.06 594.61 582.06 594.61 581.12 595.44 C580.57 595.93 580.02 596.42 579.45 596.93 C578 598 578 598 576 598 C575.67 598.99 575.34 599.98 575 601 C574.34 601 573.68 601 573 601 C573 601.66 573 602.32 573 603 C571.67 604.34 571.67 604.34 569.75 605.94 C567.07 608.21 564.43 610.51 561.87 612.91 C561.33 613.41 560.8 613.91 560.24 614.42 C559.17 615.43 558.1 616.43 557.04 617.44 C553.22 621 553.22 621 551 621 C551 621.66 551 622.32 551 623 C549.36 624.62 549.36 624.62 547.19 626.44 C544.18 628.97 544.18 628.97 541.36 631.72 C540 633 540 633 538 633 C538 633.66 538 634.32 538 635 C536.67 636.34 536.67 636.34 534.75 637.94 C532.07 640.21 529.43 642.51 526.87 644.91 C526.33 645.41 525.8 645.91 525.24 646.42 C524.17 647.43 523.1 648.43 522.04 649.44 C518.22 653 518.22 653 516 653 C515.67 653.99 515.34 654.98 515 656 C514.34 656 513.68 656 513 656 C513 656.66 513 657.32 513 658 C511.6 659.41 511.6 659.41 509.62 661.06 C505.34 664.69 501.22 668.46 497.1 672.28 C495 674 495 674 493 674 C493 674.66 493 675.32 493 676 C492.34 676 491.68 676 491 676 C491 676.66 491 677.32 491 678 C485.52 683 485.52 683 483 683 C482.6 683.96 482.6 683.96 482.19 684.94 C481 687 481 687 478 688 C478 688.66 478 689.32 478 690 C476.6 691.41 476.6 691.41 474.62 693.06 C470.34 696.69 466.22 700.46 462.1 704.28 C460 706 460 706 458 706 C458 706.66 458 707.32 458 708 C456.67 709.34 456.67 709.34 454.75 710.94 C452.07 713.21 449.43 715.51 446.87 717.91 C446.33 718.41 445.8 718.91 445.24 719.42 C444.17 720.43 443.1 721.43 442.04 722.44 C438.22 726 438.22 726 436 726 C436 726.66 436 727.32 436 728 C434.36 729.62 434.36 729.62 432.19 731.44 C429.18 733.97 429.18 733.97 426.36 736.72 C425 738 425 738 423 738 C423 738.66 423 739.32 423 740 C421.39 741.66 421.39 741.66 419.25 743.5 C418.55 744.11 417.86 744.72 417.14 745.34 C415.16 746.88 413.28 747.97 411 749 C411 749.66 411 750.32 411 751 C405.52 756 405.52 756 403 756 C403 756.66 403 757.32 403 758 C402.34 758 401.68 758 401 758 C400.67 758.99 400.34 759.98 400 761 C399.34 761 398.68 761 398 761 C398 761.66 398 762.32 398 763 C396.64 764.41 396.64 764.41 394.69 766.06 C393.6 766.99 393.6 766.99 392.49 767.93 C388.89 770.92 385.26 773.86 381.61 776.79 C378.11 779.75 374.96 782.98 371.81 786.31 C370 788 370 788 368 788 C367.6 788.96 367.6 788.96 367.19 789.94 C366 792 366 792 363 793 C363 793.66 363 794.32 363 795 C361.3 796.52 359.54 797.97 357.75 799.38 C354.95 801.59 352.26 803.73 349.77 806.29 C348 808 348 808 346 808 C345.67 808.99 345.34 809.98 345 811 C344.34 811 343.68 811 343 811 C343 811.66 343 812.32 343 813 C342.34 813 341.68 813 341 813 C341.45 815.71 341.91 818.42 342.38 821.12 C342.5 821.89 342.63 822.65 342.76 823.43 C343.33 826.74 343.94 829.83 345.01 833.02 C346.51 837.52 347.12 842.13 347.86 846.81 C348.36 849.85 348.84 852.6 350 855.46 C351.76 859.92 352.16 864.69 352.86 869.41 C353.5 873.58 354.41 877.08 356 881 C356.61 883.79 357.05 886.61 357.5 889.44 C358.42 895.28 358.42 895.28 360 900.97 C361.56 905.69 362.13 910.55 362.86 915.46 C363.5 919.59 364.35 923.13 366 927 C366.38 929.2 366.38 929.2 366.56 931.25 C366.58 934.79 366.58 934.79 368 936 C368.33 937.6 368.61 939.2 368.88 940.81 C369.59 944.93 370.45 948.95 371.5 953 C372.48 956.82 373.33 960.61 374 964.5 C374.85 969.44 376.03 974.25 377.28 979.1 C378.13 982.51 378.81 985.93 379.47 989.37 C380.09 992.43 380.79 995.46 381.5 998.5 C382.58 1003.12 383.56 1007.75 384.47 1012.41 C385.09 1015.45 385.79 1018.47 386.5 1021.5 C388.46 1029.91 390.09 1038.34 391.54 1046.85 C391.79 1048.97 391.79 1048.97 393 1050 C393.18 1051.41 393.32 1052.83 393.44 1054.25 C393.8 1057.87 394.62 1060.63 396 1064 C396.22 1065.41 396.4 1066.83 396.56 1068.25 C396.58 1071.79 396.58 1071.79 398 1073 C398.18 1074.41 398.32 1075.83 398.44 1077.25 C398.8 1080.87 399.62 1083.63 401 1087 C401.22 1088.41 401.4 1089.83 401.56 1091.25 C401.58 1094.79 401.58 1094.79 403 1096 C403.33 1097.6 403.61 1099.2 403.88 1100.81 C404.77 1105.98 405.98 1111.02 407.28 1116.1 C408.13 1119.51 408.81 1122.93 409.47 1126.37 C410.09 1129.43 410.79 1132.46 411.5 1135.5 C412.58 1140.12 413.56 1144.75 414.47 1149.41 C415.09 1152.45 415.79 1155.47 416.5 1158.5 C417.58 1163.14 418.58 1167.78 419.46 1172.46 C419.97 1175.03 419.97 1175.03 420.79 1177.63 C422.98 1185.3 423.32 1192.61 423.38 1200.56 C423.39 1201.6 423.4 1202.64 423.42 1203.72 C423.36 1213.75 421.26 1222.93 417 1232 C416.72 1232.75 416.45 1233.5 416.16 1234.28 C414.75 1237.6 412.92 1240.58 411 1243.62 C410.64 1244.2 410.29 1244.77 409.92 1245.36 C408.32 1247.93 406.68 1250.48 405 1253 C404.34 1253 403.68 1253 403 1253 C402.6 1253.96 402.6 1253.96 402.19 1254.94 C401 1257 401 1257 398 1258 C397.67 1258.99 397.34 1259.98 397 1261 C396.34 1261 395.68 1261 395 1261 C395 1261.66 395 1262.32 395 1263 C390.62 1266 390.62 1266 388 1266 C388 1266.66 388 1267.32 388 1268 C383.11 1270.85 378.48 1273.44 373 1275 C372.33 1275.25 371.66 1275.49 370.97 1275.75 C353.83 1281.71 334.57 1279.66 318.3 1272.18 C314.85 1270.41 311.55 1268.41 308.26 1266.37 C306.21 1265.13 304.15 1264.04 302 1263 C302 1262.34 302 1261.68 302 1261 C301.12 1260.82 301.12 1260.82 300.22 1260.63 C297.99 1260 296.44 1259.2 294.5 1257.96 C293.84 1257.55 293.19 1257.14 292.52 1256.71 C291.83 1256.27 291.15 1255.83 290.44 1255.38 C289.72 1254.92 289 1254.47 288.27 1254 C286.17 1252.67 284.09 1251.34 282 1250 C280.17 1248.83 278.33 1247.67 276.5 1246.5 C275.65 1245.95 274.79 1245.41 273.91 1244.85 C269.55 1242.08 265.16 1239.36 260.77 1236.63 C257.2 1234.4 253.67 1232.13 250.19 1229.75 C246.14 1227.01 241.9 1224.69 237.58 1222.39 C232.34 1219.56 232.34 1219.56 230 1218 C230 1217.34 230 1216.68 230 1216 C229.13 1215.81 229.13 1215.81 228.25 1215.62 C225.98 1214.99 224.07 1214.11 222 1213 C222 1212.34 222 1211.68 222 1211 C221.14 1210.84 221.14 1210.84 220.27 1210.68 C217.66 1209.9 215.91 1208.75 213.69 1207.19 C211.01 1205.35 208.35 1203.57 205.5 1202 C202.73 1200.46 200.12 1198.77 197.5 1197 C192.52 1193.64 187.42 1190.6 182 1188 C182 1187.34 182 1186.68 182 1186 C181.19 1185.87 181.19 1185.87 180.36 1185.74 C177.21 1184.75 174.9 1183.07 172.19 1181.19 C167.87 1178.25 163.58 1175.51 159 1173 C157.35 1172.08 155.71 1171.17 154.06 1170.25 C152.71 1169.5 151.35 1168.75 150 1168 C150 1167.34 150 1166.68 150 1166 C149.13 1165.81 149.13 1165.81 148.25 1165.62 C145.98 1164.99 144.07 1164.11 142 1163 C142 1162.34 142 1161.68 142 1161 C141.13 1160.81 141.13 1160.81 140.25 1160.62 C137.98 1159.99 136.07 1159.11 134 1158 C134 1157.34 134 1156.68 134 1156 C133.42 1155.89 132.85 1155.78 132.25 1155.67 C129.72 1154.92 128.09 1153.84 125.94 1152.31 C122.47 1149.93 118.97 1147.85 115.25 1145.88 C111.48 1143.87 108.29 1141.74 105 1139 C103.32 1138.03 101.65 1137.07 99.95 1136.13 C97.73 1134.85 95.62 1133.44 93.5 1132 C90.34 1129.87 87.16 1127.92 83.83 1126.07 C80.79 1124.29 77.91 1122.27 75.02 1120.27 C72.93 1118.84 72.93 1118.84 70 1118 C70 1117.34 70 1116.68 70 1116 C69.42 1115.88 68.84 1115.75 68.25 1115.62 C65.98 1114.99 64.07 1114.11 62 1113 C62 1112.34 62 1111.68 62 1111 C61.42 1110.88 60.84 1110.75 60.25 1110.62 C57.98 1109.99 56.07 1109.11 54 1108 C54 1107.34 54 1106.68 54 1106 C53.14 1105.84 53.14 1105.84 52.27 1105.68 C49.66 1104.9 47.91 1103.75 45.69 1102.19 C41.92 1099.55 38.01 1097.25 34 1095 C31.01 1093.3 28.04 1091.59 25.06 1089.88 C24.28 1089.43 23.5 1088.99 22.7 1088.54 C21.97 1088.11 21.23 1087.68 20.47 1087.24 C19.81 1086.86 19.14 1086.48 18.45 1086.08 C17.97 1085.72 17.49 1085.37 17 1085 C17 1084.34 17 1083.68 17 1083 C16.48 1082.89 15.96 1082.77 15.42 1082.65 C9.41 1081.03 3.58 1079.4 0 1074 C-2.28 1065.66 -1.21 1056.53 -0.81 1048 C-0.75 1045.58 -0.69 1043.16 -0.63 1040.74 C-0.49 1034.82 -0.27 1028.91 0 1023 C2.92 1023.68 5.35 1024.58 8 1026 C8 1026.66 8 1027.32 8 1028 C8.76 1028.14 9.53 1028.29 10.31 1028.44 C13 1029 13 1029 16 1030 C16 1030.66 16 1031.32 16 1032 C17.32 1032 18.64 1032 20 1032 C21.49 1033.34 21.49 1033.34 23 1035 C24.38 1035.92 25.8 1036.79 27.23 1037.63 C28.43 1038.35 28.43 1038.35 29.66 1039.08 C31.36 1040.07 33.05 1041.07 34.75 1042.06 C35.95 1042.78 35.95 1042.78 37.17 1043.5 C38.27 1044.15 38.27 1044.15 39.4 1044.81 C39.92 1045.2 40.45 1045.6 41 1046 C41 1046.66 41 1047.32 41 1048 C41.52 1048.1 42.03 1048.21 42.56 1048.31 C48.14 1049.89 51.99 1051.85 56 1056 C58.11 1056.63 58.11 1056.63 60 1057 C60.33 1057.66 60.66 1058.32 61 1059 C61.99 1059.33 62.98 1059.66 64 1060 C64 1060.66 64 1061.32 64 1062 C64.58 1062.12 65.16 1062.25 65.75 1062.38 C68.02 1063.01 69.93 1063.89 72 1065 C72 1065.66 72 1066.32 72 1067 C72.99 1067 73.98 1067 75 1067 C75.33 1067.66 75.66 1068.32 76 1069 C76.9 1069.19 76.9 1069.19 77.81 1069.38 C80 1070 80 1070 81.69 1071.81 C84.98 1074.93 88.83 1076.32 93 1078 C93 1078.66 93 1079.32 93 1080 C93.99 1080 94.98 1080 96 1080 C96 1080.66 96 1081.32 96 1082 C97.32 1082 98.64 1082 100 1082 C100 1082.99 100 1083.98 100 1085 C100.54 1085.1 101.09 1085.21 101.64 1085.32 C104.57 1086.17 107.01 1087.48 109.69 1088.94 C110.66 1089.46 111.63 1089.99 112.64 1090.53 C115 1092 115 1092 116 1094 C117.64 1094.97 119.31 1095.88 121 1096.75 C125.57 1099.17 129.82 1101.8 134.03 1104.8 C135.95 1106.1 135.95 1106.1 138.19 1106.54 C138.79 1106.69 139.39 1106.84 140 1107 C140.33 1107.66 140.66 1108.32 141 1109 C144.9 1111.4 148.68 1113.43 153 1115 C153 1115.66 153 1116.32 153 1117 C153.72 1117.26 154.45 1117.52 155.2 1117.79 C158.09 1119.04 160.34 1120.52 162.88 1122.38 C167.6 1125.75 172.21 1128.96 177.69 1131 C180 1132 180 1132 181.75 1133.81 C185.04 1137.01 188.96 1138.89 193 1141 C193 1141.66 193 1142.32 193 1143 C193.78 1143.19 194.57 1143.37 195.38 1143.56 C199.62 1145.24 202.85 1147.59 206.54 1150.25 C210.8 1153.28 214.86 1155.81 220 1157 C220.33 1157.66 220.66 1158.32 221 1159 C221.6 1159.12 222.2 1159.25 222.81 1159.38 C225.69 1160.2 226.9 1161.9 229 1164 C231.14 1164.79 231.14 1164.79 233 1165 C233 1165.66 233 1166.32 233 1167 C233.58 1167.29 234.16 1167.58 234.75 1167.88 C236.83 1168.92 238.92 1169.96 241 1171 C241 1171.66 241 1172.32 241 1173 C241.52 1173.1 242.03 1173.21 242.56 1173.31 C248.14 1174.89 251.99 1176.85 256 1181 C258.11 1181.63 258.11 1181.63 260 1182 C260.33 1182.66 260.66 1183.32 261 1184 C261.99 1184.33 262.98 1184.66 264 1185 C264 1185.66 264 1186.32 264 1187 C264.52 1187.08 265.03 1187.16 265.56 1187.25 C269.09 1188.33 271.87 1190.05 275 1192 C275.33 1192.66 275.66 1193.32 276 1194 C278.47 1195.34 281.01 1196.5 283.55 1197.68 C285.87 1198.93 287.19 1200.14 289 1202 C290.8 1202.98 290.8 1202.98 292.69 1203.69 C294.33 1204.34 294.33 1204.34 296 1205 C296 1205.66 296 1206.32 296 1207 C297.32 1207 298.64 1207 300 1207 C300.33 1207.66 300.66 1208.32 301 1209 C302.63 1209.95 304.26 1210.89 305.91 1211.79 C308.18 1213.1 310.29 1214.56 312.44 1216.06 C315.32 1218.03 317.94 1219.46 321.25 1220.56 C325.16 1221.87 327.12 1224.04 330 1227 C338.46 1233.25 349.96 1232.2 360 1232 C360 1231.34 360 1230.68 360 1230 C361.65 1230 363.3 1230 365 1230 C365 1229.01 365 1228.02 365 1227 C366.18 1226.63 366.18 1226.63 367.38 1226.25 C370.42 1224.8 370.73 1224 372 1221 C372.7 1220.3 372.7 1220.3 373.42 1219.59 C377.43 1215.55 379.23 1210.71 379.39 1205.06 C379.36 1203.37 379.32 1201.69 379.25 1200 C379.23 1199.13 379.21 1198.26 379.2 1197.36 C379.15 1195.24 379.08 1193.12 379 1191 C378.34 1190.67 377.68 1190.34 377 1190 C376.62 1187.75 376.62 1187.75 376.44 1185 C376.47 1181.69 376.47 1181.69 375 1179 C374.93 1177.15 374.92 1175.29 374.94 1173.44 C374.95 1172.43 374.96 1171.41 374.96 1170.37 C374.98 1169.2 374.98 1169.2 375 1168 C374.01 1167.67 373.02 1167.34 372 1167 C371.94 1166.22 371.88 1165.44 371.82 1164.63 C371.69 1163.11 371.69 1163.11 371.56 1161.56 C371.48 1160.55 371.4 1159.54 371.32 1158.5 C371.27 1156.06 371.27 1156.06 370 1155 C369.72 1152.71 369.55 1150.43 369.38 1148.13 C369.17 1145.79 369.17 1145.79 367 1144 C366.62 1141.65 366.62 1141.65 366.44 1138.94 C366.46 1135.66 366.46 1135.66 365 1133 C364.82 1131.42 364.68 1129.84 364.56 1128.25 C364.22 1124.43 363.52 1121.53 362 1118 C361.65 1115.67 361.31 1113.34 361 1111 C360.67 1110.67 360.34 1110.34 360 1110 C359.77 1107.98 359.59 1105.96 359.44 1103.94 C359.31 1102.28 359.31 1102.28 359.18 1100.59 C359.12 1099.74 359.06 1098.88 359 1098 C358.34 1098 357.68 1098 357 1098 C356.94 1097.29 356.88 1096.58 356.82 1095.85 C356.69 1094.47 356.69 1094.47 356.56 1093.06 C356.48 1092.15 356.4 1091.23 356.32 1090.29 C356.24 1088.04 356.24 1088.04 355 1087 C354.72 1084.45 354.55 1081.9 354.38 1079.35 C354.21 1076.81 354.21 1076.81 352 1075 C351.8 1072.62 351.8 1072.62 351.88 1069.88 C351.89 1068.96 351.91 1068.05 351.93 1067.12 C351.96 1066.07 351.96 1066.07 352 1065 C351.34 1065 350.68 1065 350 1065 C349.95 1064.22 349.9 1063.44 349.85 1062.63 C349.78 1061.62 349.7 1060.61 349.62 1059.56 C349.56 1058.55 349.49 1057.54 349.41 1056.5 C349.28 1055.68 349.14 1054.85 349 1054 C348.34 1053.67 347.68 1053.34 347 1053 C346.62 1050.75 346.62 1050.75 346.44 1048 C346.47 1044.69 346.47 1044.69 345 1042 C344.72 1039.16 344.55 1036.32 344.38 1033.47 C344.25 1032.65 344.13 1031.84 344 1031 C343.34 1030.67 342.68 1030.34 342 1030 C341.62 1027.53 341.62 1027.53 341.44 1024.5 C341.51 1020.94 341.51 1020.94 340 1018 C339.43 1015.43 338.97 1012.84 338.5 1010.25 C338.22 1008.04 338.22 1008.04 337 1007 C336.68 1004.16 336.49 1001.32 336.28 998.47 C336.27 996.06 336.27 996.06 335 995 C334.72 992.75 334.55 990.49 334.38 988.23 C334.11 985.72 334.11 985.72 332 983 C331.62 980.77 331.62 980.77 331.44 978.38 C331.41 975.39 331.41 975.39 330 973 C329.72 970.49 329.55 967.97 329.38 965.45 C329.14 962.75 329.14 962.75 327 960 C326.8 957.74 326.8 957.74 326.88 955.31 C326.89 954.5 326.91 953.7 326.93 952.86 C326.96 951.94 326.96 951.94 327 951 C326.34 951 325.68 951 325 951 C324.67 946.71 324.34 942.42 324 938 C323.34 938 322.68 938 322 938 C321.94 937.36 321.88 936.72 321.82 936.07 C321.69 934.83 321.69 934.83 321.56 933.56 C321.48 932.74 321.4 931.92 321.32 931.07 C321.21 929.01 321.21 929.01 320 928 C319.42 924.91 318.97 921.8 318.5 918.69 C318.28 916.09 318.28 916.09 317 915 C316.79 913.36 316.63 911.71 316.5 910.06 C316.25 906.39 316.25 906.39 315 903 C314.73 900.67 314.55 898.34 314.38 896 C314.25 895.34 314.13 894.68 314 894 C313.34 893.67 312.68 893.34 312 893 C311.62 890.57 311.62 890.57 311.44 887.56 C311.27 883.63 311.27 883.63 310 880 C309.73 877.77 309.56 875.53 309.38 873.29 C308.97 870.85 308.11 869.19 307 867 C306.62 864.89 306.62 864.89 306.44 862.81 C306.43 859.22 306.43 859.22 305 858 C304.72 855.75 304.55 853.49 304.38 851.23 C304.11 848.72 304.11 848.72 302 846 C301.62 843.55 301.62 843.55 301.44 840.88 C301.46 837.63 301.46 837.63 300 835 C299.72 832.75 299.55 830.49 299.38 828.23 C299.11 825.72 299.11 825.72 297 823 C296.77 820.89 296.54 818.79 296.35 816.68 C295.63 811.15 294.41 805.09 292.09 800 C292 798 292 798 294.13 795.27 C295.12 794.29 296.12 793.33 297.12 792.38 C297.61 791.89 298.1 791.4 298.6 790.89 C301.52 788.05 304.1 786.21 308 785 C308 784.34 308 783.68 308 783 C309.66 781.99 311.33 780.99 313 780 C314.5 778.64 315.95 777.22 317.36 775.77 C318.14 774.97 318.93 774.16 319.74 773.34 C320.55 772.5 321.36 771.67 322.19 770.81 C323.8 769.15 325.42 767.49 327.04 765.83 C327.75 765.1 328.47 764.36 329.2 763.6 C331 762 331 762 333 762 C333 761.34 333 760.68 333 760 C333.99 759.67 334.98 759.34 336 759 C337.03 758.03 338.03 757.03 339 756 C340.2 754.97 341.41 753.95 342.62 752.94 C345.89 750.12 348.73 747.12 351.56 743.88 C355.1 739.85 358.54 736.94 363 734 C364.01 733.01 365.01 732.01 366 731 C367.1 730.06 368.2 729.12 369.31 728.19 C374.13 724.02 378.56 719.47 382.99 714.89 C386.14 711.67 389.04 709.22 393 707 C394.03 706.03 395.03 705.03 396 704 C397.24 702.93 398.5 701.87 399.75 700.81 C402.6 698.35 405.13 695.81 407.56 692.94 C411.42 688.39 415.78 684.76 420.44 681.06 C427.75 675.17 434.36 668.72 440.9 661.98 C441.53 661.34 442.16 660.7 442.8 660.04 C443.37 659.45 443.94 658.87 444.52 658.27 C446 657 446 657 448 657 C448 656.34 448 655.68 448 655 C449 654.51 449.99 654.02 451.02 653.51 C455.8 650.78 459.13 646.9 462.75 642.81 C464.05 641.36 465.36 639.9 466.67 638.46 C467.24 637.82 467.81 637.18 468.39 636.52 C470 635 470 635 473 634 C473 633.34 473 632.68 473 632 C473.6 631.73 474.2 631.46 474.81 631.19 C477.02 629.99 478.26 628.78 480 627 C481.08 626.08 482.16 625.16 483.25 624.25 C488.32 619.87 492.97 615.06 497.63 610.24 C500.89 606.92 503.85 604.21 508 602 C509.02 601.02 510.02 600.02 511 599 C512.11 598.16 512.11 598.16 513.25 597.31 C515.58 595.35 517.36 593.49 519.31 591.19 C524.17 585.52 529.74 580.97 535.63 576.41 C541.21 571.96 546.16 567 551.12 561.88 C556.78 556.05 562.32 550.64 569 546 C572.97 543.1 575.98 539.82 579.16 536.11 C580.99 534.01 582.87 531.99 584.81 530 C585.38 529.42 585.94 528.85 586.52 528.25 C588 527 588 527 590 527 C590 526.01 590 525.02 590 524 C590.66 524 591.32 524 592 524 C592.14 523.2 592.29 522.39 592.44 521.56 C593 519 593 519 594 518 C594.09 516.37 594.11 514.73 594.1 513.09 C594.09 512.1 594.09 511.11 594.09 510.09 C594.08 509.05 594.07 508.01 594.06 506.94 C594.06 505.37 594.06 505.37 594.05 503.77 C594.04 501.18 594.02 498.59 594 496 C593.34 495.67 592.68 495.34 592 495 C592 493.35 592 491.7 592 490 C591.34 490 590.68 490 590 490 C589.75 489.26 589.5 488.51 589.25 487.75 C587.89 484.75 586.5 483.12 584 481 C583.01 480.67 582.02 480.34 581 480 C581 479.34 581 478.68 581 478 C570.72 474.73 560.44 473.83 549.72 473.39 C542.71 473.09 535.82 472.36 528.87 471.47 C524.33 470.92 519.79 470.55 515.22 470.25 C513 470 513 470 511 469 C509.35 468.86 507.69 468.77 506.03 468.72 C505.05 468.68 504.06 468.64 503.05 468.61 C500.97 468.54 498.89 468.46 496.81 468.39 C495.83 468.36 494.85 468.32 493.84 468.28 C492.94 468.25 492.03 468.22 491.1 468.19 C489 468 489 468 488 467 C481.57 465.84 475.11 465.66 468.59 465.39 C467.77 465.36 466.95 465.32 466.11 465.28 C465.36 465.25 464.62 465.22 463.86 465.19 C462 465 462 465 460 464 C458.13 463.86 456.25 463.77 454.37 463.72 C453.25 463.68 452.14 463.64 450.99 463.61 C448.62 463.54 446.25 463.46 443.88 463.39 C442.76 463.36 441.65 463.32 440.5 463.28 C439.47 463.25 438.44 463.22 437.38 463.19 C435 463 435 463 434 462 C432.17 461.78 430.34 461.63 428.5 461.5 C427.39 461.42 426.27 461.33 425.12 461.25 C423.95 461.17 422.77 461.08 421.56 461 C419.25 460.84 416.94 460.67 414.63 460.5 C413.6 460.43 412.57 460.36 411.51 460.28 C409 460 409 460 407 459 C405.04 458.85 403.08 458.75 401.12 458.68 C399.95 458.64 398.78 458.6 397.58 458.56 C395.75 458.5 395.75 458.5 393.88 458.44 C392.64 458.39 391.41 458.35 390.14 458.31 C387.1 458.2 384.05 458.1 381 458 C381 457.34 381 456.68 381 456 C379.98 456.01 378.97 456.02 377.92 456.04 C360.98 456.17 360.98 456.17 353 455 C352.67 454.67 352.34 454.34 352 454 C350.17 453.85 348.34 453.77 346.5 453.72 C345.39 453.68 344.27 453.64 343.12 453.61 C341.36 453.55 341.36 453.55 339.56 453.5 C337.25 453.43 334.94 453.36 332.63 453.28 C331.6 453.25 330.57 453.22 329.51 453.19 C327 453 327 453 325 452 C323.14 451.79 321.27 451.63 319.41 451.5 C318.29 451.42 317.18 451.33 316.04 451.25 C314.87 451.17 313.7 451.08 312.5 451 C310.2 450.84 307.9 450.67 305.59 450.5 C304.57 450.43 303.55 450.36 302.49 450.28 C300 450 300 450 298 449 C296.28 448.86 294.56 448.77 292.84 448.72 C291.82 448.68 290.8 448.64 289.75 448.61 C288.14 448.55 288.14 448.55 286.5 448.5 C284.39 448.43 282.27 448.36 280.16 448.28 C279.22 448.25 278.28 448.22 277.31 448.19 C275 448 275 448 273 447 C271.02 446.79 269.03 446.63 267.04 446.5 C265.85 446.42 264.65 446.33 263.42 446.25 C262.17 446.17 260.92 446.08 259.62 446 C257.16 445.84 254.69 445.67 252.23 445.5 C251.13 445.43 250.03 445.36 248.9 445.28 C246.47 445.05 244.36 444.59 242 444 C240.33 443.88 238.65 443.8 236.97 443.75 C236.02 443.72 235.06 443.69 234.07 443.65 C232.07 443.59 230.07 443.54 228.06 443.48 C227.11 443.45 226.15 443.41 225.16 443.38 C224.29 443.35 223.42 443.33 222.52 443.3 C220 443 220 443 217.5 442 C214.8 440.92 212.79 440.72 209.9 440.66 C208.94 440.63 207.98 440.6 206.99 440.57 C205.98 440.55 204.97 440.52 203.94 440.5 C195.79 440.24 187.98 439.77 180 438 C179.88 437.36 179.75 436.72 179.62 436.06 C179.42 435.38 179.21 434.7 179 434 C178.34 433.67 177.68 433.34 177 433 C176.8 431.39 176.59 429.79 176.42 428.18 C175.74 424.64 174.26 421.44 172.84 418.14 C172 416 172 416 172 414 C171.34 414 170.68 414 170 414 C169.67 412.02 169.34 410.04 169 408 C168.34 408 167.68 408 167 408 C167 406.02 167 404.04 167 402 C166.34 402 165.68 402 165 402 C164.81 401.23 164.61 400.46 164.41 399.66 C164.15 398.66 163.89 397.66 163.62 396.62 C163.37 395.63 163.11 394.63 162.85 393.6 C162.18 390.87 162.18 390.87 160 389 C159.14 386.43 158.47 383.83 157.78 381.21 C157.23 378.82 157.23 378.82 155 378 C154.29 375.68 153.63 373.34 153 371 C151.01 365.71 148.69 360.53 146.38 355.38 C145 352 145 352 144.44 349.12 C144.29 348.42 144.15 347.72 144 347 C143.34 346.67 142.68 346.34 142 346 C142 344.35 142 342.7 142 341 C141.34 341 140.68 341 140 341 C139.57 339.42 139.57 339.42 139.12 337.81 C137.82 332.52 137.82 332.52 135 328 C134.96 326.33 134.96 324.67 135 323 C134.01 323 133.02 323 132 323 C131.78 321.42 131.78 321.42 131.56 319.81 C131.12 316.85 130.62 313.93 130 311 C129.01 310.67 128.02 310.34 127 310 C127 308.02 127 306.04 127 304 C126.34 304 125.68 304 125 304 C124.67 302.02 124.34 300.04 124 298 C123.34 298 122.68 298 122 298 C122 296.02 122 294.04 122 292 C121.34 292 120.68 292 120 292 C119.81 290.55 119.81 290.55 119.62 289.06 C119.32 287.55 119.32 287.55 119 286 C118.34 285.67 117.68 285.34 117 285 C116.11 282.18 115.46 279.34 114.78 276.47 C114.52 275.65 114.27 274.84 114 274 C113.34 273.67 112.68 273.34 112 273 C111.22 270.45 111.22 270.45 110.5 267.25 C109.61 263.34 108.72 259.63 107 256 C106.34 255.67 105.68 255.34 105 255 C104 252.49 104 252.49 103 249.31 C102.67 248.28 102.34 247.24 102 246.18 C101.32 244.01 100.65 241.84 100 239.67 C99.29 236.86 99.29 236.86 97 236 C96.29 233.78 96.29 233.78 95.62 230.94 C94.51 226.59 93.1 222.92 90.98 218.98 C89.04 215.07 87 210.42 87 206 C86.34 206 85.68 206 85 206 C85 204.35 85 202.7 85 201 C84.01 200.67 83.02 200.34 82 200 C81.12 197.53 81.12 197.53 80.44 194.5 C80.02 192.65 79.55 190.81 79 189 C78.34 188.67 77.68 188.34 77 188 C76.52 186.42 76.05 184.83 75.63 183.23 C74.89 180.6 73.95 178.06 73 175.5 C71.47 171.37 70.14 167.26 69 163 C68.34 163 67.68 163 67 163 C67 161.35 67 159.7 67 158 C66.34 158 65.68 158 65 158 C64.88 156.95 64.75 155.9 64.62 154.81 C64.09 151.52 63.48 148.97 62 146 C61.34 145.67 60.68 145.34 60 145 C59.29 142.68 58.63 140.34 58 138 C57.35 136.33 56.68 134.66 56 133 C55.67 131.93 55.34 130.85 55 129.75 C54.31 126.87 54.31 126.87 52 126 C51.22 123.64 51.22 123.64 50.5 120.69 C49.51 116.65 49.51 116.65 47.91 112.83 C47 111 47 111 47 108 C46.34 108 45.68 108 45 108 C44.01 104.04 43.02 100.08 42 96 C41.34 96 40.68 96 40 96 C39.88 95.2 39.75 94.39 39.62 93.56 C39.42 92.72 39.21 91.87 39 91 C38.01 90.5 38.01 90.5 37 90 C36.29 87.68 35.63 85.34 35 83 C34.36 81.32 33.69 79.66 33 78 C32.32 76.17 32.32 76.17 31.62 74.31 C31.37 73.63 31.11 72.95 30.84 72.25 C30.25 70.66 29.67 69.07 29.09 67.47 C25.58 58.06 20.69 52.95 12 48 C8.04 47.01 4.08 46.02 0 45 C0 30.15 0 15.3 0 0 Z " fill="#FACF04" transform="translate(0,0)"/>
<path d="M0 0 C0.66 0.33 1.32 0.66 2 1 C1.51 1.44 1.01 1.87 0.5 2.32 C-3.57 6.05 -3.57 6.05 -5.94 10.94 C-5.96 11.95 -5.98 12.96 -6 14 C-6.06 15.3 -6.12 16.6 -6.19 17.94 C-6.28 21.86 -5.1 25.26 -4 29 C-3.43 31.54 -2.89 34.08 -2.38 36.62 C-2.11 37.9 -1.85 39.17 -1.59 40.48 C-1.1 43.42 -0.87 46.03 -1 49 C-1.66 48.67 -2.32 48.34 -3 48 C-3.34 46.04 -3.34 46.04 -3.5 43.62 C-3.73 40.1 -3.95 39.07 -6 36 C-6.23 33.89 -6.46 31.79 -6.65 29.68 C-7.37 24.16 -8.57 18.06 -10.93 13 C-11 11 -11 11 -8.69 8.2 C-7.66 7.21 -6.62 6.22 -5.56 5.25 C-5.03 4.74 -4.5 4.24 -3.96 3.71 C-2.65 2.47 -1.33 1.23 0 0 Z " fill="#F7CB05" transform="translate(303,787)"/>
<path d="M0 0 C5.74 4.36 6.78 11.73 7.81 18.5 C8.39 24.96 7.09 31.31 4 37 C3.34 37 2.68 37 2 37 C2.88 33.12 2.88 33.12 4 32 C4.09 30.37 4.11 28.73 4.1 27.09 C4.09 26.1 4.09 25.11 4.09 24.09 C4.08 23.05 4.07 22.01 4.06 20.94 C4.06 19.89 4.05 18.85 4.05 17.77 C4.04 15.18 4.02 12.59 4 10 C3.34 9.67 2.68 9.34 2 9 C2 7.35 2 5.7 2 4 C1.34 4 0.68 4 0 4 C0 2.68 0 1.36 0 0 Z " fill="#F5CA0F" transform="translate(590,486)"/>
<path d="M0 0 C8.84 -0.09 17.67 -0.14 26.5 0.38 C27.71 0.44 28.91 0.51 30.16 0.59 C33 1 33 1 35 3 C23.15 3.25 11.74 2.66 0 1 C0 0.67 0 0.34 0 0 Z " fill="#EDC728" transform="translate(525,470)"/>
<path d="M0 0 C0 0.33 0 0.66 0 1 C-9.4 1.11 -18.64 0.99 -28 0 C-28 -0.33 -28 -0.66 -28 -1 C-6.89 -2.83 -6.89 -2.83 0 0 Z " fill="#F0C91F" transform="translate(381,455)"/>
<path d="M0 0 C0.66 0.33 1.32 0.66 2 1 C1.52 1.41 1.04 1.83 0.54 2.25 C-4.29 6.66 -5.81 9.61 -7 16 C-7.66 16.66 -8.32 17.32 -9 18 C-10.24 15.96 -11.04 14.6 -10.88 12.19 C-9.59 8.98 -7.42 7.13 -4.94 4.75 C-4.02 3.86 -3.1 2.97 -2.15 2.05 C-1.44 1.37 -0.73 0.7 0 0 Z " fill="#EEC825" transform="translate(303,787)"/>
<path d="M0 0 C1.68 2.52 2.9 4.81 4.12 7.56 C4.48 8.35 4.83 9.13 5.2 9.94 C6 12 6 12 6 14 C3.53 12.85 1.95 11.95 0 10 C-0.2 7.62 -0.2 7.62 -0.12 4.88 C-0.11 3.96 -0.09 3.05 -0.07 2.12 C-0.05 1.42 -0.02 0.72 0 0 Z " fill="#F8CC05" transform="translate(95,114)"/>
<path d="M0 0 C3.43 3.76 4.56 8.23 6 13 C1.12 10.25 1.12 10.25 0 8 C-0.13 5.33 -0.04 2.68 0 0 Z " fill="#F8CC05" transform="translate(197,365)"/>
<path d="M0 0 C0.99 0.66 1.98 1.32 3 2 C-2.28 2 -7.56 2 -13 2 C-8.36 -1.1 -5.42 -1.23 0 0 Z " fill="#EDC727" transform="translate(431,459)"/>
<path d="M0 0 C3.44 0.75 3.44 0.75 5.44 2.75 C-3.13 4.18 -3.13 4.18 -6.56 1.75 C-3.56 -0.25 -3.56 -0.25 0 0 Z " fill="#F8CC05" transform="translate(349.5625,1275.25)"/>
<path d="M0 0 C0.33 0 0.66 0 1 0 C3.62 6.88 3.18 13.72 3 21 C2.67 21 2.34 21 2 21 C1.91 19.93 1.91 19.93 1.82 18.85 C1.73 17.93 1.65 17.01 1.56 16.06 C1.48 15.15 1.4 14.23 1.32 13.29 C1.24 11.04 1.24 11.04 0 10 C-0.07 8.31 -0.08 6.62 -0.06 4.94 C-0.05 4.02 -0.04 3.1 -0.04 2.15 C-0.02 1.44 -0.01 0.73 0 0 Z " fill="#F4C90C" transform="translate(355,1077)"/>
<path d="M0 0 C2.85 3.21 3.43 5.5 3.69 9.75 C3.75 10.73 3.82 11.72 3.89 12.73 C3.92 13.48 3.96 14.23 4 15 C2 13.69 2 13.69 0 11 C-0.36 7.31 -0.23 3.69 0 0 Z " fill="#F8CC05" transform="translate(395,1069)"/>
<path d="M0 0 C0.33 0 0.66 0 1 0 C3.08 6.76 3.21 12.96 3 20 C2.67 20 2.34 20 2 20 C1.94 19.37 1.88 18.75 1.82 18.1 C1.69 16.88 1.69 16.88 1.56 15.62 C1.48 14.81 1.4 14 1.32 13.16 C1.11 10.96 1.11 10.96 0 9 C-0.07 7.46 -0.08 5.92 -0.06 4.38 C-0.05 3.56 -0.04 2.74 -0.04 1.9 C-0.02 1.27 -0.01 0.65 0 0 Z " fill="#F3C910" transform="translate(295,803)"/>
<path d="M0 0 C3.88 4.75 3.88 4.75 5 7 C6.64 7.72 8.31 8.39 10 9 C10 9.33 10 9.66 10 10 C7.69 10 5.38 10 3 10 C2.88 9.36 2.75 8.72 2.62 8.06 C2.32 7.04 2.32 7.04 2 6 C1.34 5.67 0.68 5.34 0 5 C0 3.35 0 1.7 0 0 Z " fill="#F0C718" transform="translate(177,428)"/>
</svg>
