<?xml version="1.0" encoding="UTF-8"?>
<!-- Generator: visioncortex VTracer 0.6.3 -->
<svg version="1.1" xmlns="http://www.w3.org/2000/svg" width="640" height="1280">
<path d="M0 0 C1.17 0.01 2.34 0.03 3.54 0.04 C4.43 0.06 5.32 0.07 6.23 0.09 C6.52 171.8 6.52 171.8 6.65 307.01 C6.66 308.54 6.66 310.07 6.66 311.6 C6.69 343.68 6.71 375.76 6.74 407.84 C6.75 423.96 6.76 440.08 6.78 456.19 C6.78 458.62 6.78 461.05 6.78 463.49 C6.81 500.93 6.85 538.37 6.92 575.81 C6.92 576.62 6.92 577.42 6.92 578.25 C6.94 591.24 6.97 604.22 6.99 617.2 C7.06 654.59 7.12 691.98 7.14 729.37 C7.14 730.52 7.14 730.52 7.14 731.7 C7.16 748.57 7.16 765.44 7.17 782.31 C7.17 789.1 7.18 795.89 7.18 802.68 C7.18 803.42 7.18 804.16 7.18 804.93 C7.19 828.88 7.23 852.83 7.29 876.78 C7.35 900.9 7.38 925.02 7.37 949.14 C7.36 964.12 7.38 979.09 7.44 994.06 C7.48 1003.6 7.48 1013.15 7.45 1022.69 C7.43 1028.13 7.43 1033.58 7.48 1039.02 C7.52 1043.97 7.51 1048.92 7.47 1053.86 C7.46 1055.65 7.47 1057.43 7.5 1059.22 C7.7 1072.53 7.7 1072.53 4.06 1076.39 C1.5 1077.94 -0.99 1079 -3.77 1080.09 C-4.47 1080.63 -5.18 1081.17 -5.91 1081.72 C-7.77 1083.09 -7.77 1083.09 -10.77 1083.09 C-10.77 1083.75 -10.77 1084.41 -10.77 1085.09 C-12.77 1086.48 -14.74 1087.73 -16.83 1088.96 C-17.43 1089.33 -18.03 1089.69 -18.65 1090.06 C-21.58 1091.82 -24.53 1093.54 -27.52 1095.21 C-31.02 1097.23 -34.34 1099.44 -37.69 1101.7 C-44.24 1106.09 -44.24 1106.09 -47.77 1106.09 C-47.77 1106.75 -47.77 1107.41 -47.77 1108.09 C-50.68 1110.13 -52.17 1111.09 -55.77 1111.09 C-55.77 1111.75 -55.77 1112.41 -55.77 1113.09 C-58.68 1115.13 -60.17 1116.09 -63.77 1116.09 C-63.77 1116.75 -63.77 1117.41 -63.77 1118.09 C-64.51 1118.48 -65.24 1118.86 -66 1119.26 C-70.95 1121.9 -75.45 1124.49 -79.77 1128.09 C-81.45 1129.06 -83.12 1130.02 -84.82 1130.96 C-87.04 1132.24 -89.15 1133.65 -91.27 1135.09 C-94.43 1137.23 -97.62 1139.18 -100.96 1141.03 C-103.92 1142.76 -106.73 1144.72 -109.57 1146.64 C-111.5 1147.91 -113.44 1149.09 -115.46 1150.21 C-118.82 1152.05 -118.82 1152.05 -122.02 1154.34 C-124.77 1156.09 -124.77 1156.09 -127.77 1156.09 C-127.77 1156.75 -127.77 1157.41 -127.77 1158.09 C-130.68 1160.13 -132.17 1161.09 -135.77 1161.09 C-135.77 1161.75 -135.77 1162.41 -135.77 1163.09 C-138.68 1165.13 -140.17 1166.09 -143.77 1166.09 C-143.77 1166.75 -143.77 1167.41 -143.77 1168.09 C-144.8 1168.64 -144.8 1168.64 -145.86 1169.19 C-152.97 1173 -159.61 1177.19 -166.22 1181.8 C-167.02 1182.35 -167.82 1182.9 -168.64 1183.46 C-169.36 1183.97 -170.08 1184.47 -170.82 1184.99 C-172.77 1186.09 -172.77 1186.09 -175.77 1186.09 C-175.77 1186.75 -175.77 1187.41 -175.77 1188.09 C-176.74 1188.63 -177.71 1189.16 -178.71 1189.71 C-181.65 1191.39 -184.46 1193.19 -187.27 1195.09 C-189.89 1196.86 -192.5 1198.55 -195.27 1200.09 C-198.88 1202.1 -202.27 1204.39 -205.69 1206.7 C-212.24 1211.09 -212.24 1211.09 -215.77 1211.09 C-215.77 1211.75 -215.77 1212.41 -215.77 1213.09 C-218.68 1215.13 -220.17 1216.09 -223.77 1216.09 C-223.77 1216.75 -223.77 1217.41 -223.77 1218.09 C-224.8 1218.64 -224.8 1218.64 -225.86 1219.19 C-231.13 1222.01 -236.19 1224.95 -241.12 1228.32 C-244.62 1230.66 -248.2 1232.87 -251.77 1235.09 C-256.13 1237.8 -260.46 1240.52 -264.71 1243.4 C-267.47 1245.28 -270.27 1246.94 -273.21 1248.53 C-276.64 1250.38 -279.79 1252.45 -282.96 1254.71 C-291.89 1261.09 -291.89 1261.09 -295.77 1261.09 C-295.77 1261.75 -295.77 1262.41 -295.77 1263.09 C-301.47 1266.23 -307.16 1269.36 -313.01 1272.22 C-314.61 1273.01 -316.19 1273.86 -317.77 1274.71 C-334.01 1282.16 -353.52 1279.73 -369.66 1273.76 C-373.84 1272.13 -377.79 1270.15 -381.77 1268.09 C-381.77 1267.43 -381.77 1266.77 -381.77 1266.09 C-382.95 1265.63 -382.95 1265.63 -384.14 1265.15 C-386.77 1264.09 -386.77 1264.09 -388.77 1263.09 C-388.77 1262.43 -388.77 1261.77 -388.77 1261.09 C-389.76 1260.76 -390.75 1260.43 -391.77 1260.09 C-391.77 1259.43 -391.77 1258.77 -391.77 1258.09 C-392.73 1257.69 -392.73 1257.69 -393.71 1257.28 C-395.77 1256.09 -395.77 1256.09 -396.77 1253.09 C-397.43 1253.09 -398.09 1253.09 -398.77 1253.09 C-405.94 1243.87 -411.71 1233.39 -414.77 1222.09 C-415.02 1221.17 -415.02 1221.17 -415.28 1220.24 C-416.92 1213.76 -417.12 1207.5 -417.08 1200.84 C-417.08 1199.73 -417.08 1198.62 -417.07 1197.48 C-416.97 1189.55 -416.12 1182.68 -413.77 1175.09 C-413.24 1173.05 -412.72 1171.01 -412.21 1168.96 C-411.96 1167.98 -411.71 1167 -411.45 1165.99 C-410.58 1162.3 -409.94 1158.6 -409.3 1154.87 C-408.54 1150.89 -407.5 1146.99 -406.49 1143.06 C-405.81 1140.24 -405.26 1137.44 -404.77 1134.59 C-403.92 1129.65 -402.74 1124.85 -401.49 1120 C-400.18 1114.73 -399.18 1109.41 -398.24 1104.06 C-398.06 1103.06 -397.89 1102.06 -397.71 1101.03 C-397.55 1100.11 -397.4 1099.19 -397.23 1098.24 C-396.77 1096.09 -396.77 1096.09 -395.77 1095.09 C-395.4 1093.28 -395.07 1091.47 -394.77 1089.65 C-393.88 1084.31 -393.88 1084.31 -392.77 1082.09 C-392.46 1079.76 -392.26 1077.43 -392.05 1075.09 C-391.77 1073.09 -391.77 1073.09 -390.77 1072.09 C-390.4 1070.28 -390.07 1068.47 -389.77 1066.65 C-388.88 1061.31 -388.88 1061.31 -387.77 1059.09 C-387.46 1056.76 -387.26 1054.43 -387.05 1052.09 C-386.77 1050.09 -386.77 1050.09 -385.77 1049.09 C-385.44 1047.49 -385.16 1045.89 -384.89 1044.28 C-384.18 1040.16 -383.32 1036.14 -382.27 1032.09 C-381.28 1028.27 -380.44 1024.48 -379.77 1020.59 C-378.92 1015.67 -377.73 1010.89 -376.49 1006.06 C-375.81 1003.24 -375.26 1000.44 -374.77 997.59 C-373.94 992.76 -372.8 988.05 -371.55 983.3 C-370.71 979.83 -370.01 976.33 -369.32 972.82 C-368.17 967.11 -366.89 961.43 -365.62 955.74 C-364.34 949.91 -363.2 944.08 -362.22 938.19 C-361.77 936.09 -361.77 936.09 -360.77 935.09 C-360.44 933.49 -360.16 931.89 -359.89 930.28 C-359.18 926.16 -358.32 922.14 -357.27 918.09 C-356.28 914.27 -355.44 910.48 -354.77 906.59 C-353.92 901.67 -352.73 896.89 -351.49 892.06 C-350.81 889.24 -350.26 886.44 -349.77 883.59 C-348.92 878.67 -347.73 873.89 -346.49 869.06 C-345.81 866.24 -345.26 863.44 -344.77 860.59 C-343.92 855.67 -342.73 850.89 -341.49 846.06 C-340.59 842.36 -339.95 838.64 -339.3 834.89 C-338.53 830.82 -337.47 826.84 -336.43 822.84 C-335.65 819.59 -335.15 816.41 -334.77 813.09 C-335.43 813.09 -336.09 813.09 -336.77 813.09 C-336.77 812.43 -336.77 811.77 -336.77 811.09 C-337.76 810.76 -338.75 810.43 -339.77 810.09 C-339.77 809.43 -339.77 808.77 -339.77 808.09 C-340.31 807.86 -340.86 807.64 -341.42 807.41 C-344.51 805.68 -346.81 803.44 -349.39 801.03 C-352.81 797.67 -352.81 797.67 -356.77 795.09 C-356.77 794.43 -356.77 793.77 -356.77 793.09 C-357.41 792.82 -358.05 792.55 -358.71 792.28 C-360.77 791.09 -360.77 791.09 -361.77 788.09 C-363.09 787.4 -364.43 786.74 -365.77 786.09 C-368.73 783.76 -371.42 781.44 -374.08 778.78 C-376.95 775.91 -379.9 773.15 -382.89 770.4 C-383.68 769.67 -383.68 769.67 -384.48 768.93 C-386.83 766.77 -389.11 764.86 -391.77 763.09 C-391.77 762.43 -391.77 761.77 -391.77 761.09 C-392.76 760.76 -393.75 760.43 -394.77 760.09 C-394.77 759.43 -394.77 758.77 -394.77 758.09 C-395.43 758.09 -396.09 758.09 -396.77 758.09 C-396.77 757.43 -396.77 756.77 -396.77 756.09 C-397.35 755.82 -397.92 755.55 -398.52 755.28 C-400.83 754.06 -402.79 752.79 -404.77 751.09 C-404.77 750.43 -404.77 749.77 -404.77 749.09 C-405.34 748.83 -405.91 748.57 -406.5 748.31 C-408.98 746.98 -410.9 745.44 -413.02 743.59 C-413.73 742.98 -414.43 742.37 -415.16 741.75 C-416.77 740.09 -416.77 740.09 -416.77 738.09 C-417.35 737.83 -417.94 737.58 -418.54 737.31 C-420.96 735.98 -422.5 734.52 -424.39 732.53 C-426.81 729.95 -426.81 729.95 -429.77 728.09 C-429.77 727.43 -429.77 726.77 -429.77 726.09 C-430.32 725.86 -430.87 725.63 -431.44 725.39 C-434.4 723.74 -436.6 721.65 -439.08 719.34 C-442.32 716.34 -445.55 713.4 -448.96 710.59 C-449.89 709.76 -450.81 708.94 -451.77 708.09 C-451.77 707.43 -451.77 706.77 -451.77 706.09 C-452.36 705.82 -452.95 705.55 -453.56 705.28 C-455.79 704.08 -457.33 702.83 -459.15 701.09 C-459.76 700.51 -460.37 699.93 -461 699.34 C-461.94 698.44 -461.94 698.44 -462.89 697.53 C-464.15 696.34 -465.4 695.15 -466.65 693.96 C-467.2 693.43 -467.75 692.91 -468.32 692.36 C-469.76 690.99 -469.76 690.99 -471.77 690.09 C-471.77 689.43 -471.77 688.77 -471.77 688.09 C-472.41 687.82 -473.05 687.55 -473.71 687.28 C-475.77 686.09 -475.77 686.09 -476.77 683.09 C-478.62 682.04 -478.62 682.04 -480.77 681.09 C-483.02 679.59 -483.02 679.59 -484.77 678.09 C-484.77 677.43 -484.77 676.77 -484.77 676.09 C-485.43 676.09 -486.09 676.09 -486.77 676.09 C-486.77 675.43 -486.77 674.77 -486.77 674.09 C-487.29 673.88 -487.82 673.68 -488.36 673.46 C-491.81 671.49 -494.47 668.82 -497.33 666.09 C-498.48 665 -499.62 663.92 -500.77 662.84 C-501.28 662.36 -501.78 661.88 -502.3 661.39 C-503.95 659.87 -503.95 659.87 -506.77 658.09 C-506.77 657.43 -506.77 656.77 -506.77 656.09 C-507.76 655.76 -508.75 655.43 -509.77 655.09 C-509.77 654.43 -509.77 653.77 -509.77 653.09 C-510.3 652.88 -510.82 652.67 -511.37 652.46 C-514.77 650.52 -517.38 647.91 -520.21 645.21 C-521.33 644.15 -522.45 643.09 -523.58 642.04 C-524.11 641.53 -524.65 641.03 -525.2 640.5 C-526.64 639.21 -528.15 638.02 -529.68 636.83 C-530.37 636.26 -531.06 635.68 -531.77 635.09 C-531.77 634.43 -531.77 633.77 -531.77 633.09 C-532.31 632.86 -532.84 632.64 -533.39 632.4 C-537.62 630.07 -541.62 626.77 -544.77 623.09 C-544.77 622.43 -544.77 621.77 -544.77 621.09 C-545.32 620.86 -545.87 620.63 -546.44 620.39 C-549.4 618.74 -551.6 616.65 -554.08 614.34 C-557.32 611.34 -560.55 608.4 -563.96 605.59 C-564.89 604.76 -565.81 603.94 -566.77 603.09 C-566.77 602.43 -566.77 601.77 -566.77 601.09 C-567.76 600.76 -568.75 600.43 -569.77 600.09 C-569.77 599.43 -569.77 598.77 -569.77 598.09 C-570.6 597.72 -570.6 597.72 -571.45 597.34 C-574.18 595.87 -576.43 594.1 -578.83 592.15 C-579.69 591.46 -580.55 590.77 -581.43 590.06 C-585.24 586.85 -585.24 586.85 -586.77 585.09 C-586.77 584.43 -586.77 583.77 -586.77 583.09 C-587.36 582.83 -587.95 582.57 -588.56 582.3 C-590.89 581.03 -592.33 579.7 -594.14 577.78 C-597.91 573.9 -601.87 570.53 -606.18 567.27 C-608.85 565.02 -610.92 562.7 -613.08 559.96 C-613.78 559.1 -614.48 558.23 -615.2 557.33 C-616.77 555.09 -616.77 555.09 -616.77 553.09 C-617.43 553.09 -618.09 553.09 -618.77 553.09 C-624.04 546.25 -626.86 538.12 -629.77 530.09 C-630.13 529.24 -630.5 528.4 -630.88 527.53 C-631.83 524.91 -632.14 522.67 -632.33 519.9 C-632.55 516.36 -632.55 516.36 -633.77 513.09 C-633.87 511.11 -633.9 509.13 -633.89 507.15 C-633.9 506.09 -633.9 505.03 -633.9 503.94 C-633.77 501.09 -633.77 501.09 -632.77 498.09 C-632.7 496.53 -632.68 494.96 -632.71 493.4 C-632.72 492.59 -632.73 491.79 -632.73 490.95 C-632.75 490.34 -632.76 489.72 -632.77 489.09 C-632.11 488.76 -631.45 488.43 -630.77 488.09 C-630.3 485.96 -630.3 485.96 -630.14 483.53 C-630.03 482.29 -630.03 482.29 -629.92 481.02 C-629.87 480.39 -629.82 479.75 -629.77 479.09 C-629.11 479.09 -628.45 479.09 -627.77 479.09 C-626.19 474.76 -625.32 470.66 -624.77 466.09 C-624.11 466.42 -623.45 466.75 -622.77 467.09 C-622.44 465.44 -622.11 463.79 -621.77 462.09 C-621.11 462.09 -620.45 462.09 -619.77 462.09 C-619.77 461.43 -619.77 460.77 -619.77 460.09 C-618.78 460.09 -617.79 460.09 -616.77 460.09 C-616.11 457.78 -615.45 455.47 -614.77 453.09 C-614.11 453.09 -613.45 453.09 -612.77 453.09 C-612.51 452.5 -612.25 451.9 -611.99 451.29 C-610.67 448.91 -609.34 447.58 -607.27 445.84 C-606.66 445.32 -606.05 444.8 -605.43 444.26 C-603.77 443.09 -603.77 443.09 -601.77 443.09 C-601.77 442.43 -601.77 441.77 -601.77 441.09 C-596.02 439.09 -596.02 439.09 -593.77 439.09 C-593.77 438.43 -593.77 437.77 -593.77 437.09 C-587.14 434.65 -580.49 432.29 -573.77 430.09 C-572.78 429.76 -571.79 429.43 -570.77 429.09 C-567.16 428.83 -563.55 428.65 -559.93 428.48 C-556.67 428.32 -553.88 428.13 -550.77 427.09 C-549.28 426.97 -547.79 426.89 -546.3 426.84 C-545.43 426.81 -544.55 426.78 -543.65 426.75 C-542.72 426.72 -541.79 426.68 -540.83 426.65 C-534.05 426.38 -527.56 425.87 -520.89 424.56 C-515.87 423.8 -510.81 423.63 -505.73 423.43 C-501.62 423.36 -501.62 423.36 -497.77 422.09 C-496.24 421.96 -494.71 421.89 -493.18 421.84 C-492.26 421.81 -491.33 421.78 -490.38 421.75 C-489.4 421.72 -488.41 421.68 -487.39 421.65 C-480.41 421.39 -473.72 420.92 -466.86 419.56 C-461.84 418.79 -456.8 418.63 -451.73 418.43 C-447.62 418.36 -447.62 418.36 -443.77 417.09 C-442.33 416.96 -440.88 416.89 -439.44 416.84 C-438.56 416.81 -437.69 416.78 -436.79 416.75 C-435.85 416.72 -434.92 416.68 -433.96 416.65 C-426.89 416.37 -420.08 415.8 -413.11 414.56 C-408.02 413.84 -402.91 413.64 -397.77 413.43 C-394.55 413.29 -391.84 413.11 -388.77 412.09 C-385.81 411.91 -382.86 411.77 -379.89 411.65 C-373.21 411.36 -366.77 410.71 -360.18 409.56 C-355.09 408.86 -349.99 408.64 -344.86 408.43 C-340.81 408.29 -340.81 408.29 -336.83 407.6 C-334.53 407.03 -332.34 406.81 -329.97 406.62 C-328.55 406.51 -328.55 406.51 -327.1 406.39 C-326.08 406.31 -325.07 406.23 -324.02 406.15 C-322.97 406.07 -321.92 405.98 -320.83 405.89 C-317.48 405.62 -314.12 405.36 -310.77 405.09 C-306.37 404.74 -301.98 404.38 -297.58 404.03 C-296.57 403.95 -295.57 403.87 -294.53 403.79 C-293.11 403.67 -293.11 403.67 -291.66 403.55 C-290.84 403.49 -290.01 403.42 -289.16 403.36 C-286.65 403.08 -284.24 402.59 -281.77 402.09 C-280.2 401.91 -278.63 401.76 -277.06 401.62 C-275.7 401.51 -275.7 401.51 -274.32 401.39 C-273.35 401.31 -272.39 401.23 -271.39 401.15 C-270.39 401.07 -269.39 400.98 -268.36 400.89 C-265.16 400.62 -261.97 400.36 -258.77 400.09 C-254.58 399.74 -250.39 399.38 -246.21 399.03 C-245.25 398.95 -244.29 398.87 -243.31 398.79 C-239.79 398.49 -236.32 398.18 -232.84 397.59 C-226.95 396.63 -220.96 396.31 -215 395.84 C-214.01 395.76 -213.01 395.67 -211.98 395.59 C-211.08 395.52 -210.17 395.45 -209.24 395.37 C-207 395.12 -204.94 394.7 -202.77 394.09 C-202.49 393.09 -202.22 392.09 -201.94 391.05 C-200.83 387.19 -199.5 383.42 -198.08 379.65 C-197.82 378.97 -197.57 378.28 -197.3 377.57 C-195.13 371.88 -192.72 366.31 -190.24 360.75 C-188.19 356.14 -186.4 351.49 -184.73 346.73 C-182.93 341.77 -180.83 336.94 -178.77 332.09 C-176.19 325.98 -173.67 319.86 -171.33 313.65 C-169.63 309.16 -167.75 304.81 -165.71 300.46 C-163.44 295.66 -161.52 290.84 -159.76 285.83 C-157.96 280.84 -155.84 275.98 -153.77 271.09 C-152.93 269.09 -152.1 267.09 -151.27 265.09 C-150.03 262.1 -148.78 259.11 -147.52 256.12 C-145.35 250.98 -143.26 245.81 -141.27 240.59 C-138.44 233.19 -135.41 225.88 -132.26 218.61 C-129.57 212.4 -127.02 206.18 -124.76 199.8 C-122.94 194.82 -120.83 189.97 -118.77 185.09 C-117.93 183.09 -117.1 181.09 -116.27 179.09 C-114.6 175.09 -112.94 171.09 -111.27 167.09 C-110.86 166.1 -110.44 165.11 -110.02 164.09 C-109.19 162.1 -108.36 160.11 -107.52 158.12 C-104.95 152.02 -102.51 145.88 -100.18 139.68 C-97.27 132.27 -94.14 124.94 -91.02 117.62 C-90.55 116.53 -90.09 115.45 -89.62 114.33 C-88.67 112.12 -87.73 109.92 -86.79 107.71 C-84.22 101.68 -81.82 95.63 -79.62 89.45 C-78.61 86.65 -77.5 83.9 -76.33 81.15 C-75.7 79.65 -75.7 79.65 -75.05 78.12 C-74.42 76.62 -74.42 76.62 -73.77 75.09 C-72.93 73.09 -72.1 71.09 -71.27 69.09 C-70.01 66.07 -68.75 63.04 -67.48 60.02 C-67.06 59.01 -66.64 58 -66.21 56.96 C-65.79 55.98 -65.38 54.99 -64.95 53.97 C-64.2 52.13 -63.47 50.29 -62.78 48.43 C-60.78 43.1 -58.36 38.63 -55.04 34 C-53.6 32.01 -53.6 32.01 -52.77 29.09 C-51.15 27.38 -49.47 25.72 -47.77 24.09 C-46.66 22.99 -45.56 21.88 -44.46 20.78 C-43.57 19.89 -42.68 19 -41.77 18.09 C-42.1 17.43 -42.43 16.77 -42.77 16.09 C-42.03 15.82 -41.28 15.55 -40.52 15.28 C-37.9 14.15 -35.97 12.88 -33.77 11.09 C-33.11 11.42 -32.45 11.75 -31.77 12.09 C-31.77 11.1 -31.77 10.11 -31.77 9.09 C-30.12 8.76 -28.47 8.43 -26.77 8.09 C-26.77 7.43 -26.77 6.77 -26.77 6.09 C-25.45 5.76 -24.13 5.43 -22.77 5.09 C-22.77 4.76 -22.77 4.43 -22.77 4.09 C-21.61 3.99 -20.46 3.88 -19.27 3.78 C-16.25 3.42 -13.85 2.78 -11.08 1.53 C-7.33 -0.03 -4.04 -0.06 0 0 Z " fill="#BBBCBD" transform="translate(633.76953125,-0.08984375)"/>
<path d="M0 0 C0 14.85 0 29.7 0 45 C-3.96 45.99 -3.96 45.99 -8 47 C-9.65 47.45 -11.3 47.93 -12.94 48.44 C-13.69 48.66 -14.44 48.89 -15.21 49.12 C-15.8 49.41 -16.39 49.7 -17 50 C-17.33 50.99 -17.66 51.98 -18 53 C-20.44 55.69 -20.44 55.69 -23 58 C-23.66 58 -24.32 58 -25 58 C-25.27 59.13 -25.54 60.27 -25.81 61.44 C-26.2 62.61 -26.6 63.79 -27 65 C-28.49 65.5 -28.49 65.5 -30 66 C-29.94 66.68 -29.88 67.36 -29.81 68.06 C-30.06 71.92 -31.36 74.51 -33 78 C-33.66 78 -34.32 78 -35 78 C-34.96 78.68 -34.92 79.36 -34.88 80.06 C-35.03 83.63 -35.83 86.63 -37 90 C-37.66 90.33 -38.32 90.66 -39 91 C-39.84 93.28 -39.84 93.28 -40.5 95.94 C-41.78 100.78 -41.78 100.78 -44 103 C-44.52 104.52 -44.97 106.07 -45.38 107.62 C-46.55 111.74 -48.03 115.35 -50.02 119.12 C-52.35 123.58 -54.24 127.99 -55 133 C-55.66 133 -56.32 133 -57 133 C-56.94 134.18 -56.94 134.18 -56.88 135.38 C-57 138 -57 138 -59 140 C-59.56 141.65 -60.05 143.32 -60.5 145 C-61.78 149.78 -61.78 149.78 -64 152 C-64.4 153.99 -64.74 155.99 -65 158 C-65.66 158 -66.32 158 -67 158 C-67.15 159.02 -67.15 159.02 -67.31 160.06 C-68.14 163.59 -69.54 166.68 -71 170 C-71.33 171.01 -71.66 172.02 -72 173.06 C-73.07 176.21 -74.51 179.03 -76 182 C-76.33 182.99 -76.66 183.98 -77 185 C-78 188 -78 188 -79.56 191 C-81.03 194.06 -81.46 196.68 -82 200 C-82.66 200.33 -83.32 200.66 -84 201 C-85.81 204.85 -86.88 208.91 -88 213 C-88.66 213 -89.32 213 -90 213 C-89.88 213.99 -89.88 213.99 -89.75 215 C-90.04 218.53 -91.21 220.61 -92.85 223.69 C-95.89 229.81 -97.89 236.51 -100 243 C-100.66 243 -101.32 243 -102 243 C-101.94 244.18 -101.94 244.18 -101.88 245.38 C-102 248 -102 248 -104 250 C-104.56 251.65 -105.05 253.32 -105.5 255 C-106.78 259.78 -106.78 259.78 -109 262 C-109.4 263.99 -109.74 265.99 -110 268 C-110.66 268 -111.32 268 -112 268 C-112.1 268.68 -112.21 269.36 -112.31 270.06 C-113.14 273.59 -114.54 276.68 -116 280 C-116.33 281.01 -116.66 282.02 -117 283.06 C-118.07 286.21 -119.51 289.03 -121 292 C-121.33 292.99 -121.66 293.98 -122 295 C-123 298 -123 298 -124.56 301 C-126.03 304.06 -126.46 306.68 -127 310 C-127.66 310.33 -128.32 310.66 -129 311 C-129.85 313.82 -130.47 316.66 -131.12 319.53 C-131.56 320.75 -131.56 320.75 -132 322 C-132.99 322.33 -133.98 322.66 -135 323 C-134.94 323.68 -134.88 324.36 -134.81 325.06 C-135 328.05 -135.77 330.15 -137.01 332.84 C-138.26 335.56 -139.41 338.31 -140.56 341.06 C-140.98 342.04 -141.39 343.02 -141.82 344.04 C-143 346.99 -144.02 349.97 -145 353 C-145.66 353 -146.32 353 -147 353 C-146.92 353.66 -146.83 354.32 -146.75 355 C-147.05 358.58 -148.25 360.81 -149.91 363.95 C-152.3 368.46 -154.23 372.92 -155 378 C-155.66 378 -156.32 378 -157 378 C-157.12 378.68 -157.25 379.36 -157.38 380.06 C-158.09 383.43 -159.03 386.7 -160 390 C-160.66 390 -161.32 390 -162 390 C-161.94 391.18 -161.94 391.18 -161.88 392.38 C-162 395 -162 395 -164 397 C-164.56 398.65 -165.05 400.32 -165.5 402 C-166.78 406.78 -166.78 406.78 -169 409 C-169.82 411.83 -170.47 414.69 -171.12 417.57 C-171.56 418.77 -171.56 418.77 -172 420 C-172.99 420.33 -173.98 420.66 -175 421 C-174.94 421.68 -174.88 422.36 -174.81 423.06 C-175.06 426.92 -176.36 429.51 -178 433 C-178.66 433 -179.32 433 -180 433 C-180 434.65 -180 436.3 -180 438 C-188.74 439.9 -197.34 440.35 -206.26 440.57 C-211.69 440.73 -211.69 440.73 -216.94 442 C-221.74 443.57 -226.6 443.43 -231.62 443.56 C-233.68 443.62 -235.73 443.69 -237.79 443.75 C-239.15 443.79 -239.15 443.79 -240.53 443.83 C-242.83 443.99 -244.78 444.44 -247 445 C-248.66 445.12 -250.33 445.2 -251.99 445.25 C-252.94 445.28 -253.9 445.31 -254.88 445.35 C-256.87 445.41 -258.86 445.46 -260.85 445.52 C-266.5 445.7 -266.5 445.7 -271.96 447 C-276.8 448.59 -281.74 448.43 -286.81 448.56 C-288.9 448.62 -290.99 448.69 -293.08 448.75 C-294 448.78 -294.92 448.8 -295.87 448.83 C-297.98 448.77 -297.98 448.77 -299 450 C-300.73 450.13 -302.47 450.2 -304.21 450.25 C-305.27 450.28 -306.33 450.31 -307.42 450.35 C-309.67 450.41 -311.92 450.46 -314.17 450.52 C-315.23 450.55 -316.3 450.59 -317.39 450.62 C-318.37 450.65 -319.35 450.67 -320.36 450.7 C-322.97 450.84 -322.97 450.84 -324.99 452 C-327.66 453.33 -329.85 453.31 -332.82 453.38 C-333.93 453.41 -335.05 453.45 -336.19 453.48 C-337.92 453.52 -337.92 453.52 -339.69 453.56 C-341.98 453.62 -344.28 453.69 -346.57 453.75 C-347.59 453.78 -348.61 453.8 -349.66 453.83 C-351.96 453.74 -351.96 453.74 -353 455 C-354.47 455.13 -355.94 455.2 -357.41 455.25 C-358.32 455.28 -359.23 455.31 -360.16 455.35 C-362.07 455.41 -363.97 455.46 -365.88 455.52 C-370.03 455.67 -373.91 455.85 -377.91 457 C-383.3 458.51 -388.81 458.42 -394.38 458.56 C-396.53 458.62 -398.68 458.69 -400.84 458.75 C-401.78 458.78 -402.72 458.8 -403.7 458.83 C-406.03 458.86 -406.03 458.86 -408 460 C-409.94 460.21 -411.9 460.37 -413.85 460.5 C-415.01 460.58 -416.17 460.67 -417.37 460.75 C-419.84 460.92 -422.3 461.08 -424.77 461.25 C-425.93 461.33 -427.09 461.42 -428.29 461.5 C-429.36 461.57 -430.43 461.64 -431.53 461.72 C-433.94 461.73 -433.94 461.73 -435 463 C-436.57 463.15 -438.15 463.23 -439.73 463.28 C-440.7 463.32 -441.67 463.36 -442.66 463.39 C-443.68 463.43 -444.7 463.46 -445.75 463.5 C-447.74 463.57 -449.74 463.64 -451.73 463.72 C-452.62 463.75 -453.51 463.78 -454.43 463.81 C-457.03 464 -459.45 464.47 -462 465 C-464.71 465.17 -467.41 465.32 -470.12 465.44 C-474.94 465.68 -479.59 465.99 -484.31 467 C-490.52 468.3 -496.78 468.43 -503.1 468.66 C-503.93 468.69 -504.76 468.72 -505.62 468.75 C-506.37 468.78 -507.11 468.8 -507.88 468.83 C-510.02 469 -511.92 469.47 -514 470 C-517.64 470.23 -521.27 470.39 -524.92 470.52 C-529.03 470.7 -532.91 471.13 -536.94 472 C-542.1 473.11 -547.11 473.36 -552.38 473.5 C-567.62 473.64 -567.62 473.64 -581 480 C-581.89 480.52 -582.77 481.03 -583.69 481.56 C-586.71 483.44 -588.6 484.74 -589.69 488.19 C-589.79 488.79 -589.89 489.38 -590 490 C-590.66 490 -591.32 490 -592 490 C-592 491.65 -592 493.3 -592 495 C-592.66 495.33 -593.32 495.66 -594 496 C-595.34 512.44 -595.34 512.44 -589 527 C-586.6 529.34 -586.6 529.34 -584 531 C-581.5 533.44 -579.07 535.93 -576.64 538.43 C-575.85 539.24 -575.06 540.04 -574.25 540.88 C-573.47 541.68 -572.69 542.48 -571.89 543.3 C-569.56 545.48 -567.26 547.35 -564.73 549.27 C-559.76 553.07 -555.47 557.38 -551.12 561.88 C-545.5 567.6 -539.9 572.98 -533.58 577.93 C-526.01 584 -519.01 590.81 -512.33 597.83 C-510.36 599.67 -508.42 601.18 -506.24 602.75 C-501.65 606.13 -497.82 610.08 -493.88 614.19 C-488.87 619.31 -483.89 624.12 -478.12 628.38 C-471.02 633.64 -464.96 639.84 -458.83 646.19 C-454.49 650.65 -450.08 654.6 -445.11 658.34 C-441.84 660.92 -439 663.87 -436.12 666.88 C-431.18 671.93 -426.11 676.54 -420.57 680.95 C-412.92 687.07 -405.97 693.91 -399.17 700.95 C-396.28 703.91 -393.37 706.54 -390.02 708.97 C-385.84 712.01 -382.37 715.52 -378.81 719.25 C-374.37 723.81 -369.98 727.95 -364.81 731.69 C-357.61 736.97 -351.53 743.28 -345.33 749.69 C-340.58 754.57 -335.71 758.92 -330.34 763.1 C-326.82 765.95 -323.75 769.16 -320.62 772.44 C-315.31 777.9 -309.96 782.45 -303.74 786.86 C-299.24 790.37 -295.62 794.62 -292 799 C-292.32 799.73 -292.64 800.45 -292.96 801.2 C-293.94 803.84 -294.34 805.96 -294.56 808.75 C-294.9 812.9 -294.9 812.9 -296 814 C-296.28 816.22 -296.45 818.44 -296.62 820.68 C-297.02 823.14 -297.89 824.78 -299 827 C-299.41 829.32 -299.41 829.32 -299.56 831.69 C-299.9 835.9 -299.9 835.9 -301 837 C-301.28 839.22 -301.45 841.44 -301.62 843.68 C-302.02 846.14 -302.88 847.79 -304 850 C-304.41 852.09 -304.41 852.09 -304.56 854.19 C-305 858 -305 858 -306 859 C-306.28 861.78 -306.45 864.55 -306.62 867.34 C-307 870 -307 870 -309 873 C-310.64 878.84 -311.27 884.84 -311.66 890.87 C-312 893 -312 893 -314 896 C-314.51 898.05 -314.51 898.05 -314.78 900.31 C-314.96 901.55 -314.96 901.55 -315.14 902.82 C-315.26 903.69 -315.38 904.55 -315.5 905.44 C-315.73 907.15 -315.97 908.85 -316.22 910.56 C-316.32 911.31 -316.42 912.07 -316.53 912.85 C-317.03 915.15 -317.91 916.92 -319 919 C-319.41 921.09 -319.41 921.09 -319.56 923.19 C-320 927 -320 927 -321 928 C-321.28 930.48 -321.45 932.96 -321.62 935.46 C-322.01 938.06 -322.81 939.69 -324 942 C-324.41 944.09 -324.41 944.09 -324.56 946.19 C-325 950 -325 950 -326 951 C-326.28 953.48 -326.45 955.96 -326.62 958.46 C-327.01 961.06 -327.81 962.69 -329 965 C-329.41 967.09 -329.41 967.09 -329.56 969.19 C-330 973 -330 973 -331 974 C-331.28 976.22 -331.45 978.44 -331.62 980.68 C-332.02 983.14 -332.89 984.78 -334 987 C-334.41 989.32 -334.41 989.32 -334.56 991.69 C-334.9 995.9 -334.9 995.9 -336 997 C-336.28 999.55 -336.45 1002.1 -336.62 1004.65 C-337 1007 -337 1007 -339 1009 C-339.42 1011.14 -339.42 1011.14 -339.56 1013.5 C-339.91 1017.81 -339.91 1017.81 -341 1020 C-341.27 1022.53 -341.45 1025.05 -341.62 1027.59 C-342 1030 -342 1030 -344 1033 C-344.42 1035.25 -344.42 1035.25 -344.56 1037.62 C-344.9 1041.9 -344.9 1041.9 -346 1043 C-346.28 1045.51 -346.45 1048.03 -346.62 1050.55 C-347 1053 -347 1053 -349 1056 C-349.42 1058.25 -349.42 1058.25 -349.56 1060.62 C-349.9 1064.9 -349.9 1064.9 -351 1066 C-351.28 1068.22 -351.45 1070.44 -351.62 1072.68 C-352.02 1075.14 -352.89 1076.78 -354 1079 C-354.45 1081.36 -354.45 1081.36 -354.62 1083.75 C-354.7 1084.55 -354.77 1085.35 -354.85 1086.17 C-354.9 1086.78 -354.95 1087.38 -355 1088 C-355.66 1088 -356.32 1088 -357 1088 C-356.98 1088.68 -356.95 1089.35 -356.93 1090.05 C-356.91 1090.94 -356.89 1091.83 -356.88 1092.75 C-356.85 1093.63 -356.83 1094.51 -356.8 1095.42 C-357.01 1098.16 -357.73 1099.61 -359 1102 C-359.41 1104.09 -359.41 1104.09 -359.56 1106.19 C-360 1110 -360 1110 -361 1111 C-361.28 1113.48 -361.45 1115.96 -361.62 1118.46 C-362.01 1121.06 -362.81 1122.69 -364 1125 C-364.41 1127.09 -364.41 1127.09 -364.56 1129.19 C-365 1133 -365 1133 -366 1134 C-366.28 1136.55 -366.45 1139.1 -366.62 1141.65 C-367 1144 -367 1144 -369 1146 C-369.42 1148.4 -369.42 1148.4 -369.56 1151.06 C-369.9 1155.9 -369.9 1155.9 -371 1157 C-371.28 1159.55 -371.45 1162.1 -371.62 1164.65 C-372 1167 -372 1167 -374 1169 C-374.42 1171.4 -374.42 1171.4 -374.56 1174.06 C-374.9 1178.9 -374.9 1178.9 -376 1180 C-376.28 1182.51 -376.45 1185.03 -376.62 1187.55 C-377 1190 -377 1190 -379 1193 C-380.18 1203.96 -379.08 1212.09 -372.44 1221.12 C-369.37 1224.94 -369.37 1224.94 -365 1227 C-364.67 1227.66 -364.34 1228.32 -364 1229 C-361.98 1229.65 -361.98 1229.65 -360 1230 C-360 1230.66 -360 1231.32 -360 1232 C-357.65 1232.03 -355.29 1232.05 -352.94 1232.06 C-351.63 1232.07 -350.32 1232.09 -348.96 1232.1 C-343.52 1231.96 -338.32 1231.13 -333 1230 C-332.67 1229.01 -332.34 1228.02 -332 1227 C-330.02 1225.97 -328.02 1224.97 -326 1224 C-325.67 1223.34 -325.34 1222.68 -325 1222 C-323.02 1221.27 -321.04 1220.55 -319.05 1219.85 C-316.27 1218.7 -314.29 1216.94 -312 1215 C-308.97 1213.11 -305.85 1211.4 -302.62 1209.88 C-300.81 1209.1 -300.81 1209.1 -300 1207 C-298.85 1206.69 -297.69 1206.38 -296.5 1206.06 C-295.35 1205.71 -294.19 1205.36 -293 1205 C-292.67 1204.01 -292.34 1203.02 -292 1202 C-290.68 1202 -289.36 1202 -288 1202 C-288 1201.34 -288 1200.68 -288 1200 C-282.25 1197 -282.25 1197 -280 1197 C-280 1196.34 -280 1195.68 -280 1195 C-279.03 1194.46 -278.06 1193.93 -277.06 1193.38 C-274.12 1191.7 -271.3 1189.9 -268.5 1188 C-258.69 1181.4 -258.69 1181.4 -254.62 1180.44 C-254.09 1180.29 -253.55 1180.15 -253 1180 C-252.67 1179.01 -252.34 1178.02 -252 1177 C-249.69 1175.54 -247.41 1174.26 -245 1173 C-237.24 1168.93 -237.24 1168.93 -229.94 1164.12 C-227 1162 -227 1162 -225 1162 C-225 1161.34 -225 1160.68 -225 1160 C-224.04 1159.81 -224.04 1159.81 -223.06 1159.62 C-222.38 1159.42 -221.7 1159.21 -221 1159 C-220.67 1158.34 -220.34 1157.68 -220 1157 C-217.37 1155.42 -216.13 1155 -213 1155 C-212.67 1154.01 -212.34 1153.02 -212 1152 C-210.68 1152 -209.36 1152 -208 1152 C-208 1151.34 -208 1150.68 -208 1150 C-207.01 1150 -206.02 1150 -205 1150 C-205 1149.34 -205 1148.68 -205 1148 C-203.35 1147.67 -201.7 1147.34 -200 1147 C-200 1146.34 -200 1145.68 -200 1145 C-192.71 1140.57 -192.71 1140.57 -188 1140 C-187.67 1139.01 -187.34 1138.02 -187 1137 C-185.02 1135.97 -183.02 1134.97 -181 1134 C-180.67 1133.34 -180.34 1132.68 -180 1132 C-177.67 1130.98 -175.34 1129.99 -173 1129 C-172.34 1128.34 -171.68 1127.68 -171 1127 C-170.01 1127 -169.02 1127 -168 1127 C-168 1126.34 -168 1125.68 -168 1125 C-162.25 1122 -162.25 1122 -160 1122 C-160 1121.34 -160 1120.68 -160 1120 C-159.03 1119.46 -158.06 1118.93 -157.06 1118.38 C-154.12 1116.7 -151.3 1114.9 -148.5 1113 C-138.69 1106.4 -138.69 1106.4 -134.62 1105.44 C-134.09 1105.29 -133.55 1105.15 -133 1105 C-132.67 1104.01 -132.34 1103.02 -132 1102 C-130.68 1102 -129.36 1102 -128 1102 C-128 1101.34 -128 1100.68 -128 1100 C-126.5 1098.85 -126.5 1098.85 -124.44 1097.62 C-123.71 1097.19 -122.98 1096.75 -122.22 1096.29 C-120.28 1095.16 -118.33 1094.04 -116.38 1092.94 C-112.96 1091.04 -112.96 1091.04 -109.75 1088.75 C-107 1087 -107 1087 -104 1087 C-104 1086.34 -104 1085.68 -104 1085 C-103.01 1084.67 -102.02 1084.34 -101 1084 C-100.67 1083.34 -100.34 1082.68 -100 1082 C-98.85 1081.69 -97.69 1081.38 -96.5 1081.06 C-95.35 1080.71 -94.19 1080.36 -93 1080 C-92.67 1079.01 -92.34 1078.02 -92 1077 C-90.68 1077 -89.36 1077 -88 1077 C-88 1076.34 -88 1075.68 -88 1075 C-82.25 1072 -82.25 1072 -80 1072 C-80 1071.34 -80 1070.68 -80 1070 C-77.09 1067.96 -75.6 1067 -72 1067 C-72 1066.34 -72 1065.68 -72 1065 C-69.09 1062.96 -67.6 1062 -64 1062 C-64 1061.34 -64 1060.68 -64 1060 C-63.01 1059.67 -62.02 1059.34 -61 1059 C-60.67 1058.34 -60.34 1057.68 -60 1057 C-58.68 1057 -57.36 1057 -56 1057 C-56 1056.34 -56 1055.68 -56 1055 C-55.01 1055 -54.02 1055 -53 1055 C-52.67 1054.01 -52.34 1053.02 -52 1052 C-50.68 1052 -49.36 1052 -48 1052 C-48 1051.34 -48 1050.68 -48 1050 C-46.5 1048.85 -46.5 1048.85 -44.44 1047.62 C-43.34 1046.96 -43.34 1046.96 -42.21 1046.29 C-39.78 1044.87 -37.32 1043.49 -34.86 1042.11 C-31.82 1040.3 -28.93 1038.28 -26.02 1036.27 C-24 1035 -24 1035 -21 1034 C-20.67 1033.34 -20.34 1032.68 -20 1032 C-18.85 1031.69 -17.69 1031.38 -16.5 1031.06 C-15.35 1030.71 -14.19 1030.36 -13 1030 C-12.67 1029.01 -12.34 1028.02 -12 1027 C-10.68 1027 -9.36 1027 -8 1027 C-8 1026.34 -8 1025.68 -8 1025 C-5.09 1022.96 -3.6 1022 0 1022 C0.25 1029.29 0.43 1036.59 0.55 1043.89 C0.6 1046.37 0.67 1048.85 0.75 1051.33 C0.88 1054.9 0.93 1058.47 0.98 1062.04 C1.03 1063.15 1.08 1064.25 1.13 1065.39 C1.14 1068.56 1.03 1071 0 1074 C-3.03 1076.77 -6.31 1078.28 -10 1080 C-10.71 1080.55 -11.41 1081.09 -12.14 1081.65 C-14 1083 -14 1083 -17 1083 C-17 1083.66 -17 1084.32 -17 1085 C-19 1086.39 -20.97 1087.64 -23.06 1088.88 C-23.66 1089.24 -24.26 1089.6 -24.88 1089.97 C-27.81 1091.73 -30.77 1093.45 -33.75 1095.12 C-37.25 1097.14 -40.57 1099.35 -43.92 1101.61 C-50.47 1106 -50.47 1106 -54 1106 C-54 1106.66 -54 1107.32 -54 1108 C-56.91 1110.04 -58.4 1111 -62 1111 C-62 1111.66 -62 1112.32 -62 1113 C-64.91 1115.04 -66.4 1116 -70 1116 C-70 1116.66 -70 1117.32 -70 1118 C-70.74 1118.39 -71.47 1118.77 -72.23 1119.17 C-77.18 1121.81 -81.68 1124.4 -86 1128 C-87.68 1128.97 -89.35 1129.93 -91.05 1130.87 C-93.27 1132.15 -95.38 1133.56 -97.5 1135 C-100.66 1137.14 -103.85 1139.09 -107.19 1140.94 C-110.15 1142.67 -112.96 1144.63 -115.8 1146.55 C-117.73 1147.82 -119.67 1149 -121.69 1150.12 C-125.05 1151.96 -125.05 1151.96 -128.25 1154.25 C-131 1156 -131 1156 -134 1156 C-134 1156.66 -134 1157.32 -134 1158 C-136.91 1160.04 -138.4 1161 -142 1161 C-142 1161.66 -142 1162.32 -142 1163 C-144.91 1165.04 -146.4 1166 -150 1166 C-150 1166.66 -150 1167.32 -150 1168 C-151.03 1168.55 -151.03 1168.55 -152.09 1169.1 C-159.2 1172.91 -165.85 1177.1 -172.45 1181.71 C-173.25 1182.26 -174.05 1182.81 -174.88 1183.38 C-175.59 1183.88 -176.31 1184.38 -177.05 1184.9 C-179 1186 -179 1186 -182 1186 C-182 1186.66 -182 1187.32 -182 1188 C-182.97 1188.54 -183.94 1189.07 -184.94 1189.62 C-187.88 1191.3 -190.7 1193.1 -193.5 1195 C-196.12 1196.77 -198.73 1198.46 -201.5 1200 C-205.11 1202.01 -208.5 1204.3 -211.92 1206.61 C-218.47 1211 -218.47 1211 -222 1211 C-222 1211.66 -222 1212.32 -222 1213 C-224.91 1215.04 -226.4 1216 -230 1216 C-230 1216.66 -230 1217.32 -230 1218 C-231.03 1218.55 -231.03 1218.55 -232.09 1219.1 C-237.36 1221.92 -242.42 1224.86 -247.36 1228.23 C-250.85 1230.57 -254.43 1232.78 -258 1235 C-262.36 1237.71 -266.69 1240.43 -270.94 1243.31 C-273.7 1245.19 -276.5 1246.85 -279.44 1248.44 C-282.87 1250.29 -286.02 1252.36 -289.19 1254.62 C-298.12 1261 -298.12 1261 -302 1261 C-302 1261.66 -302 1262.32 -302 1263 C-307.7 1266.14 -313.39 1269.27 -319.24 1272.13 C-320.84 1272.92 -322.42 1273.77 -324 1274.62 C-340.24 1282.07 -359.75 1279.64 -375.89 1273.67 C-380.07 1272.04 -384.02 1270.06 -388 1268 C-388 1267.34 -388 1266.68 -388 1266 C-389.18 1265.54 -389.18 1265.54 -390.38 1265.06 C-393 1264 -393 1264 -395 1263 C-395 1262.34 -395 1261.68 -395 1261 C-395.99 1260.67 -396.98 1260.34 -398 1260 C-398 1259.34 -398 1258.68 -398 1258 C-398.96 1257.6 -398.96 1257.6 -399.94 1257.19 C-402 1256 -402 1256 -403 1253 C-403.66 1253 -404.32 1253 -405 1253 C-412.17 1243.78 -417.94 1233.3 -421 1222 C-421.25 1221.08 -421.25 1221.08 -421.51 1220.15 C-423.16 1213.67 -423.35 1207.41 -423.31 1200.75 C-423.31 1199.64 -423.31 1198.53 -423.3 1197.39 C-423.2 1189.46 -422.35 1182.59 -420 1175 C-419.47 1172.96 -418.95 1170.92 -418.44 1168.88 C-418.19 1167.89 -417.94 1166.91 -417.68 1165.9 C-416.81 1162.21 -416.17 1158.51 -415.53 1154.78 C-414.77 1150.8 -413.73 1146.9 -412.72 1142.97 C-412.04 1140.15 -411.49 1137.35 -411 1134.5 C-410.15 1129.56 -408.97 1124.76 -407.72 1119.91 C-406.41 1114.64 -405.41 1109.32 -404.47 1103.97 C-404.29 1102.97 -404.12 1101.97 -403.94 1100.94 C-403.78 1100.02 -403.63 1099.1 -403.46 1098.15 C-403 1096 -403 1096 -402 1095 C-401.63 1093.19 -401.3 1091.38 -401 1089.56 C-400.11 1084.22 -400.11 1084.22 -399 1082 C-398.69 1079.67 -398.49 1077.34 -398.28 1075 C-398 1073 -398 1073 -397 1072 C-396.63 1070.19 -396.3 1068.38 -396 1066.56 C-395.11 1061.22 -395.11 1061.22 -394 1059 C-393.69 1056.67 -393.49 1054.34 -393.28 1052 C-393 1050 -393 1050 -392 1049 C-391.67 1047.4 -391.39 1045.8 -391.12 1044.19 C-390.41 1040.07 -389.55 1036.05 -388.5 1032 C-387.52 1028.18 -386.67 1024.39 -386 1020.5 C-385.15 1015.58 -383.96 1010.8 -382.72 1005.97 C-382.04 1003.15 -381.49 1000.35 -381 997.5 C-380.17 992.67 -379.03 987.96 -377.78 983.21 C-376.94 979.74 -376.24 976.24 -375.55 972.73 C-374.4 967.02 -373.12 961.34 -371.86 955.65 C-370.57 949.82 -369.43 943.99 -368.45 938.1 C-368 936 -368 936 -367 935 C-366.67 933.4 -366.39 931.8 -366.12 930.19 C-365.41 926.07 -364.55 922.05 -363.5 918 C-362.52 914.18 -361.67 910.39 -361 906.5 C-360.15 901.58 -358.96 896.8 -357.72 891.97 C-357.04 889.15 -356.49 886.35 -356 883.5 C-355.15 878.58 -353.96 873.8 -352.72 868.97 C-352.04 866.15 -351.49 863.35 -351 860.5 C-350.15 855.58 -348.96 850.8 -347.72 845.97 C-346.82 842.27 -346.18 838.55 -345.54 834.8 C-344.76 830.73 -343.7 826.75 -342.66 822.75 C-341.88 819.5 -341.38 816.32 -341 813 C-341.66 813 -342.32 813 -343 813 C-343 812.34 -343 811.68 -343 811 C-343.99 810.67 -344.98 810.34 -346 810 C-346 809.34 -346 808.68 -346 808 C-346.54 807.77 -347.09 807.55 -347.65 807.32 C-350.74 805.59 -353.04 803.35 -355.62 800.94 C-359.04 797.58 -359.04 797.58 -363 795 C-363 794.34 -363 793.68 -363 793 C-363.64 792.73 -364.28 792.46 -364.94 792.19 C-367 791 -367 791 -368 788 C-369.32 787.31 -370.66 786.65 -372 786 C-374.96 783.67 -377.65 781.35 -380.31 778.69 C-383.18 775.82 -386.13 773.06 -389.12 770.31 C-389.91 769.58 -389.91 769.58 -390.71 768.84 C-393.07 766.68 -395.34 764.77 -398 763 C-398 762.34 -398 761.68 -398 761 C-398.99 760.67 -399.98 760.34 -401 760 C-401 759.34 -401 758.68 -401 758 C-401.66 758 -402.32 758 -403 758 C-403 757.34 -403 756.68 -403 756 C-403.58 755.73 -404.15 755.46 -404.75 755.19 C-407.06 753.97 -409.02 752.7 -411 751 C-411 750.34 -411 749.68 -411 749 C-411.57 748.74 -412.14 748.48 -412.73 748.22 C-415.21 746.89 -417.13 745.35 -419.25 743.5 C-419.96 742.89 -420.66 742.28 -421.39 741.66 C-423 740 -423 740 -423 738 C-423.59 737.74 -424.17 737.49 -424.77 737.22 C-427.19 735.89 -428.73 734.43 -430.62 732.44 C-433.05 729.86 -433.05 729.86 -436 728 C-436 727.34 -436 726.68 -436 726 C-436.55 725.77 -437.1 725.54 -437.67 725.3 C-440.63 723.65 -442.83 721.56 -445.31 719.25 C-448.55 716.25 -451.78 713.31 -455.19 710.5 C-456.12 709.67 -457.04 708.85 -458 708 C-458 707.34 -458 706.68 -458 706 C-458.59 705.73 -459.18 705.46 -459.79 705.19 C-462.02 703.99 -463.56 702.74 -465.38 701 C-465.99 700.42 -466.6 699.84 -467.23 699.25 C-468.17 698.35 -468.17 698.35 -469.12 697.44 C-470.38 696.25 -471.63 695.06 -472.88 693.87 C-473.43 693.34 -473.98 692.82 -474.55 692.28 C-475.99 690.9 -475.99 690.9 -478 690 C-478 689.34 -478 688.68 -478 688 C-478.64 687.73 -479.28 687.46 -479.94 687.19 C-482 686 -482 686 -483 683 C-484.85 681.95 -484.85 681.95 -487 681 C-489.25 679.5 -489.25 679.5 -491 678 C-491 677.34 -491 676.68 -491 676 C-491.66 676 -492.32 676 -493 676 C-493 675.34 -493 674.68 -493 674 C-493.52 673.79 -494.05 673.59 -494.59 673.38 C-498.04 671.4 -500.7 668.73 -503.56 666 C-504.71 664.91 -505.85 663.83 -507 662.75 C-507.51 662.27 -508.01 661.79 -508.53 661.3 C-510.18 659.78 -510.18 659.78 -513 658 C-513 657.34 -513 656.68 -513 656 C-513.99 655.67 -514.98 655.34 -516 655 C-516 654.34 -516 653.68 -516 653 C-516.53 652.79 -517.05 652.58 -517.6 652.37 C-521 650.43 -523.61 647.82 -526.44 645.12 C-527.56 644.06 -528.68 643 -529.81 641.95 C-530.34 641.44 -530.88 640.94 -531.43 640.42 C-532.87 639.12 -534.39 637.93 -535.91 636.74 C-536.6 636.17 -537.29 635.59 -538 635 C-538 634.34 -538 633.68 -538 633 C-538.54 632.77 -539.07 632.55 -539.62 632.31 C-543.85 629.98 -547.85 626.68 -551 623 C-551 622.34 -551 621.68 -551 621 C-551.55 620.77 -552.1 620.54 -552.67 620.3 C-555.63 618.65 -557.83 616.56 -560.31 614.25 C-563.55 611.25 -566.78 608.31 -570.19 605.5 C-571.12 604.67 -572.04 603.85 -573 603 C-573 602.34 -573 601.68 -573 601 C-573.99 600.67 -574.98 600.34 -576 600 C-576 599.34 -576 598.68 -576 598 C-576.83 597.63 -576.83 597.63 -577.68 597.25 C-580.41 595.78 -582.66 594.01 -585.06 592.06 C-585.92 591.37 -586.78 590.68 -587.66 589.97 C-591.47 586.76 -591.47 586.76 -593 585 C-593 584.34 -593 583.68 -593 583 C-593.59 582.74 -594.18 582.48 -594.79 582.21 C-597.12 580.94 -598.56 579.61 -600.38 577.69 C-604.14 573.81 -608.1 570.44 -612.41 567.18 C-615.08 564.93 -617.15 562.61 -619.31 559.88 C-620.01 559.01 -620.71 558.14 -621.43 557.24 C-623 555 -623 555 -623 553 C-623.66 553 -624.32 553 -625 553 C-630.27 546.16 -633.09 538.03 -636 530 C-636.36 529.15 -636.73 528.31 -637.11 527.44 C-638.06 524.82 -638.37 522.58 -638.56 519.81 C-638.78 516.27 -638.78 516.27 -640 513 C-640.1 511.02 -640.13 509.04 -640.12 507.06 C-640.13 506 -640.13 504.94 -640.13 503.85 C-640 501 -640 501 -639 498 C-638.93 496.44 -638.91 494.87 -638.94 493.31 C-638.95 492.5 -638.96 491.7 -638.96 490.86 C-638.98 490.25 -638.99 489.63 -639 489 C-638.34 488.67 -637.68 488.34 -637 488 C-636.53 485.87 -636.53 485.87 -636.38 483.44 C-636.26 482.2 -636.26 482.2 -636.15 480.93 C-636.1 480.3 -636.05 479.66 -636 479 C-635.34 479 -634.68 479 -634 479 C-632.42 474.67 -631.55 470.57 -631 466 C-630.34 466.33 -629.68 466.66 -629 467 C-628.67 465.35 -628.34 463.7 -628 462 C-627.34 462 -626.68 462 -626 462 C-626 461.34 -626 460.68 -626 460 C-625.01 460 -624.02 460 -623 460 C-622.34 457.69 -621.68 455.38 -621 453 C-620.34 453 -619.68 453 -619 453 C-618.74 452.41 -618.48 451.81 -618.22 451.2 C-616.9 448.82 -615.57 447.49 -613.5 445.75 C-612.89 445.23 -612.28 444.71 -611.66 444.17 C-610 443 -610 443 -608 443 C-608 442.34 -608 441.68 -608 441 C-602.25 439 -602.25 439 -600 439 C-600 438.34 -600 437.68 -600 437 C-593.37 434.56 -586.72 432.2 -580 430 C-579.01 429.67 -578.02 429.34 -577 429 C-573.39 428.74 -569.78 428.56 -566.16 428.39 C-562.9 428.23 -560.11 428.04 -557 427 C-555.51 426.88 -554.03 426.8 -552.54 426.75 C-551.66 426.72 -550.78 426.69 -549.88 426.66 C-548.95 426.63 -548.02 426.6 -547.06 426.56 C-540.28 426.29 -533.79 425.78 -527.12 424.47 C-522.1 423.71 -517.04 423.54 -511.96 423.34 C-507.85 423.27 -507.85 423.27 -504 422 C-502.47 421.87 -500.94 421.8 -499.41 421.75 C-498.49 421.72 -497.56 421.69 -496.61 421.66 C-495.63 421.63 -494.64 421.6 -493.62 421.56 C-486.64 421.3 -479.95 420.83 -473.09 419.47 C-468.07 418.7 -463.03 418.54 -457.96 418.34 C-453.85 418.27 -453.85 418.27 -450 417 C-448.56 416.87 -447.11 416.8 -445.67 416.75 C-444.79 416.72 -443.92 416.69 -443.02 416.66 C-442.08 416.63 -441.15 416.6 -440.19 416.56 C-433.12 416.28 -426.31 415.71 -419.34 414.47 C-414.25 413.75 -409.14 413.55 -404 413.34 C-400.78 413.2 -398.07 413.02 -395 412 C-392.04 411.82 -389.09 411.68 -386.12 411.56 C-379.44 411.27 -373 410.62 -366.41 409.47 C-361.32 408.77 -356.22 408.55 -351.09 408.34 C-347.04 408.2 -347.04 408.2 -343.06 407.51 C-340.76 406.94 -338.57 406.72 -336.2 406.54 C-334.78 406.42 -334.78 406.42 -333.33 406.3 C-332.31 406.22 -331.3 406.14 -330.25 406.06 C-329.2 405.98 -328.15 405.89 -327.07 405.8 C-323.71 405.53 -320.36 405.27 -317 405 C-312.6 404.65 -308.21 404.29 -303.81 403.94 C-302.8 403.86 -301.8 403.78 -300.76 403.7 C-299.34 403.58 -299.34 403.58 -297.89 403.46 C-297.07 403.4 -296.24 403.33 -295.39 403.27 C-292.88 402.99 -290.47 402.5 -288 402 C-286.43 401.82 -284.86 401.67 -283.29 401.54 C-281.93 401.42 -281.93 401.42 -280.55 401.3 C-279.58 401.22 -278.62 401.14 -277.62 401.06 C-276.62 400.98 -275.62 400.89 -274.59 400.8 C-271.39 400.53 -268.2 400.27 -265 400 C-260.81 399.65 -256.62 399.29 -252.44 398.94 C-251.48 398.86 -250.52 398.78 -249.54 398.7 C-246.02 398.4 -242.55 398.09 -239.07 397.5 C-233.18 396.54 -227.19 396.22 -221.23 395.75 C-220.24 395.67 -219.24 395.58 -218.21 395.5 C-217.31 395.43 -216.4 395.36 -215.47 395.28 C-213.23 395.03 -211.17 394.61 -209 394 C-208.73 393 -208.45 392 -208.17 390.96 C-207.06 387.1 -205.73 383.33 -204.31 379.56 C-204.05 378.88 -203.8 378.19 -203.53 377.48 C-201.36 371.79 -198.95 366.22 -196.47 360.66 C-194.42 356.05 -192.63 351.4 -190.96 346.64 C-189.16 341.68 -187.06 336.85 -185 332 C-182.42 325.89 -179.9 319.77 -177.56 313.56 C-175.86 309.07 -173.98 304.72 -171.94 300.38 C-169.68 295.57 -167.75 290.75 -165.99 285.74 C-164.19 280.75 -162.07 275.89 -160 271 C-159.17 269 -158.33 267 -157.5 265 C-156.26 262.01 -155.01 259.02 -153.75 256.04 C-151.58 250.89 -149.49 245.72 -147.5 240.5 C-144.67 233.1 -141.64 225.79 -138.49 218.52 C-135.8 212.31 -133.26 206.09 -130.99 199.71 C-129.17 194.73 -127.06 189.88 -125 185 C-124.17 183 -123.33 181 -122.5 179 C-120.83 175 -119.17 171 -117.5 167 C-117.09 166.01 -116.67 165.02 -116.25 164 C-115.42 162.01 -114.59 160.02 -113.75 158.04 C-111.18 151.93 -108.74 145.79 -106.41 139.59 C-103.5 132.18 -100.37 124.85 -97.25 117.53 C-96.78 116.44 -96.32 115.36 -95.85 114.24 C-94.9 112.03 -93.96 109.83 -93.02 107.62 C-90.45 101.59 -88.05 95.54 -85.85 89.36 C-84.84 86.56 -83.73 83.81 -82.56 81.06 C-81.93 79.56 -81.93 79.56 -81.29 78.04 C-80.65 76.53 -80.65 76.53 -80 75 C-79.17 73 -78.33 71 -77.5 69 C-76.24 65.98 -74.98 62.95 -73.71 59.93 C-73.29 58.92 -72.87 57.91 -72.44 56.88 C-72.02 55.89 -71.61 54.9 -71.18 53.88 C-70.43 52.04 -69.7 50.2 -69.01 48.34 C-67.01 43.01 -64.59 38.54 -61.27 33.91 C-59.83 31.92 -59.83 31.92 -59 29 C-57.38 27.29 -55.7 25.63 -54 24 C-52.89 22.9 -51.79 21.79 -50.69 20.69 C-49.8 19.8 -48.91 18.91 -48 18 C-48.33 17.34 -48.66 16.68 -49 16 C-48.26 15.73 -47.51 15.46 -46.75 15.19 C-44.13 14.06 -42.2 12.79 -40 11 C-39.34 11.33 -38.68 11.66 -38 12 C-38 11.01 -38 10.02 -38 9 C-36.35 8.67 -34.7 8.34 -33 8 C-33 7.34 -33 6.68 -33 6 C-31.68 5.67 -30.36 5.34 -29 5 C-29 4.67 -29 4.34 -29 4 C-27.85 3.9 -26.69 3.79 -25.5 3.69 C-22.48 3.33 -20.08 2.69 -17.31 1.44 C-13 0 -13 0 0 0 Z " fill="#F8CE0B" transform="translate(640,0)"/>
<path d="M0 0 C0.66 0.33 1.32 0.66 2 1 C1.01 1 0.02 1 -1 1 C-0.67 0.67 -0.34 0.34 0 0 Z " fill="#F9CF0B" transform="translate(16,456)"/>
<path d="M0 0 C0.99 0.5 0.99 0.5 2 1 C1.01 1.5 1.01 1.5 0 2 C0 1.34 0 0.68 0 0 Z " fill="#F9CF0B" transform="translate(584,23)"/>
<path d="M0 0 C0.99 0.5 0.99 0.5 2 1 C1.01 1.5 1.01 1.5 0 2 C0 1.34 0 0.68 0 0 Z " fill="#F9CF0B" transform="translate(586,21)"/>
<path d="" fill="#F9CF0B" transform="translate(0,0)"/>
<path d="" fill="#F9CF0B" transform="translate(0,0)"/>
<path d="" fill="#F9CF0B" transform="translate(0,0)"/>
<path d="" fill="#F9CF0B" transform="translate(0,0)"/>
<path d="" fill="#F9CF0B" transform="translate(0,0)"/>
<path d="" fill="#F9CF0B" transform="translate(0,0)"/>
<path d="" fill="#F9CF0B" transform="translate(0,0)"/>
<path d="" fill="#F9CF0B" transform="translate(0,0)"/>
<path d="" fill="#F9CF0B" transform="translate(0,0)"/>
<path d="" fill="#F9CF0B" transform="translate(0,0)"/>
<path d="" fill="#F9CF0B" transform="translate(0,0)"/>
<path d="" fill="#F9CF0B" transform="translate(0,0)"/>
<path d="" fill="#F9CF0B" transform="translate(0,0)"/>
</svg>
