<?xml version="1.0" encoding="UTF-8"?>
<!-- Generator: visioncortex VTracer 0.6.3 -->
<svg version="1.1" xmlns="http://www.w3.org/2000/svg" width="640" height="1280">
<path d="M0 0 C17.56 0 17.56 0 24 3 C25.08 3.49 26.16 3.97 27.27 4.48 C37.84 9.49 48.62 15.68 56 25 C56 25.66 56 26.32 56 27 C56.66 27 57.32 27 58 27 C59.29 28.68 59.29 28.68 60.62 30.88 C61.07 31.59 61.52 32.31 61.98 33.05 C63 35 63 35 63 37 C63.66 37 64.32 37 65 37 C65.25 37.64 65.51 38.28 65.77 38.94 C68.16 44.94 70.54 50.92 73.31 56.76 C76.39 63.28 79.13 69.85 81.61 76.63 C83.6 82.05 85.8 87.37 88.06 92.69 C90.8 99.1 93.4 105.54 95.87 112.06 C98.46 118.8 101.33 125.43 104.18 132.07 C104.57 132.98 104.96 133.9 105.36 134.84 C106.14 136.65 106.92 138.46 107.7 140.26 C111.18 148.33 114.42 156.47 117.59 164.67 C121.27 174.21 125.13 183.65 129.17 193.05 C129.56 193.97 129.95 194.88 130.36 195.83 C131.14 197.64 131.92 199.45 132.7 201.26 C135.23 207.14 137.65 213.05 140 219 C147.2 237.16 147.2 237.16 154.78 255.17 C157.2 260.79 159.42 266.49 161.62 272.2 C162.23 273.76 162.83 275.32 163.44 276.88 C163.74 277.66 164.05 278.44 164.36 279.25 C166.43 284.58 168.59 289.86 170.82 295.13 C172.13 298.31 173.35 301.53 174.56 304.75 C176.16 308.95 177.89 312.96 179.98 316.94 C181.04 319.08 181.94 321.25 182.82 323.47 C183.34 324.79 183.34 324.79 183.87 326.14 C184.25 327.09 184.62 328.03 185 329 C185.79 330.98 186.58 332.97 187.37 334.95 C187.78 335.98 188.18 337 188.6 338.06 C192.22 347.14 195.88 356.19 199.77 365.16 C201.22 368.51 202.58 371.88 203.92 375.28 C204.8 377.48 205.68 379.68 206.58 381.88 C206.85 382.56 207.13 383.24 207.41 383.94 C207.96 385.29 208.52 386.65 209.07 388 C211 392.77 211 392.77 211 395 C217.7 395.8 224.26 396.11 231 396 C233.68 396 235.54 396.32 238.1 396.97 C242.88 398.07 247.49 398.36 252.38 398.5 C258.53 398.74 264.33 399.31 270.37 400.59 C275.54 401.4 280.78 401.13 286 401 C289 401 289 401 291.35 401.96 C294.16 403.06 296.45 403.38 299.46 403.6 C300.49 403.68 301.52 403.76 302.58 403.84 C303.65 403.91 304.71 403.99 305.81 404.06 C307.92 404.22 310.03 404.38 312.14 404.54 C313.15 404.61 314.16 404.68 315.2 404.76 C317.58 404.96 319.92 405.23 322.28 405.56 C327.38 406.16 332.39 405.97 337.51 405.84 C341 406 341 406 343.29 406.97 C347.64 408.62 352.13 408.4 356.75 408.5 C362.98 408.64 368.72 409.04 374.77 410.54 C378.77 411.37 382.81 411.43 386.88 411.56 C388.54 411.62 390.2 411.69 391.87 411.75 C392.59 411.78 393.31 411.8 394.06 411.83 C396 412 396 412 399 413 C400.34 413.12 401.68 413.2 403.03 413.25 C403.81 413.28 404.6 413.31 405.41 413.34 C406.24 413.37 407.08 413.4 407.94 413.44 C413.33 413.67 418.57 413.96 423.88 415 C430.5 416.28 437.16 416.43 443.88 416.66 C444.76 416.69 445.63 416.72 446.54 416.75 C447.32 416.78 448.11 416.8 448.92 416.83 C451 417 451 417 454 418 C456.65 418.18 459.29 418.32 461.94 418.44 C467.03 418.69 471.93 419.06 476.94 420.06 C482.19 421.04 487.3 421.19 492.62 421.19 C493.42 421.19 494.22 421.19 495.03 421.19 C499.15 421.24 499.15 421.24 503 420 C503.33 420.66 503.66 421.32 504 422 C506.66 422.89 508.42 423.17 511.16 423.28 C511.95 423.32 512.75 423.36 513.56 423.39 C515.23 423.47 516.9 423.54 518.57 423.61 C519.36 423.64 520.16 423.68 520.97 423.72 C521.7 423.75 522.42 423.78 523.17 423.81 C525 424 525 424 527 425 C527.33 424.34 527.66 423.68 528 423 C529.2 423.5 530.39 423.99 531.62 424.5 C537.99 426.66 544.36 426.23 551 426 C554 426 554 426 556.81 427 C560.53 428.14 563.94 428.03 567.81 427.94 C574.2 427.86 579.08 428.7 585 431 C586.23 431.46 587.47 431.92 588.74 432.39 C590.08 432.91 591.41 433.42 592.75 433.94 C593.38 434.18 594 434.42 594.65 434.67 C598.81 436.33 602.33 438.44 606 441 C606.68 441.31 607.36 441.62 608.06 441.94 C613.08 444.69 616.67 449.86 620.36 454.15 C622.04 456.1 622.04 456.1 624.25 458.12 C626.48 460.51 627.59 463.06 629 466 C629.96 467.3 629.96 467.3 630.94 468.62 C633.34 472.55 634.61 476.43 635.97 480.8 C636.96 484.1 636.96 484.1 638.59 487.49 C640.88 493.54 640.47 499.93 640.44 506.31 C640.46 507.57 640.48 508.82 640.5 510.12 C640.49 518.26 639.22 524.55 636 532 C635.63 533.13 635.25 534.26 634.87 535.43 C631.04 546.57 624.47 555.84 616 564 C613.45 566.55 610.9 569.1 608.39 571.68 C607.05 573.05 607.05 573.05 605.69 574.44 C604.8 575.34 603.92 576.25 603.01 577.18 C600.87 579.28 598.63 581.04 596.2 582.79 C591.35 586.34 587.29 590.56 583.12 594.88 C581.63 596.42 580.14 597.96 578.63 599.49 C577.98 600.17 577.33 600.84 576.66 601.53 C575 603 575 603 573 603 C572.73 603.64 572.46 604.28 572.19 604.94 C571 607 571 607 568 608 C568 608.66 568 609.32 568 610 C566.6 611.41 566.6 611.41 564.62 613.06 C560.34 616.69 556.22 620.46 552.1 624.28 C550 626 550 626 548 626 C548 626.66 548 627.32 548 628 C547.34 628 546.68 628 546 628 C545.67 628.99 545.34 629.98 545 631 C544.34 631 543.68 631 543 631 C543 631.66 543 632.32 543 633 C541.36 634.62 541.36 634.62 539.19 636.44 C536.18 638.97 536.18 638.97 533.36 641.72 C532 643 532 643 530 643 C530 643.66 530 644.32 530 645 C529.01 645 528.02 645 527 645 C527 645.66 527 646.32 527 647 C525.57 648.41 525.57 648.41 523.56 650.06 C519.41 653.57 515.64 657.35 511.88 661.28 C510 663 510 663 508 663 C508 663.66 508 664.32 508 665 C506.3 666.52 504.54 667.97 502.75 669.38 C499.95 671.59 497.26 673.73 494.77 676.29 C493 678 493 678 491 678 C490.67 678.99 490.34 679.98 490 681 C489.34 681 488.68 681 488 681 C488 681.66 488 682.32 488 683 C486.46 684.55 486.46 684.55 484.38 686.31 C483.65 686.93 482.92 687.54 482.17 688.18 C481.46 688.78 480.74 689.38 480 690 C479.41 690.52 478.81 691.04 478.2 691.57 C474.24 695 474.24 695 472 695 C472 695.66 472 696.32 472 697 C470.39 698.59 470.39 698.59 468.25 700.38 C465.93 702.34 463.75 704.26 461.62 706.44 C460 708 460 708 458 708 C457.67 708.99 457.34 709.98 457 711 C456.34 711 455.68 711 455 711 C455 711.66 455 712.32 455 713 C454.34 713 453.68 713 453 713 C453 713.66 453 714.32 453 715 C451.43 716.33 451.43 716.33 449.31 717.81 C446.7 719.69 444.34 721.54 442.12 723.88 C441.42 724.58 440.72 725.28 440 726 C439.34 726 438.68 726 438 726 C438 726.66 438 727.32 438 728 C437.34 728 436.68 728 436 728 C436 728.66 436 729.32 436 730 C434.64 731.41 434.64 731.41 432.69 733.06 C431.96 733.68 431.23 734.3 430.48 734.94 C427.82 737.15 425.13 739.32 422.44 741.5 C418.47 744.72 414.81 748.04 411.34 751.79 C410 753 410 753 408 753 C407.67 753.99 407.34 754.98 407 756 C406.34 756 405.68 756 405 756 C405 756.66 405 757.32 405 758 C403.49 759.33 401.91 760.59 400.31 761.81 C397.38 764.09 394.56 766.3 392 769 C391.34 769.66 390.68 770.32 390 771 C389.34 771 388.68 771 388 771 C388 771.66 388 772.32 388 773 C387.34 773 386.68 773 386 773 C385.67 773.99 385.34 774.98 385 776 C384.34 776 383.68 776 383 776 C383 776.66 383 777.32 383 778 C381.39 779.46 379.71 780.84 378 782.19 C370.51 788.19 363.53 794.34 356.88 801.28 C355 803 355 803 353 803 C353 803.66 353 804.32 353 805 C351.33 806.15 349.64 807.27 347.94 808.38 C343.95 811.41 343.95 811.41 342.49 816.02 C342.82 820.04 343.41 823.6 344.98 827.34 C346.37 830.96 346.9 834.61 347.5 838.44 C348.3 843.5 349.33 848.14 351 853 C351.24 854.43 351.43 855.87 351.56 857.31 C351.59 860.8 351.59 860.8 353 862 C353.35 863.62 353.66 865.24 353.94 866.88 C354.11 867.86 354.28 868.84 354.46 869.86 C354.82 871.95 355.18 874.05 355.54 876.14 C355.71 877.13 355.88 878.11 356.06 879.12 C356.22 880.04 356.37 880.95 356.54 881.88 C356.8 883.97 356.8 883.97 358 885 C358.35 886.62 358.66 888.24 358.94 889.88 C359.11 890.86 359.28 891.84 359.46 892.86 C359.82 894.95 360.18 897.05 360.54 899.14 C360.71 900.13 360.88 901.11 361.06 902.12 C361.22 903.04 361.37 903.95 361.54 904.88 C361.8 906.97 361.8 906.97 363 908 C363.33 909.58 363.61 911.16 363.88 912.75 C364.81 918.1 365.97 923.38 367.22 928.66 C369.23 937.25 370.94 945.86 372.5 954.54 C373.43 959.65 373.43 959.65 375.03 964.58 C376.79 968.98 377.17 973.74 377.86 978.41 C378.5 982.58 379.41 986.08 381 990 C381.61 992.79 382.05 995.61 382.5 998.44 C383.3 1003.5 384.33 1008.14 386 1013 C386.24 1014.43 386.43 1015.87 386.56 1017.31 C386.59 1020.8 386.59 1020.8 388 1022 C388.18 1023.41 388.32 1024.83 388.44 1026.25 C388.8 1029.87 389.62 1032.63 391 1036 C391.22 1037.41 391.4 1038.83 391.56 1040.25 C391.58 1043.79 391.58 1043.79 393 1045 C393.35 1046.62 393.66 1048.24 393.94 1049.88 C394.11 1050.86 394.28 1051.84 394.46 1052.86 C394.82 1054.95 395.18 1057.05 395.54 1059.14 C395.71 1060.13 395.88 1061.11 396.06 1062.12 C396.22 1063.04 396.37 1063.95 396.54 1064.88 C396.8 1066.97 396.8 1066.97 398 1068 C398.33 1069.58 398.61 1071.16 398.88 1072.75 C399.81 1078.1 400.97 1083.38 402.22 1088.66 C404.23 1097.25 405.94 1105.86 407.5 1114.54 C408.43 1119.65 408.43 1119.65 410.03 1124.58 C411.79 1128.98 412.17 1133.74 412.86 1138.41 C413.5 1142.58 414.41 1146.08 416 1150 C416.61 1152.79 417.05 1155.61 417.5 1158.44 C418.3 1163.5 419.33 1168.14 421 1173 C421.24 1174.43 421.43 1175.87 421.56 1177.31 C421.59 1180.8 421.59 1180.8 423 1182 C425.94 1205.42 422.74 1223.34 412 1244 C411.33 1245.33 410.66 1246.66 410 1248 C409.34 1248 408.68 1248 408 1248 C407.78 1248.54 407.57 1249.08 407.34 1249.64 C405.54 1252.82 403.08 1255.21 400.5 1257.75 C400 1258.26 399.5 1258.76 398.99 1259.29 C395.25 1263 395.25 1263 393 1263 C393 1263.66 393 1264.32 393 1265 C385.89 1270.04 378.21 1273.26 370 1276 C369.26 1276.35 368.52 1276.7 367.75 1277.06 C363.82 1278.4 360 1278.51 355.88 1278.69 C355.02 1278.72 354.17 1278.76 353.3 1278.8 C341.83 1279.23 333.44 1277.99 323 1273 C322.36 1272.7 321.73 1272.4 321.07 1272.1 C313.46 1268.51 306.32 1264.79 299.54 1259.77 C296.55 1257.69 293.43 1255.9 290.25 1254.12 C283.66 1250.43 277.31 1246.4 270.98 1242.28 C267.21 1239.84 263.42 1237.45 259.62 1235.06 C258.82 1234.56 258.02 1234.05 257.19 1233.53 C250.09 1229.05 242.97 1224.59 235.84 1220.15 C233.82 1218.89 231.8 1217.63 229.78 1216.37 C228.83 1215.78 228.83 1215.78 227.87 1215.17 C225.97 1213.98 224.08 1212.77 222.19 1211.56 C217.26 1208.47 212.13 1205.74 207 1203 C207 1202.34 207 1201.68 207 1201 C206.29 1200.74 205.59 1200.48 204.86 1200.22 C201.75 1198.9 199.05 1197.29 196.19 1195.5 C195.62 1195.15 195.06 1194.8 194.48 1194.44 C193.27 1193.68 192.06 1192.92 190.86 1192.17 C189.03 1191.02 187.2 1189.88 185.37 1188.74 C179.34 1184.99 173.32 1181.21 167.34 1177.39 C166.36 1176.77 165.38 1176.14 164.38 1175.5 C162.46 1174.28 160.54 1173.05 158.63 1171.82 C153.81 1168.75 148.99 1165.78 144 1163 C143.12 1162.51 142.25 1162.02 141.35 1161.52 C140.59 1161.1 139.84 1160.68 139.06 1160.25 C138.29 1159.82 137.52 1159.39 136.72 1158.95 C136.15 1158.64 135.59 1158.32 135 1158 C135 1157.34 135 1156.68 135 1156 C132.35 1154.92 129.72 1153.91 127 1153 C127 1152.34 127 1151.68 127 1151 C126.27 1150.73 125.53 1150.46 124.78 1150.18 C122.09 1149.04 119.95 1147.73 117.56 1146.06 C114.15 1143.73 110.74 1141.78 107 1140 C102.88 1137.66 98.99 1134.99 95.09 1132.3 C92.94 1130.85 92.94 1130.85 90 1130 C90 1129.34 90 1128.68 90 1128 C88.98 1127.64 88.98 1127.64 87.93 1127.27 C84.41 1125.74 81.31 1123.74 78.12 1121.62 C71.92 1117.53 65.56 1113.85 59.06 1110.25 C58.29 1109.82 57.52 1109.39 56.72 1108.95 C56.15 1108.64 55.59 1108.32 55 1108 C55 1107.34 55 1106.68 55 1106 C54.28 1105.73 53.55 1105.46 52.8 1105.18 C46.88 1102.69 41.42 1099.1 36.25 1095.31 C33.24 1093.17 30.32 1091.59 27 1090 C24.41 1088.55 22.14 1087.12 19.88 1085.19 C16.39 1082.53 12.69 1080.59 8.82 1078.56 C7.89 1078.05 6.96 1077.53 6 1077 C4.96 1076.56 3.93 1076.12 2.86 1075.67 C-0.46 1072.57 -0.45 1071.93 -0.68 1067.59 C-0.68 1065.32 -0.65 1063.06 -0.59 1060.8 C-0.58 1059.6 -0.57 1058.41 -0.56 1057.18 C-0.53 1053.37 -0.45 1049.56 -0.38 1045.75 C-0.34 1043.17 -0.32 1040.58 -0.29 1038 C-0.23 1031.67 -0.13 1025.33 0 1019 C1.32 1019 2.64 1019 4 1019 C3.92 934.4 3.84 849.81 3.76 765.21 C3.76 763.96 3.75 762.7 3.75 761.4 C3.72 734.1 3.7 706.79 3.67 679.48 C3.66 666.75 3.64 654.03 3.63 641.31 C3.63 639.29 3.63 637.27 3.62 635.25 C3.59 604.24 3.56 573.23 3.53 542.22 C3.53 541.56 3.53 540.89 3.53 540.21 C3.52 529.51 3.51 518.8 3.5 508.1 C3.46 463.12 3.42 418.13 3.37 373.15 C3.36 366.87 3.35 360.58 3.35 354.29 C3.35 353.05 3.34 351.82 3.34 350.54 C3.32 330.78 3.3 311.03 3.29 291.27 C3.27 271.31 3.25 251.35 3.23 231.39 C3.21 220.62 3.2 209.84 3.2 199.07 C3.19 187.29 3.18 175.52 3.16 163.75 C3.16 162.83 3.16 161.91 3.15 160.96 C3.12 140.47 3.02 119.99 2.73 99.5 C2.72 98.64 2.7 97.78 2.69 96.9 C2.57 88.76 2.45 80.63 2.3 72.5 C2.25 69.62 2.2 66.74 2.15 63.87 C2.11 61.91 2.07 59.96 2.03 58.01 C2.01 56.85 2 55.7 1.98 54.51 C1.96 53.51 1.94 52.51 1.92 51.48 C2 49 2 49 3 46 C2.01 46 1.02 46 0 46 C0 30.82 0 15.64 0 0 Z " fill="#FBCD01" transform="translate(0,0)"/>
<path d="M0 0 C6.2 0 9.45 2.28 13.88 6.53 C19.55 13.13 22.35 21.77 25.69 29.72 C26.04 30.55 26.39 31.37 26.75 32.23 C30.17 40.37 33.53 48.55 36.87 56.73 C41.71 68.57 46.56 80.39 51.5 92.19 C54.63 99.67 57.69 107.17 60.68 114.71 C64.66 124.72 68.79 134.66 72.9 144.61 C75.68 151.34 78.44 158.07 81.14 164.84 C83.59 171 86.12 177.13 88.69 183.25 C92.34 191.98 95.94 200.73 99.5 209.5 C102.94 217.97 106.41 226.43 109.94 234.88 C110.55 236.35 110.55 236.35 111.18 237.85 C112.02 239.87 112.87 241.89 113.71 243.91 C120.94 261.23 128.06 278.6 135.08 296.01 C143.32 316.43 151.64 336.81 160.2 357.1 C160.98 358.95 161.75 360.81 162.53 362.66 C163.88 365.9 165.25 369.14 166.62 372.38 C167.19 373.74 167.19 373.74 167.77 375.13 C169.93 380.15 171.96 384.26 176 388 C181.75 390.11 186.99 390.21 193.06 390 C197.42 389.85 201.15 389.76 205.38 390.97 C210.24 392.35 214.9 392.38 219.94 392.5 C230.55 392.74 230.55 392.74 235.22 394.04 C239.2 395.05 242.41 395.1 246.5 394.94 C252.95 394.78 258.76 395.57 265.05 396.93 C271.04 398.16 276.64 398.12 282.75 397.97 C285.47 398 287.39 398.19 289.94 399 C293.88 400.25 297.73 400.04 301.81 399.94 C306.57 399.83 310.77 399.97 315.31 401.5 C321.22 403.43 326.95 403.2 333.1 402.98 C337.7 402.85 341.45 403.27 345.86 404.52 C350.17 405.48 354.6 405.4 359 405.5 C364.9 405.64 370.26 405.94 375.94 407.54 C380.95 408.66 386.21 408.44 391.31 408.57 C395.32 408.7 398.72 408.92 402.59 410.03 C406.84 411.24 410.61 411.15 415 411 C419.36 410.85 423.12 410.75 427.35 411.97 C432.37 413.39 437.24 413.39 442.44 413.5 C453.59 413.74 453.59 413.74 458.21 415.04 C462.39 416.1 465.86 416.11 470.12 415.94 C476.95 415.78 482.87 416.69 489.52 418.34 C494.6 419.3 499.53 419.09 504.68 418.97 C507.43 419 509.36 419.18 511.94 420 C515.82 421.22 519.6 421.04 523.62 420.94 C530.3 420.79 536.13 421.74 542.64 423.35 C546.07 424.01 549.02 424.04 552.5 423.88 C561.96 423.67 570.72 426.68 578.06 432.69 C585.73 440.48 587.46 447.24 587.69 458 C587.73 459.39 587.73 459.39 587.78 460.81 C587.7 471.89 581.71 478.77 574.11 486.29 C572.88 487.48 572.88 487.48 571.62 488.69 C570.81 489.49 570 490.29 569.16 491.12 C564.86 495.34 560.46 499.4 555.9 503.34 C552.75 506.1 549.73 508.99 546.69 511.88 C528.56 528.92 528.56 528.92 521.01 529.37 C515.28 529.85 510.29 531.22 504.88 533.1 C503.49 533.56 503.49 533.56 502.07 534.04 C500.1 534.7 498.14 535.36 496.17 536.03 C491.01 537.78 485.84 539.49 480.66 541.2 C479.65 541.53 478.63 541.87 477.58 542.21 C466.27 545.93 454.86 549.12 443.34 552.12 C439.91 553.02 436.5 553.96 433.09 554.9 C380.27 569.42 326.22 580.76 272.03 588.7 C270.02 589 268.02 589.3 266.01 589.61 C183.44 602.24 99.48 607.88 16 609 C14.6 609.03 13.2 609.06 11.8 609.09 C10.45 609.11 9.1 609.13 7.75 609.14 C6.57 609.16 5.39 609.19 4.17 609.21 C0.98 609 -1.18 608.47 -4 607 C-5.23 604.53 -5.13 602.92 -5.13 600.16 C-5.13 599.13 -5.14 598.1 -5.14 597.04 C-5.14 595.9 -5.14 594.76 -5.13 593.59 C-5.14 592.38 -5.14 591.18 -5.14 589.94 C-5.15 586.59 -5.15 583.24 -5.15 579.89 C-5.15 576.28 -5.15 572.67 -5.16 569.06 C-5.16 561.98 -5.17 554.9 -5.17 547.82 C-5.17 542.07 -5.17 536.32 -5.17 530.57 C-5.18 514.28 -5.19 497.99 -5.19 481.69 C-5.19 480.82 -5.19 479.94 -5.19 479.03 C-5.19 478.15 -5.19 477.27 -5.19 476.36 C-5.18 462.1 -5.19 447.83 -5.21 433.57 C-5.22 418.93 -5.23 404.3 -5.23 389.66 C-5.23 381.44 -5.23 373.22 -5.24 364.99 C-5.25 357.99 -5.25 350.99 -5.25 343.99 C-5.24 340.42 -5.24 336.85 -5.25 333.28 C-5.26 329.41 -5.25 325.54 -5.25 321.67 C-5.25 320.53 -5.26 319.4 -5.26 318.23 C-5.26 317.19 -5.25 316.16 -5.25 315.09 C-5.25 314.2 -5.25 313.31 -5.25 312.39 C-5 310 -5 310 -4 308.01 C-2.74 305.47 -2.75 303.64 -2.76 300.82 C-2.76 299.77 -2.76 298.71 -2.76 297.63 C-2.76 296.47 -2.77 295.32 -2.78 294.13 C-2.78 292.28 -2.78 292.28 -2.78 290.4 C-2.78 286.99 -2.8 283.57 -2.81 280.16 C-2.83 276.48 -2.83 272.8 -2.83 269.12 C-2.84 262.74 -2.86 256.36 -2.88 249.99 C-2.91 240.76 -2.93 231.53 -2.94 222.3 C-2.96 207.33 -2.98 192.35 -3.01 177.37 C-3.02 176.48 -3.02 175.58 -3.02 174.65 C-3.04 164.65 -3.06 154.65 -3.09 144.64 C-3.1 141.01 -3.11 137.39 -3.12 133.76 C-3.12 132.86 -3.12 131.97 -3.12 131.05 C-3.16 116.13 -3.18 101.21 -3.2 86.29 C-3.21 77.08 -3.23 67.88 -3.27 58.67 C-3.29 52.36 -3.3 46.06 -3.3 39.75 C-3.3 36.11 -3.31 32.47 -3.33 28.83 C-3.35 24.89 -3.35 20.95 -3.35 17 C-3.36 15.85 -3.37 14.69 -3.38 13.5 C-3.37 12.45 -3.37 11.39 -3.36 10.3 C-3.37 9.39 -3.37 8.48 -3.37 7.55 C-2.92 4.47 -1.74 2.55 0 0 Z " fill="#FCD30D" transform="translate(9,49)"/>
<path d="M0 0 C1.3 4.45 1.3 4.45 0.02 6.82 C-6.01 13.21 -12.47 19.12 -19 25 C-20.31 26.18 -20.31 26.18 -21.64 27.38 C-23.25 28.83 -24.86 30.28 -26.47 31.72 C-29.33 34.3 -32.17 36.9 -35 39.5 C-41.08 45.08 -47.2 50.6 -53.35 56.1 C-58.33 60.56 -63.24 65.07 -68.12 69.62 C-72.34 73.55 -76.58 77.43 -80.95 81.2 C-83.67 83.59 -86.33 86.04 -89 88.5 C-92.26 91.5 -95.52 94.48 -98.88 97.38 C-101.98 100.06 -104.99 102.85 -107.99 105.66 C-113.67 111 -119.45 116.07 -125.54 120.95 C-128.6 123.5 -131.35 126.26 -134.12 129.11 C-136.55 131.56 -139.14 133.79 -141.75 136.04 C-144.46 138.4 -147.11 140.82 -149.75 143.25 C-150.26 143.72 -150.76 144.18 -151.29 144.66 C-152.86 146.11 -154.43 147.55 -156 149 C-167.58 159.66 -167.58 159.66 -171.88 163.38 C-175.67 166.66 -179.33 170.08 -183 173.5 C-189.52 179.58 -196.11 185.48 -203.06 191.06 C-218.3 202.54 -218.3 202.54 -230 217 C-230.24 222.07 -229.63 226.57 -228.57 231.52 C-228.43 232.23 -228.28 232.93 -228.12 233.66 C-227.65 235.9 -227.17 238.14 -226.69 240.38 C-226.06 243.3 -225.44 246.22 -224.82 249.15 C-224.67 249.89 -224.51 250.63 -224.35 251.39 C-223.34 256.22 -222.44 261.07 -221.61 265.93 C-219.56 277.91 -216.99 289.79 -214.5 301.69 C-214.01 304.04 -213.52 306.4 -213.03 308.76 C-211.13 317.85 -209.24 326.93 -207.27 336 C-206.11 341.42 -205.08 346.85 -204.12 352.31 C-203.04 358.48 -201.89 364.63 -200.6 370.76 C-200.36 371.88 -200.13 373.01 -199.89 374.16 C-199.43 376.35 -198.96 378.52 -198.49 380.7 C-196.42 390.59 -196.42 390.59 -198 395 C-201.02 397.85 -203.09 398.37 -207.19 398.37 C-208.24 398.37 -209.29 398.38 -210.37 398.38 C-211.52 398.38 -212.67 398.37 -213.85 398.36 C-215.06 398.36 -216.27 398.36 -217.52 398.36 C-220.84 398.37 -224.16 398.35 -227.48 398.34 C-230.96 398.32 -234.44 398.32 -237.91 398.32 C-243.75 398.32 -249.59 398.3 -255.43 398.28 C-262.92 398.25 -270.41 398.24 -277.9 398.24 C-284.35 398.23 -290.79 398.22 -297.24 398.21 C-299.31 398.2 -301.38 398.2 -303.44 398.2 C-307.3 398.19 -311.16 398.18 -315.02 398.16 C-316.17 398.16 -317.31 398.16 -318.49 398.16 C-319.54 398.15 -320.6 398.15 -321.68 398.14 C-323.05 398.14 -323.05 398.14 -324.44 398.13 C-327 398 -327 398 -329.44 397.5 C-332.43 396.92 -335.22 396.87 -338.27 396.86 C-340.17 396.84 -340.17 396.84 -342.1 396.83 C-343.5 396.83 -344.89 396.83 -346.29 396.83 C-347.76 396.82 -349.23 396.81 -350.71 396.81 C-353.88 396.79 -357.05 396.78 -360.22 396.77 C-365.24 396.75 -370.25 396.73 -375.27 396.71 C-389.54 396.63 -403.81 396.57 -418.08 396.52 C-425.97 396.49 -433.85 396.46 -441.73 396.42 C-446.72 396.39 -451.7 396.37 -456.68 396.36 C-459.79 396.35 -462.9 396.33 -466.01 396.31 C-467.44 396.31 -468.88 396.3 -470.31 396.3 C-477.87 396.3 -484.68 395.93 -492 394 C-494.2 393.81 -496.4 393.67 -498.61 393.62 C-499.78 393.59 -500.94 393.55 -502.14 393.52 C-503.33 393.49 -504.52 393.46 -505.75 393.44 C-508.14 393.38 -510.53 393.31 -512.92 393.25 C-513.97 393.22 -515.02 393.2 -516.1 393.17 C-519 393 -519 393 -524 392 C-524 288.38 -524 184.76 -524 78 C-495.95 77.34 -467.9 76.68 -439 76 C-419.33 74.88 -399.71 73.77 -380.08 72.24 C-377.17 72.01 -374.26 71.79 -371.35 71.57 C-348.47 69.84 -325.51 67.99 -302.82 64.52 C-298.49 63.93 -294.15 63.46 -289.8 63 C-275.48 61.47 -261.28 59.55 -247.06 57.32 C-244.87 56.98 -242.68 56.65 -240.49 56.31 C-218.19 52.92 -196.04 48.95 -173.94 44.44 C-172.83 44.21 -171.72 43.99 -170.58 43.75 C-155.35 40.64 -140.19 37.26 -125.05 33.71 C-122.94 33.22 -120.83 32.73 -118.72 32.25 C-111.91 30.7 -105.14 29.04 -98.39 27.21 C-96.95 26.83 -96.95 26.83 -95.49 26.43 C-92.41 25.61 -89.33 24.77 -86.25 23.94 C-85.2 23.65 -84.14 23.37 -83.06 23.07 C-60.47 16.95 -37.79 10.73 -15.74 2.83 C-10.29 0.89 -5.8 -0.53 0 0 Z " fill="#FCC903" transform="translate(528,582)"/>
<path d="M0 0 C-1.62 4.08 -4.54 6.81 -7.62 9.81 C-8.17 10.35 -8.71 10.88 -9.27 11.44 C-12.69 14.79 -16.19 18.01 -19.83 21.11 C-22.67 23.58 -25.43 26.13 -28.19 28.69 C-28.74 29.2 -29.29 29.71 -29.86 30.24 C-31 31.29 -32.14 32.35 -33.28 33.41 C-42.24 41.71 -51.24 49.96 -60.35 58.1 C-64.05 61.41 -67.73 64.74 -71.36 68.14 C-76.68 73.14 -81.97 78.07 -87.69 82.62 C-92.63 86.58 -97.02 90.93 -101.45 95.43 C-106.25 100.26 -111.4 104.54 -116.75 108.75 C-122.24 113.11 -127.37 117.83 -132.5 122.61 C-138.01 127.72 -143.56 132.78 -149.25 137.69 C-151.74 139.84 -154.08 142.07 -156.38 144.44 C-159.85 147.99 -163.68 150.97 -167.59 154.03 C-170.35 156.29 -172.82 158.73 -175.3 161.29 C-177.7 163.7 -180.25 165.89 -182.83 168.11 C-184.4 169.48 -185.95 170.88 -187.48 172.3 C-188.34 173.09 -189.19 173.88 -190.06 174.69 C-191.22 175.78 -191.22 175.78 -192.41 176.89 C-199.85 182.96 -205 183.57 -214.47 183.47 C-215.71 183.47 -216.95 183.47 -218.23 183.48 C-221.62 183.48 -225 183.46 -228.39 183.44 C-231.95 183.42 -235.5 183.42 -239.05 183.42 C-245.01 183.41 -250.98 183.39 -256.94 183.36 C-264.59 183.32 -272.24 183.3 -279.88 183.29 C-286.47 183.28 -293.06 183.26 -299.64 183.24 C-301.05 183.24 -302.47 183.24 -303.88 183.23 C-308.52 183.22 -313.15 183.2 -317.79 183.18 C-319.55 183.17 -319.55 183.17 -321.33 183.17 C-322.41 183.16 -323.48 183.15 -324.59 183.15 C-325.52 183.14 -326.45 183.14 -327.41 183.13 C-330 183 -330 183 -332.44 182.5 C-335.45 181.91 -338.25 181.86 -341.31 181.85 C-342.59 181.84 -343.86 181.83 -345.17 181.82 C-346.57 181.82 -347.98 181.81 -349.38 181.81 C-350.86 181.8 -352.35 181.79 -353.83 181.79 C-357.02 181.77 -360.21 181.75 -363.4 181.74 C-368.44 181.72 -373.49 181.69 -378.53 181.66 C-390.14 181.6 -401.75 181.54 -413.36 181.49 C-424 181.44 -434.65 181.38 -445.3 181.32 C-450.31 181.29 -455.33 181.27 -460.34 181.25 C-463.46 181.24 -466.57 181.22 -469.69 181.2 C-471.13 181.19 -472.58 181.19 -474.03 181.18 C-476 181.18 -477.97 181.16 -479.94 181.15 C-481.6 181.14 -481.6 181.14 -483.29 181.14 C-486 181 -486 181 -489 180 C-490.96 179.93 -492.92 179.92 -494.88 179.94 C-496.02 179.95 -497.17 179.95 -498.36 179.96 C-499.56 179.97 -500.76 179.99 -502 180 C-504.37 180.03 -506.75 180.05 -509.12 180.06 C-510.18 180.07 -511.23 180.09 -512.32 180.1 C-515 180 -515 180 -518 179 C-518 145.34 -518 111.68 -518 77 C-514.32 75.77 -510.79 75.65 -506.95 75.46 C-506.15 75.42 -505.35 75.38 -504.52 75.33 C-496.77 74.95 -489.01 74.8 -481.24 74.67 C-385.75 72.95 -289.96 64.33 -196 47 C-195.29 46.87 -194.59 46.74 -193.86 46.61 C-132.13 35.21 -71.5 20 -11.73 0.84 C-7.24 -0.54 -4.64 -1.16 0 0 Z " fill="#FBC405" transform="translate(522,587)"/>
<path d="M0 0 C0.92 -0 1.84 -0.01 2.79 -0.01 C4.33 -0.01 4.33 -0.01 5.89 -0.01 C7.49 -0.02 7.49 -0.02 9.12 -0.02 C12.68 -0.03 16.23 -0.03 19.79 -0.03 C22.25 -0.04 24.72 -0.04 27.19 -0.04 C32.37 -0.05 37.55 -0.05 42.73 -0.05 C49.36 -0.05 55.99 -0.07 62.62 -0.08 C67.72 -0.09 72.82 -0.1 77.92 -0.09 C80.36 -0.1 82.81 -0.1 85.25 -0.11 C88.68 -0.12 92.1 -0.12 95.53 -0.11 C96.54 -0.11 97.54 -0.12 98.57 -0.13 C102.95 -0.11 106.97 0.07 111.22 1.13 C116.47 2.44 121.57 2.4 126.95 2.37 C128.58 2.38 128.58 2.38 130.24 2.38 C132.58 2.38 134.92 2.38 137.27 2.38 C140.97 2.37 144.68 2.38 148.39 2.39 C158.92 2.43 169.46 2.45 179.99 2.44 C186.45 2.43 192.9 2.45 199.36 2.49 C201.82 2.49 204.27 2.49 206.73 2.48 C210.16 2.47 213.59 2.48 217.02 2.51 C218.04 2.49 219.05 2.48 220.1 2.47 C224.82 2.53 227 2.57 230.83 5.54 C232.62 7.98 233.57 9.65 234.28 12.56 C234.5 13.43 234.72 14.29 234.94 15.18 C235.27 16.58 235.27 16.58 235.6 18.01 C235.97 19.5 235.97 19.5 236.34 21.02 C237.16 24.38 237.95 27.76 238.73 31.13 C239.01 32.38 239.3 33.62 239.59 34.91 C241.11 41.51 242.59 48.11 244.07 54.72 C245.45 60.93 246.88 67.13 248.35 73.32 C248.64 74.56 248.64 74.56 248.94 75.83 C249.94 80.01 251 84.16 252.14 88.3 C255.71 101.32 258.7 114.6 253.19 127.6 C248.13 136.35 241.05 142.97 231.35 145.88 C220.69 148.5 211.75 146.77 202.34 141.09 C200.42 139.86 198.51 138.63 196.6 137.38 C194.48 136.03 192.37 134.68 190.25 133.33 C189.17 132.63 188.1 131.94 186.99 131.22 C181.76 127.88 176.49 124.6 171.23 121.32 C169.22 120.07 167.21 118.81 165.21 117.56 C164.27 116.97 163.33 116.39 162.36 115.78 C160.04 114.33 157.72 112.88 155.4 111.43 C154.75 111.02 154.1 110.61 153.44 110.2 C152.18 109.41 150.92 108.62 149.66 107.83 C146.04 105.56 142.41 103.33 138.75 101.13 C129.88 95.75 121.31 90.22 113.04 83.95 C105.67 78.36 98.1 73.79 89.96 69.44 C81.98 65.16 74.44 60.11 67.1 54.82 C62.31 51.41 57.28 48.44 52.23 45.45 C43.25 40.12 34.57 34.45 25.92 28.61 C15.46 21.57 4.97 14.86 -6.27 9.13 C-5.26 0.01 -5.26 0.01 0 0 Z " fill="#FDD40E" transform="translate(127.273681640625,1088.8662872314453)"/>
<path d="M0 0 C-0.58 3.37 -1.6 4.97 -4.06 7.31 C-5.02 8.23 -5.02 8.23 -5.99 9.16 C-8.54 11.5 -11.13 13.78 -13.75 16.04 C-16.43 18.37 -19.06 20.74 -21.69 23.12 C-22.58 23.93 -23.47 24.74 -24.39 25.57 C-26.09 27.16 -27.77 28.78 -29.41 30.44 C-32.41 33.41 -35.58 36.1 -38.81 38.81 C-43.49 42.77 -47.95 46.81 -52.22 51.21 C-54.66 53.66 -57.25 55.9 -59.87 58.15 C-62.27 60.24 -64.64 62.37 -67 64.5 C-70.04 67.24 -73.09 69.95 -76.19 72.62 C-79.34 75.37 -82.28 78.26 -85.21 81.24 C-99.33 95.15 -99.33 95.15 -109.31 95.1 C-109.95 95.09 -110.59 95.09 -111.25 95.09 C-113.41 95.08 -115.56 95.07 -117.72 95.05 C-119.26 95.05 -120.81 95.04 -122.35 95.03 C-126.55 95.02 -130.75 94.99 -134.95 94.97 C-138.45 94.94 -141.96 94.93 -145.46 94.91 C-153.74 94.86 -162.02 94.81 -170.29 94.76 C-178.82 94.7 -187.35 94.66 -195.88 94.62 C-203.21 94.59 -210.54 94.55 -217.86 94.5 C-222.24 94.47 -226.61 94.44 -230.98 94.43 C-235.1 94.41 -239.22 94.38 -243.34 94.35 C-244.85 94.34 -246.35 94.33 -247.86 94.33 C-260.73 94.29 -260.73 94.29 -266.86 92.45 C-272.31 91.3 -278.05 91.7 -283.6 91.7 C-285.07 91.69 -286.54 91.68 -288.01 91.67 C-291.16 91.65 -294.32 91.64 -297.47 91.63 C-302.46 91.62 -307.45 91.6 -312.44 91.57 C-320.32 91.53 -328.21 91.5 -336.1 91.47 C-350.23 91.42 -364.37 91.35 -378.5 91.28 C-383.46 91.26 -388.42 91.24 -393.37 91.22 C-396.46 91.21 -399.54 91.2 -402.62 91.18 C-404.05 91.18 -405.48 91.17 -406.91 91.17 C-408.86 91.17 -410.81 91.16 -412.76 91.14 C-413.85 91.14 -414.94 91.14 -416.06 91.13 C-418.82 91.01 -421.31 90.58 -424 90 C-426.27 89.9 -428.54 89.85 -430.81 89.84 C-431.47 89.84 -432.13 89.83 -432.82 89.83 C-434.25 89.82 -435.69 89.81 -437.12 89.8 C-439.4 89.79 -441.67 89.77 -443.95 89.75 C-450.41 89.69 -456.88 89.63 -463.34 89.6 C-467.3 89.58 -471.26 89.54 -475.22 89.5 C-476.73 89.48 -478.23 89.48 -479.74 89.47 C-481.85 89.47 -483.96 89.44 -486.06 89.42 C-487.26 89.41 -488.46 89.4 -489.69 89.39 C-493.42 88.95 -495.82 87.96 -499 86 C-500.94 83.09 -501.33 82.29 -501.44 79 C-501.5 77.98 -501.5 77.98 -501.56 76.94 C-501 75 -501 75 -499.18 73.41 C-494.38 71.28 -489.76 71.54 -484.56 71.52 C-483.44 71.51 -482.32 71.49 -481.17 71.48 C-477.59 71.43 -474.01 71.4 -470.44 71.38 C-466.89 71.34 -463.33 71.3 -459.78 71.25 C-457.57 71.23 -455.37 71.2 -453.16 71.19 C-447.05 71.13 -441.02 70.8 -434.93 70.25 C-430.23 69.85 -425.54 69.68 -420.83 69.5 C-418.76 69.42 -416.7 69.33 -414.63 69.25 C-411.43 69.12 -408.23 69 -405.02 68.88 C-401.9 68.75 -398.77 68.63 -395.64 68.5 C-394.69 68.46 -393.74 68.43 -392.76 68.39 C-387.45 68.18 -382.27 67.7 -377 67 C-375.4 66.89 -373.79 66.81 -372.19 66.75 C-371.35 66.72 -370.51 66.69 -369.64 66.66 C-368.77 66.63 -367.9 66.6 -367 66.56 C-359.18 66.24 -351.57 65.53 -343.82 64.46 C-340.06 64.01 -336.35 63.79 -332.56 63.62 C-320.24 63.06 -308 61.24 -295.77 59.71 C-290.65 59.07 -285.52 58.51 -280.38 58 C-255.24 55.44 -230.32 51.61 -205.43 47.41 C-203 47 -200.57 46.59 -198.13 46.19 C-172.25 41.89 -146.6 36.76 -121 31 C-120.2 30.82 -119.41 30.64 -118.59 30.46 C-82.78 22.43 -47.05 13.35 -12.2 1.81 C-11.01 1.42 -9.83 1.03 -8.61 0.63 C-7.59 0.29 -6.57 -0.05 -5.52 -0.4 C-3 -1 -3 -1 0 0 Z " fill="#FCBF07" transform="translate(508,594)"/>
<path d="M0 0 C0.33 0 0.66 0 1 0 C1 21.12 1 42.24 1 64 C0.67 64 0.34 64 0 64 C0 42.88 0 21.76 0 0 Z " fill="#FBCE01" transform="translate(1,50)"/>
<path d="M0 0 C0.66 0 1.32 0 2 0 C1.67 0.66 1.34 1.32 1 2 C0.67 1.34 0.34 0.68 0 0 Z " fill="#FBCE01" transform="translate(0,47)"/>
<path d="" fill="#FBCE01" transform="translate(0,0)"/>
<path d="M0 0 C2 1 2 1 2 1 Z " fill="#FBCE01" transform="translate(568,427)"/>
<path d="M0 0 C2 1 2 1 2 1 Z " fill="#FBCE01" transform="translate(511,422)"/>
<path d="" fill="#FBCE01" transform="translate(0,0)"/>
<path d="" fill="#FBCE01" transform="translate(0,0)"/>
<path d="" fill="#FBCE01" transform="translate(0,0)"/>
<path d="" fill="#FBCE01" transform="translate(0,0)"/>
<path d="" fill="#FBCE01" transform="translate(0,0)"/>
<path d="" fill="#FBCE01" transform="translate(0,0)"/>
<path d="" fill="#FBCE01" transform="translate(0,0)"/>
<path d="" fill="#FBCE01" transform="translate(0,0)"/>
<path d="" fill="#FBCE01" transform="translate(0,0)"/>
<path d="" fill="#FBCE01" transform="translate(0,0)"/>
<path d="" fill="#FBCE01" transform="translate(0,0)"/>
</svg>
