<?xml version="1.0" encoding="UTF-8"?>
<!-- Generator: visioncortex VTracer 0.6.3 -->
<svg version="1.1" xmlns="http://www.w3.org/2000/svg" width="640" height="1280">
<path d="M0 0 C4.95 0 9.9 0 15 0 C15 15.18 15 30.36 15 46 C14.01 46 13.02 46 12 46 C12 47.11 12 47.11 12 48.24 C12.01 99.66 11.98 151.09 11.92 202.51 C11.91 213.38 11.89 224.25 11.88 235.12 C11.86 255.16 11.84 275.2 11.81 295.24 C11.79 315.02 11.77 334.8 11.75 354.58 C11.75 356.43 11.75 356.43 11.74 358.33 C11.74 364.63 11.73 370.93 11.72 377.23 C11.67 421.59 11.62 465.96 11.57 510.32 C11.56 521.03 11.55 531.73 11.54 542.43 C11.54 543.09 11.53 543.76 11.53 544.44 C11.5 575.44 11.46 606.44 11.43 637.43 C11.43 639.45 11.42 641.47 11.42 643.49 C11.41 656.87 11.39 670.24 11.38 683.62 C11.35 710.86 11.32 738.1 11.29 765.34 C11.28 766.59 11.28 767.84 11.28 769.13 C11.19 852.42 11.09 935.71 11 1019 C11.99 1018.67 12.98 1018.34 14 1018 C15.67 1019.67 15.18 1021.7 15.22 1023.99 C15.25 1025.06 15.27 1026.12 15.29 1027.22 C15.36 1032.1 15.42 1036.99 15.46 1041.87 C15.49 1044.45 15.53 1047.03 15.58 1049.61 C15.66 1053.32 15.7 1057.02 15.72 1060.73 C15.75 1061.89 15.78 1063.04 15.82 1064.23 C15.8 1072.04 15.8 1072.04 13.49 1074.81 C11.71 1076.11 10 1077.08 8 1078 C7.1 1078.51 6.19 1079.03 5.26 1079.55 C4.41 1079.99 3.56 1080.43 2.69 1080.88 C-1.1 1082.89 -4.59 1085.05 -8.06 1087.56 C-12.2 1090.56 -16.42 1092.84 -21.07 1094.96 C-23.16 1095.85 -23.16 1095.85 -24 1098 C-26.94 1100.01 -28.39 1101 -32 1101 C-32 1101.66 -32 1102.32 -32 1103 C-37.75 1106 -37.75 1106 -40 1106 C-40 1106.66 -40 1107.32 -40 1108 C-40.69 1108.36 -41.38 1108.73 -42.09 1109.1 C-47.32 1111.9 -52.33 1114.82 -57.22 1118.17 C-61.09 1120.72 -65.04 1123.1 -69 1125.5 C-74.34 1128.74 -79.63 1132.02 -84.79 1135.54 C-103.36 1147.86 -103.36 1147.86 -112 1151 C-112 1151.66 -112 1152.32 -112 1153 C-117.75 1156 -117.75 1156 -120 1156 C-120 1156.66 -120 1157.32 -120 1158 C-121.03 1158.55 -121.03 1158.55 -122.09 1159.1 C-123.5 1159.86 -123.5 1159.86 -124.94 1160.62 C-125.85 1161.11 -126.77 1161.6 -127.71 1162.1 C-130.33 1163.61 -132.8 1165.18 -135.3 1166.86 C-139.87 1169.95 -144.56 1172.77 -149.31 1175.56 C-157.44 1180.39 -165.4 1185.43 -173.29 1190.64 C-185.35 1198.58 -185.35 1198.58 -192 1201 C-192 1201.66 -192 1202.32 -192 1203 C-192.68 1203.35 -193.36 1203.7 -194.05 1204.07 C-199.78 1207.1 -205.08 1210.39 -210.33 1214.18 C-212.88 1215.92 -215.45 1217.38 -218.18 1218.82 C-223.68 1221.78 -228.94 1225.04 -234.19 1228.44 C-236.11 1229.67 -238.03 1230.9 -239.95 1232.13 C-240.93 1232.76 -241.92 1233.4 -242.94 1234.05 C-248.13 1237.36 -253.34 1240.62 -258.56 1243.88 C-259.58 1244.51 -260.6 1245.15 -261.65 1245.81 C-267.7 1249.58 -273.78 1253.32 -279.86 1257.04 C-282.32 1258.58 -284.75 1260.14 -287.17 1261.75 C-302.34 1271.78 -302.34 1271.78 -311 1275 C-311.98 1275.38 -311.98 1275.38 -312.98 1275.76 C-318.49 1277.77 -323.53 1278.56 -329.38 1278.75 C-330.2 1278.78 -331.03 1278.82 -331.89 1278.85 C-349.19 1279.44 -363.58 1274.61 -378 1265 C-378 1264.34 -378 1263.68 -378 1263 C-378.76 1262.71 -379.53 1262.42 -380.31 1262.12 C-383 1261 -383 1261 -386 1259 C-386 1258.34 -386 1257.68 -386 1257 C-386.66 1257 -387.32 1257 -388 1257 C-388.33 1255.68 -388.66 1254.36 -389 1253 C-389.66 1253 -390.32 1253 -391 1253 C-391.66 1251.35 -392.32 1249.7 -393 1248 C-393.66 1248 -394.32 1248 -395 1248 C-395.33 1246.68 -395.66 1245.36 -396 1244 C-397.32 1243.67 -398.64 1243.34 -400 1243 C-400.06 1242.24 -400.12 1241.47 -400.19 1240.69 C-400.94 1237.28 -401.96 1234.75 -403.44 1231.62 C-411.02 1215.42 -409.33 1197.4 -408 1180 C-407.67 1180 -407.34 1180 -407 1180 C-405.38 1172.37 -404.14 1164.71 -403 1157 C-402.67 1157 -402.34 1157 -402 1157 C-401.8 1155.95 -401.8 1155.95 -401.6 1154.88 C-401.42 1153.97 -401.24 1153.06 -401.06 1152.12 C-400.89 1151.22 -400.71 1150.32 -400.54 1149.38 C-400 1147 -400 1147 -399 1145 C-398.77 1143.13 -398.59 1141.25 -398.44 1139.38 C-398.35 1138.37 -398.27 1137.37 -398.18 1136.34 C-398.09 1135.18 -398.09 1135.18 -398 1134 C-397.67 1134 -397.34 1134 -397 1134 C-396.8 1132.95 -396.8 1132.95 -396.6 1131.88 C-396.42 1130.97 -396.24 1130.06 -396.06 1129.12 C-395.89 1128.22 -395.71 1127.32 -395.54 1126.38 C-395 1124 -395 1124 -394 1122 C-394.03 1119.99 -394.07 1117.98 -394.16 1115.97 C-394 1114 -394 1114 -392 1111 C-391.62 1108.82 -391.62 1108.82 -391.5 1106.5 C-391.27 1103.02 -391.03 1102.04 -389 1099 C-388.83 1096.5 -388.83 1096.5 -389 1094 C-389 1091 -389 1091 -387 1088 C-386.55 1085.72 -386.55 1085.72 -386.38 1083.31 C-386.3 1082.5 -386.23 1081.7 -386.15 1080.86 C-386.1 1080.25 -386.05 1079.63 -386 1079 C-385.34 1079 -384.68 1079 -384 1079 C-383.94 1078.22 -383.88 1077.44 -383.82 1076.63 C-383.73 1075.62 -383.65 1074.61 -383.56 1073.56 C-383.48 1072.55 -383.4 1071.54 -383.32 1070.5 C-383 1068 -383 1068 -382 1067 C-381.76 1064.65 -381.59 1062.29 -381.44 1059.94 C-381.35 1058.65 -381.27 1057.36 -381.18 1056.03 C-381.12 1055.03 -381.06 1054.03 -381 1053 C-380.34 1053 -379.68 1053 -379 1053 C-379 1050.03 -379 1047.06 -379 1044 C-378.34 1043.67 -377.68 1043.34 -377 1043 C-376.53 1040.18 -376.53 1040.18 -376.38 1036.94 C-376.3 1035.83 -376.23 1034.73 -376.15 1033.59 C-376.1 1032.74 -376.05 1031.88 -376 1031 C-375.34 1031 -374.68 1031 -374 1031 C-374.02 1030.37 -374.05 1029.75 -374.07 1029.1 C-374.09 1028.28 -374.11 1027.47 -374.12 1026.62 C-374.15 1025.81 -374.17 1025 -374.2 1024.16 C-374 1022 -374 1022 -372 1020 C-371.69 1017.1 -371.49 1014.28 -371.38 1011.38 C-371.32 1010.17 -371.32 1010.17 -371.26 1008.95 C-371.16 1006.96 -371.08 1004.98 -371 1003 C-370.34 1004.32 -369.68 1005.64 -369 1007 C-368.67 1003.7 -368.34 1000.4 -368 997 C-367.67 997 -367.34 997 -367 997 C-366.87 996.3 -366.73 995.6 -366.6 994.88 C-366.42 993.97 -366.24 993.06 -366.06 992.12 C-365.8 990.77 -365.8 990.77 -365.54 989.38 C-365 987 -365 987 -364 985 C-363.97 982.69 -364.07 980.4 -364.16 978.09 C-364 976 -364 976 -362 974 C-361.36 971.64 -361.36 971.64 -360.94 969 C-360.09 964.18 -360.09 964.18 -359 962 C-358.77 960.13 -358.59 958.25 -358.44 956.38 C-358.31 954.87 -358.31 954.87 -358.18 953.34 C-358.12 952.57 -358.06 951.79 -358 951 C-357.67 951 -357.34 951 -357 951 C-356.67 947.04 -356.34 943.08 -356 939 C-355.34 939 -354.68 939 -354 939 C-353.67 935.37 -353.34 931.74 -353 928 C-352.67 928 -352.34 928 -352 928 C-350.96 923.38 -350.96 923.38 -352 919 C-351.01 919 -350.02 919 -349 919 C-348.94 918.22 -348.88 917.44 -348.82 916.63 C-348.69 915.11 -348.69 915.11 -348.56 913.56 C-348.48 912.55 -348.4 911.54 -348.32 910.5 C-348 908 -348 908 -347 907 C-346.72 903.93 -346.55 900.86 -346.38 897.79 C-346 895 -346 895 -344 893 C-343.76 890.79 -343.76 890.79 -343.88 888.38 C-343.89 887.56 -343.91 886.74 -343.93 885.9 C-343.95 885.27 -343.98 884.65 -344 884 C-343.34 883.67 -342.68 883.34 -342 883 C-341.53 879.95 -341.53 879.95 -341.38 876.44 C-341.3 875.24 -341.23 874.04 -341.15 872.81 C-341.1 871.88 -341.05 870.95 -341 870 C-340.34 870 -339.68 870 -339 870 C-338.67 864.72 -338.34 859.44 -338 854 C-337.67 854 -337.34 854 -337 854 C-336.67 851.69 -336.34 849.38 -336 847 C-335.34 847 -334.68 847 -334 847 C-333.67 843.7 -333.34 840.4 -333 837 C-332.67 837 -332.34 837 -332 837 C-331.67 833.04 -331.34 829.08 -331 825 C-330.34 825 -329.68 825 -329 825 C-328.18 817.99 -328.18 817.99 -330.49 811.52 C-332.79 808.9 -334.86 806.57 -338 805 C-338 804.34 -338 803.68 -338 803 C-338.59 802.74 -339.18 802.48 -339.78 802.22 C-342.85 800.53 -344.85 798.2 -347.22 795.66 C-349.05 793.95 -350.77 793.1 -353 792 C-354.13 790.6 -355.26 789.2 -356.36 787.79 C-359.21 784.68 -362.63 782.26 -365.99 779.73 C-366.65 779.16 -367.32 778.59 -368 778 C-368 777.34 -368 776.68 -368 776 C-368.99 775.67 -369.98 775.34 -371 775 C-371 774.34 -371 773.68 -371 773 C-371.66 773 -372.32 773 -373 773 C-373 772.34 -373 771.68 -373 771 C-373.56 770.77 -374.11 770.55 -374.69 770.31 C-377.62 768.65 -379.62 766.38 -382 764 C-382.99 763.67 -383.98 763.34 -385 763 C-387.69 760.56 -387.69 760.56 -390 758 C-390 757.34 -390 756.68 -390 756 C-390.99 755.67 -391.98 755.34 -393 755 C-393 754.34 -393 753.68 -393 753 C-393.58 752.73 -394.15 752.46 -394.75 752.19 C-397.06 750.97 -399.02 749.7 -401 748 C-401 747.34 -401 746.68 -401 746 C-401.74 745.77 -402.49 745.55 -403.25 745.31 C-406.58 743.72 -407.71 741.88 -410 739 C-411.99 737.39 -414.05 735.9 -416.12 734.4 C-418.3 732.78 -420.11 730.95 -422 729 C-423.86 727.44 -425.73 725.9 -427.61 724.37 C-428.07 723.92 -428.53 723.46 -429 723 C-429 722.34 -429 721.68 -429 721 C-429.66 721 -430.32 721 -431 721 C-432.69 719.35 -434.35 717.69 -436 716 C-436.66 715.67 -437.32 715.34 -438 715 C-438 714.34 -438 713.68 -438 713 C-438.66 713 -439.32 713 -440 713 C-440 712.34 -440 711.68 -440 711 C-440.99 710.67 -441.98 710.34 -443 710 C-443 709.34 -443 708.68 -443 708 C-443.58 707.73 -444.15 707.46 -444.75 707.19 C-447.06 705.97 -449.02 704.7 -451 703 C-451 702.34 -451 701.68 -451 701 C-451.99 701 -452.98 701 -454 701 C-454 700.34 -454 699.68 -454 699 C-454.66 699 -455.32 699 -456 699 C-456 698.34 -456 697.68 -456 697 C-456.99 696.67 -457.98 696.34 -459 696 C-460.71 694.38 -462.37 692.7 -464 691 C-465.22 689.75 -466.45 688.5 -467.69 687.25 C-468.27 686.66 -468.85 686.06 -469.45 685.45 C-470.96 683.9 -470.96 683.9 -473 683 C-473 682.34 -473 681.68 -473 681 C-473.7 680.81 -474.4 680.63 -475.12 680.44 C-478.55 678.73 -480.09 676.68 -482.45 673.74 C-484.63 671.29 -487.23 669.72 -490 668 C-491.87 666.38 -491.87 666.38 -493 665 C-493 664.34 -493 663.68 -493 663 C-493.59 662.74 -494.17 662.49 -494.77 662.22 C-497.19 660.89 -498.73 659.43 -500.62 657.44 C-503.05 654.86 -503.05 654.86 -506 653 C-506 652.34 -506 651.68 -506 651 C-506.99 651 -507.98 651 -509 651 C-509 650.34 -509 649.68 -509 649 C-509.66 649 -510.32 649 -511 649 C-511 648.34 -511 647.68 -511 647 C-511.66 647 -512.32 647 -513 647 C-513 646.34 -513 645.68 -513 645 C-513.66 645 -514.32 645 -515 645 C-515 644.34 -515 643.68 -515 643 C-515.59 642.74 -516.17 642.49 -516.77 642.22 C-519.19 640.89 -520.73 639.43 -522.62 637.44 C-525.05 634.86 -525.05 634.86 -528 633 C-528 632.34 -528 631.68 -528 631 C-528.68 630.84 -529.36 630.67 -530.06 630.5 C-533.03 628.99 -534.11 627.89 -536.19 625.38 C-539.63 621.22 -543.49 618.03 -547.77 614.76 C-549.67 613.26 -551.41 611.84 -553 610 C-553 609.34 -553 608.68 -553 608 C-553.64 607.73 -554.28 607.46 -554.94 607.19 C-557 606 -557 606 -558 603 C-559.32 602.31 -560.66 601.64 -562 601 C-563.85 599.31 -563.85 599.31 -565.62 597.44 C-568.05 594.86 -568.05 594.86 -571 593 C-571 592.34 -571 591.68 -571 591 C-572.65 590.34 -574.3 589.68 -576 589 C-576 588.34 -576 587.68 -576 587 C-576.99 586.67 -577.98 586.34 -579 586 C-579.56 585.3 -580.11 584.6 -580.69 583.88 C-584.25 579.45 -588.62 575.99 -592.97 572.36 C-596.08 569.75 -598.63 567.32 -601 564 C-601.99 563.34 -602.98 562.68 -604 562 C-605.02 560.79 -606 559.53 -606.94 558.25 C-607.46 557.54 -607.98 556.84 -608.51 556.11 C-609.81 554.27 -611.04 552.4 -612.25 550.5 C-612.83 549.67 -613.4 548.85 -614 548 C-614.66 548 -615.32 548 -616 548 C-616.44 546.54 -616.88 545.08 -617.31 543.62 C-617.59 542.72 -617.86 541.82 -618.14 540.89 C-618.71 538.98 -619.26 537.06 -619.8 535.14 C-620.18 533.8 -620.18 533.8 -620.56 532.44 C-620.79 531.61 -621.02 530.78 -621.25 529.93 C-621.83 527.81 -621.83 527.81 -624 527 C-625.55 520.32 -625.22 513.44 -625.25 506.62 C-625.27 505.34 -625.29 504.05 -625.31 502.72 C-625.34 495.67 -624.91 490.42 -622 484 C-621.46 481.57 -621.46 481.57 -621.31 479.5 C-621.21 478.35 -621.11 477.19 -621 476 C-620.34 476 -619.68 476 -619 476 C-618.88 475.09 -618.75 474.19 -618.62 473.25 C-618.06 470.33 -617.47 468.53 -616 466 C-615.41 464.92 -615.41 464.92 -614.81 463.81 C-607.77 452.89 -607.77 452.89 -604 451 C-603.9 450.36 -603.79 449.72 -603.69 449.06 C-603.46 448.38 -603.23 447.7 -603 447 C-601.36 446.27 -599.69 445.61 -598 445 C-596.31 443.7 -594.64 442.37 -593 441 C-591 440 -591 440 -588 439 C-588 438.34 -588 437.68 -588 437 C-586.02 436.67 -584.04 436.34 -582 436 C-582.33 435.34 -582.66 434.68 -583 434 C-578.57 432.3 -574.55 431.66 -569.86 431.34 C-569.24 431.23 -568.63 431.12 -568 431 C-567.67 430.34 -567.34 429.68 -567 429 C-561.82 427.1 -557.5 426.81 -552 427 C-552 427.33 -552 427.66 -552 428 C-550.35 428 -548.7 428 -547 428 C-547 427.67 -547 427.34 -547 427 C-546.26 426.98 -545.52 426.96 -544.75 426.94 C-541.4 426.84 -538.04 426.74 -534.69 426.62 C-533.52 426.59 -532.35 426.56 -531.15 426.53 C-530.03 426.49 -528.91 426.45 -527.76 426.41 C-526.21 426.37 -526.21 426.37 -524.64 426.32 C-521.77 426.17 -521.77 426.17 -519 424 C-516.98 423.84 -516.98 423.84 -514.75 423.94 C-510.69 424.04 -507 423.68 -503 423 C-503 422.67 -503 422.34 -503 422 C-501.97 421.98 -500.94 421.96 -499.88 421.94 C-496.05 421.86 -492.21 421.77 -488.38 421.68 C-486.72 421.64 -485.06 421.61 -483.41 421.58 C-481.02 421.53 -478.63 421.47 -476.24 421.41 C-475.14 421.4 -475.14 421.4 -474.02 421.38 C-469.63 421.25 -466.12 420.46 -462 419 C-459.3 418.68 -459.3 418.68 -456.6 418.59 C-455.63 418.55 -454.66 418.51 -453.65 418.47 C-452.15 418.42 -452.15 418.42 -450.62 418.38 C-449.6 418.34 -448.58 418.3 -447.53 418.26 C-445.02 418.16 -442.51 418.08 -440 418 C-440 417.67 -440 417.34 -440 417 C-431.75 416.67 -423.5 416.34 -415 416 C-415 415.34 -415 414.68 -415 414 C-414.01 414.02 -414.01 414.02 -413.01 414.04 C-403.64 414.12 -394.34 413.58 -385 413 C-385 412.67 -385 412.34 -385 412 C-384.33 411.97 -383.66 411.95 -382.97 411.92 C-379.92 411.81 -376.86 411.69 -373.81 411.56 C-372.76 411.52 -371.7 411.48 -370.62 411.44 C-369.59 411.4 -368.57 411.36 -367.52 411.32 C-366.58 411.28 -365.64 411.24 -364.68 411.21 C-361.23 410.94 -358.11 410.55 -355 409 C-353.33 408.85 -351.66 408.75 -349.99 408.68 C-349.01 408.64 -348.02 408.6 -347 408.56 C-345.97 408.52 -344.94 408.48 -343.88 408.44 C-342.83 408.39 -341.79 408.35 -340.72 408.31 C-338.15 408.2 -335.57 408.1 -333 408 C-333 407.67 -333 407.34 -333 407 C-332.37 406.97 -331.74 406.95 -331.09 406.92 C-328.21 406.81 -325.32 406.68 -322.44 406.56 C-321.45 406.52 -320.46 406.48 -319.44 406.44 C-310.08 406.09 -310.08 406.09 -301 404 C-299.37 403.85 -297.74 403.75 -296.11 403.68 C-295.18 403.64 -294.24 403.6 -293.27 403.56 C-291.81 403.5 -291.81 403.5 -290.31 403.44 C-289.32 403.39 -288.34 403.35 -287.32 403.31 C-284.88 403.2 -282.44 403.1 -280 403 C-280 402.67 -280 402.34 -280 402 C-279.35 401.98 -278.7 401.96 -278.03 401.94 C-275.08 401.84 -272.13 401.74 -269.19 401.62 C-267.65 401.58 -267.65 401.58 -266.08 401.53 C-265.1 401.49 -264.12 401.45 -263.11 401.41 C-261.75 401.37 -261.75 401.37 -260.36 401.32 C-257.73 401.14 -257.73 401.14 -255 399 C-252.32 398.84 -252.32 398.84 -249.12 398.94 C-242.36 399.05 -235.73 398.62 -229 398 C-229 397.67 -229 397.34 -229 397 C-228.34 396.97 -227.68 396.95 -227 396.92 C-223.98 396.81 -220.96 396.68 -217.94 396.56 C-216.9 396.52 -215.86 396.48 -214.79 396.44 C-205.65 396.42 -205.65 396.42 -197 394 C-196.34 391.47 -196.34 391.47 -196 389 C-195.34 389 -194.68 389 -194 389 C-194 387.35 -194 385.7 -194 384 C-193.34 383.67 -192.68 383.34 -192 383 C-191.34 379.97 -191.34 379.97 -191 377 C-190.34 377 -189.68 377 -189 377 C-187.4 373.49 -186.78 370.86 -187 367 C-186.01 366.67 -185.02 366.34 -184 366 C-183.88 364.76 -183.75 363.52 -183.62 362.25 C-183.24 359.12 -182.69 356.71 -181 354 C-180.34 354 -179.68 354 -179 354 C-178.88 352.76 -178.75 351.52 -178.62 350.25 C-178.24 347.12 -177.69 344.71 -176 342 C-175.34 342 -174.68 342 -174 342 C-173.86 340.74 -173.71 339.48 -173.56 338.19 C-173.15 334.58 -172.15 331.45 -171 328 C-170.34 328 -169.68 328 -169 328 C-168.88 327.07 -168.75 326.14 -168.62 325.19 C-168 322 -168 322 -166 319 C-166.33 318.34 -166.66 317.68 -167 317 C-166.34 316.34 -165.68 315.68 -165 315 C-165 314.01 -165 313.02 -165 312 C-164.01 311.34 -163.02 310.68 -162 310 C-161.63 308.01 -161.3 306.01 -161 304 C-160.34 303.67 -159.68 303.34 -159 303 C-158.77 301 -158.54 299 -158.35 297 C-157.89 294.39 -156.74 292.96 -155 291 C-154.67 290.01 -154.34 289.02 -154 288 C-153.67 287.44 -153.34 286.89 -153 286.31 C-151.54 282.93 -151.37 279.66 -151 276 C-150.34 276.99 -149.68 277.98 -149 279 C-149 277.35 -149 275.7 -149 274 C-148.34 273.67 -147.68 273.34 -147 273 C-146.34 269.97 -146.34 269.97 -146 267 C-145.34 267 -144.68 267 -144 267 C-143.67 265.68 -143.34 264.36 -143 263 C-143.66 262.67 -144.32 262.34 -145 262 C-144.34 260.35 -143.68 258.7 -143 257 C-142.34 257 -141.68 257 -141 257 C-139.23 253.46 -138.33 249.55 -137.5 245.69 C-137 244 -137 244 -135 242 C-134.67 242 -134.34 242 -134 242 C-133.88 241.09 -133.75 240.19 -133.62 239.25 C-133.08 236.41 -132.43 234.47 -131 232 C-130.34 232 -129.68 232 -129 232 C-129.09 230.67 -129.09 230.67 -129.19 229.31 C-128.98 225.63 -127.95 224.05 -126 221 C-126.33 220.34 -126.66 219.68 -127 219 C-126.01 218.67 -125.02 218.34 -124 218 C-123.88 216.93 -123.75 215.85 -123.62 214.75 C-123.1 211.62 -122.6 209.67 -121 207 C-120.34 207 -119.68 207 -119 207 C-118.67 204.36 -118.34 201.72 -118 199 C-117.67 199 -117.34 199 -117 199 C-116.67 197.02 -116.34 195.04 -116 193 C-115.34 193 -114.68 193 -114 193 C-113.9 191.76 -113.79 190.53 -113.69 189.25 C-113.25 185.64 -112.39 183.79 -110 181 C-109.41 179.05 -109.41 179.05 -109 177 C-107.43 172.39 -107.43 172.39 -105.44 170.56 C-103.33 168.27 -103.37 166.03 -103 163 C-102.41 159.99 -102.23 159.23 -100 157 C-99.32 155.67 -98.65 154.34 -98 153 C-97.67 152.67 -97.34 152.34 -97 152 C-96.86 150.87 -96.71 149.73 -96.56 148.56 C-96 145 -96 145 -94 143 C-93.65 141.34 -93.32 139.67 -93 138 C-91.94 135.69 -91.94 135.69 -91 134 C-90.34 134 -89.68 134 -89 134 C-88.95 133.37 -88.9 132.75 -88.85 132.1 C-88.78 131.28 -88.7 130.47 -88.62 129.62 C-88.52 128.41 -88.52 128.41 -88.41 127.16 C-88 125 -88 125 -86 123 C-85.3 121.35 -84.64 119.68 -84 118 C-83.65 117.36 -83.3 116.72 -82.94 116.06 C-81.74 113.42 -81.39 110.86 -81 108 C-80.34 108 -79.68 108 -79 108 C-78.94 107.36 -78.88 106.72 -78.82 106.07 C-78.73 105.24 -78.65 104.41 -78.56 103.56 C-78.48 102.74 -78.4 101.92 -78.32 101.07 C-78 99 -78 99 -77 98 C-75.51 97.5 -75.51 97.5 -74 97 C-73.67 94.36 -73.34 91.72 -73 89 C-72.67 89 -72.34 89 -72 89 C-71.67 86.69 -71.34 84.38 -71 82 C-70.34 82.33 -69.68 82.66 -69 83 C-68.86 82.07 -68.71 81.14 -68.56 80.19 C-67.9 76.43 -67.13 74.19 -65 71 C-64.12 68.05 -63.59 65.02 -63 62 C-62.34 62 -61.68 62 -61 62 C-60.67 61.01 -60.34 60.02 -60 59 C-59.37 57.73 -58.7 56.48 -58 55.25 C-56.79 52.53 -56.4 49.94 -56 47 C-55.34 47 -54.68 47 -54 47 C-53.88 46.09 -53.75 45.19 -53.62 44.25 C-53.08 41.41 -52.43 39.47 -51 37 C-50.01 37 -49.02 37 -48 37 C-48.33 36.01 -48.66 35.02 -49 34 C-47.78 29.04 -44.54 26.13 -41 22.69 C-40.45 22.14 -39.91 21.59 -39.34 21.02 C-35.27 17 -35.27 17 -33 17 C-32.67 16.01 -32.34 15.02 -32 14 C-30.51 13.5 -30.51 13.5 -29 13 C-28.3 12.38 -27.6 11.76 -26.88 11.12 C-23.17 8.39 -19.39 7.26 -15 6 C-15 5.34 -15 4.68 -15 4 C-12.69 3.67 -10.38 3.34 -8 3 C-8 2.67 -8 2.34 -8 2 C-6.87 1.86 -5.73 1.71 -4.56 1.56 C-1.19 1.39 -1.19 1.39 0 0 Z M-47 31 C-46 33 -46 33 -46 33 Z M-62 63 C-61 66 -61 66 -61 66 Z M-107 173 C-106 176 -106 176 -106 176 Z M-112 186 C-111 188 -111 188 -111 188 Z M-142 258 C-141 262 -141 262 -141 262 Z M-157 296 C-156 298 -156 298 -156 298 Z M-602 448 C-601.67 448.66 -601.34 449.32 -601 450 C-600.67 449.34 -600.34 448.68 -600 448 C-600.66 448 -601.32 448 -602 448 Z " fill="#FBCD01" transform="translate(625,0)"/>
<path d="M0 0 C2.69 2.69 2.93 4.7 3.12 8.44 C3.12 9.36 3.12 10.28 3.12 11.23 C3.12 12.29 3.12 13.35 3.12 14.45 C3.12 15.62 3.12 16.79 3.11 17.99 C3.11 19.23 3.11 20.47 3.11 21.75 C3.11 25.2 3.11 28.64 3.1 32.09 C3.1 35.81 3.09 39.53 3.09 43.24 C3.09 49.69 3.08 56.13 3.08 62.57 C3.06 71.89 3.06 81.21 3.05 90.53 C3.05 105.66 3.03 120.78 3.02 135.91 C3.02 136.82 3.02 137.72 3.02 138.65 C3.01 146 3 153.35 3 160.7 C2.99 167.12 2.99 173.54 2.98 179.96 C2.98 180.86 2.98 181.77 2.98 182.7 C2.96 197.77 2.95 212.84 2.95 227.91 C2.94 237.2 2.93 246.5 2.92 255.8 C2.91 262.17 2.91 268.54 2.91 274.91 C2.9 278.58 2.9 282.26 2.89 285.94 C2.89 289.92 2.89 293.9 2.89 297.88 C2.88 299.05 2.88 300.22 2.88 301.42 C2.88 302.48 2.88 303.55 2.88 304.65 C2.88 305.57 2.88 306.49 2.88 307.43 C3 310.05 3.48 312.44 4 315 C4.09 316.7 4.13 318.41 4.13 320.11 C4.13 321.64 4.13 321.64 4.14 323.19 C4.14 324.29 4.14 325.4 4.13 326.54 C4.14 328.31 4.14 328.31 4.14 330.12 C4.15 333.39 4.15 336.67 4.15 339.94 C4.15 343.47 4.15 347 4.16 350.54 C4.16 357.46 4.17 364.37 4.17 371.29 C4.17 376.92 4.17 382.54 4.17 388.16 C4.18 404.1 4.19 420.04 4.19 435.97 C4.19 437.26 4.19 437.26 4.19 438.58 C4.19 439.87 4.19 439.87 4.19 441.18 C4.18 455.13 4.19 469.08 4.21 483.03 C4.22 497.35 4.23 511.66 4.23 525.98 C4.23 534.02 4.23 542.06 4.24 550.1 C4.25 556.95 4.25 563.79 4.25 570.63 C4.24 574.13 4.24 577.62 4.25 581.11 C4.26 584.89 4.25 588.68 4.25 592.46 C4.25 593.57 4.26 594.67 4.26 595.81 C4.26 596.83 4.25 597.84 4.25 598.89 C4.25 600.2 4.25 600.2 4.25 601.53 C3.97 604.31 3.14 606.47 2 609 C-14.11 609.16 -30.21 608.69 -46.31 608.19 C-47.02 608.17 -47.73 608.14 -48.46 608.12 C-130.8 605.57 -212.67 598.31 -294 585 C-294.76 584.88 -295.51 584.75 -296.29 584.63 C-367.7 573.03 -440.54 556.96 -508.55 531.97 C-513.56 530.2 -518.21 529.59 -523.52 529.35 C-528.03 528.71 -530.75 526.02 -534 523 C-534.95 522.14 -535.9 521.29 -536.88 520.4 C-538.97 518.51 -541.04 516.6 -543.11 514.68 C-545.47 512.49 -547.87 510.35 -550.31 508.25 C-553.43 505.55 -556.33 502.69 -559.23 499.75 C-563.04 495.99 -567.14 492.54 -571.26 489.13 C-578.17 483.3 -586.25 475.36 -587.22 465.88 C-587.34 463.33 -587.37 460.8 -587.38 458.25 C-587.4 457.39 -587.42 456.54 -587.45 455.66 C-587.49 446.52 -584.24 439.45 -578.05 432.79 C-569.85 425.64 -560.03 423.71 -549.48 424.12 C-546.63 424.02 -544.47 423.7 -541.75 423.03 C-535.78 421.6 -529.84 421.58 -523.73 421.43 C-519.6 421.29 -515.79 421.06 -511.79 419.96 C-507.92 418.98 -504.85 418.89 -500.88 419.06 C-495.67 419.15 -491.18 418.75 -486.12 417.5 C-479.96 415.99 -474.33 415.76 -468.04 416.02 C-463.78 416.16 -460.36 415.63 -456.22 414.48 C-450.74 413.3 -444.98 413.56 -439.4 413.43 C-433.88 413.27 -429.33 412.54 -424 411 C-420.25 410.77 -416.51 410.95 -412.76 411.08 C-408.21 411.17 -404.43 410.71 -400.05 409.48 C-396.27 408.6 -392.43 408.61 -388.56 408.5 C-382.85 408.34 -377.67 407.77 -372.11 406.42 C-369 405.8 -366.03 405.92 -362.88 406.06 C-357.56 406.15 -352.93 405.7 -347.75 404.5 C-340.94 402.96 -334.57 402.77 -327.61 403.02 C-322.62 403.17 -318.83 402.39 -314 401 C-309.59 400.58 -305.16 400.54 -300.74 400.43 C-295.47 400.26 -291.09 399.5 -286 398 C-283.69 397.94 -281.37 397.96 -279.06 398.06 C-273.47 398.16 -268.52 397.68 -263.06 396.5 C-256.16 395.01 -249.77 394.81 -242.72 395.09 C-239.29 395.01 -236.5 394.39 -233.21 393.48 C-227.94 392.34 -222.42 392.56 -217.04 392.43 C-211.65 392.26 -207.21 391.49 -202 390 C-198.25 389.77 -194.51 389.95 -190.76 390.08 C-184.22 390.21 -178.42 390.19 -173.32 385.57 C-170.07 381.08 -168.03 375.89 -165.88 370.81 C-165.4 369.72 -164.93 368.62 -164.44 367.49 C-160.05 357.27 -155.86 346.97 -151.7 336.65 C-149.12 330.27 -146.47 323.91 -143.81 317.56 C-140.61 309.9 -137.46 302.22 -134.39 294.5 C-131.09 286.19 -127.73 277.89 -124.38 269.6 C-123.72 267.98 -123.06 266.35 -122.41 264.73 C-118.82 255.84 -115.17 246.99 -111.38 238.19 C-109.27 233.31 -107.23 228.41 -105.19 223.5 C-104.76 222.48 -104.33 221.45 -103.89 220.39 C-100.7 212.71 -97.54 205.01 -94.4 197.31 C-91.19 189.43 -87.92 181.58 -84.62 173.73 C-82.15 167.82 -79.75 161.89 -77.38 155.94 C-74.03 147.54 -70.56 139.19 -67.1 130.83 C-63.46 122.02 -59.86 113.19 -56.33 104.32 C-54.62 100.04 -52.88 95.77 -51.12 91.5 C-50.76 90.62 -50.4 89.74 -50.03 88.84 C-49.19 86.78 -48.35 84.73 -47.51 82.68 C-46.06 79.15 -44.61 75.61 -43.17 72.08 C-41.77 68.68 -40.38 65.28 -38.99 61.87 C-38.3 60.2 -37.61 58.52 -36.93 56.85 C-33.22 47.78 -29.48 38.74 -25.69 29.71 C-25.36 28.94 -25.03 28.16 -24.7 27.36 C-12.75 -0.96 -12.75 -0.96 0 0 Z " fill="#FDD40E" transform="translate(631,49)"/>
<path d="M0 0 C0.97 0.17 1.94 0.34 2.94 0.51 C10.35 2.21 17.55 4.66 24.78 7.01 C73.81 22.96 124.24 34.92 174.81 44.81 C175.9 45.03 177 45.24 178.12 45.46 C193.06 48.38 193.06 48.38 208.08 50.82 C212.47 51.47 216.86 52.18 221.24 52.9 C247.37 57.13 273.48 61.28 299.85 63.59 C306.51 64.19 313.12 65.01 319.75 65.88 C327.7 66.91 335.6 67.72 343.61 68.1 C347.71 68.33 351.79 68.67 355.88 69.01 C362.38 69.56 368.89 70.06 375.4 70.56 C377.01 70.68 378.61 70.81 380.22 70.93 C424.92 74.46 469.59 75.16 514.44 76.31 C514.44 136.37 514.44 196.43 514.44 258.31 C514.11 258.31 513.78 258.31 513.44 258.31 C513.43 259.81 513.43 259.81 513.43 261.33 C513.39 270.7 513.33 280.08 513.25 289.45 C513.21 294.27 513.18 299.09 513.17 303.91 C513.15 308.56 513.12 313.2 513.07 317.85 C513.05 319.63 513.05 321.4 513.05 323.18 C513.04 325.66 513.02 328.15 512.98 330.63 C512.99 331.37 512.99 332.1 513 332.86 C512.93 336.05 512.87 337.84 510.65 340.23 C506.89 342.07 503.57 342.44 499.4 342.46 C497.88 342.48 497.88 342.48 496.33 342.49 C495.22 342.49 494.11 342.5 492.97 342.5 C491.8 342.51 490.63 342.52 489.42 342.53 C486.21 342.55 483 342.57 479.8 342.58 C476.43 342.6 473.07 342.63 469.71 342.65 C461.16 342.71 452.61 342.76 444.06 342.81 C434.84 342.87 425.62 342.92 416.39 342.99 C411.75 343.02 407.11 343.05 402.46 343.07 C400.03 343.09 397.6 343.11 395.16 343.12 C394.06 343.13 392.96 343.13 391.82 343.14 C390.8 343.14 389.78 343.15 388.73 343.16 C387.84 343.17 386.96 343.17 386.05 343.18 C383.37 343.26 383.37 343.26 380.5 343.81 C377.31 344.33 374.32 344.44 371.09 344.45 C369.83 344.46 368.58 344.46 367.28 344.47 C365.9 344.47 364.52 344.47 363.15 344.47 C361.68 344.47 360.22 344.48 358.76 344.49 C355.62 344.5 352.47 344.51 349.33 344.51 C344.35 344.52 339.38 344.54 334.4 344.56 C320.25 344.63 306.1 344.68 291.95 344.71 C284.13 344.73 276.31 344.76 268.49 344.8 C264.36 344.82 260.22 344.84 256.09 344.84 C252.2 344.84 248.31 344.86 244.42 344.89 C243 344.89 241.58 344.89 240.16 344.89 C232.85 344.88 226.36 345.16 219.44 347.63 C216.65 348.58 214.06 348.71 211.12 348.69 C210.16 348.7 209.19 348.7 208.2 348.71 C204.68 348.2 201.97 346.84 199.44 344.31 C199.12 338.81 199.97 333.99 201.2 328.68 C201.38 327.86 201.56 327.04 201.75 326.19 C202.15 324.43 202.54 322.68 202.94 320.92 C203.78 317.22 204.6 313.52 205.43 309.82 C205.84 307.95 206.26 306.09 206.68 304.22 C210.67 286.35 214.41 268.51 217.03 250.38 C218.08 243.22 219.42 236.19 221.22 229.18 C222.72 223.1 223.7 216.94 220.94 211.19 C218.41 208.28 215.79 205.84 212.84 203.36 C210.52 201.38 208.28 199.33 206.05 197.25 C201.42 192.94 196.69 188.87 191.64 185.05 C187.38 181.7 183.44 177.97 179.44 174.31 C177.73 172.77 176.02 171.23 174.31 169.69 C173.48 168.94 172.64 168.18 171.79 167.41 C169.79 165.63 167.78 163.87 165.75 162.12 C161.03 158.02 156.5 153.71 151.93 149.43 C148.16 145.91 144.36 142.44 140.45 139.07 C137.8 136.75 135.21 134.38 132.62 132 C132.11 131.53 131.6 131.06 131.07 130.57 C128.58 128.29 126.09 125.99 123.61 123.7 C119.28 119.72 114.92 115.85 110.31 112.19 C102.97 106.27 96.25 99.67 89.41 93.18 C83.91 87.98 78.28 82.9 72.56 77.94 C67.31 73.37 62.23 68.6 57.12 63.87 C48.46 55.83 48.46 55.83 39.62 48 C34.94 43.94 30.45 39.67 25.93 35.43 C22.19 31.93 18.41 28.49 14.53 25.15 C-6.89 6.33 -6.89 6.33 -8.56 1.31 C-4.94 -1.1 -4.15 -0.76 0 0 Z " fill="#FBC606" transform="translate(121.5625,583.6875)"/>
<path d="M0 0 C1.64 -0 1.64 -0 3.31 -0 C6.9 0 10.49 0.02 14.08 0.03 C16.57 0.04 19.07 0.04 21.57 0.04 C27.46 0.05 33.34 0.06 39.23 0.08 C46.59 0.11 53.96 0.12 61.32 0.13 C74.45 0.15 87.57 0.18 100.7 0.23 C102.7 4.96 102.7 4.96 102.71 7.33 C101.12 10.3 98.38 11.22 95.45 12.6 C88.74 15.96 82.53 19.84 76.32 24.04 C75.42 24.65 74.53 25.25 73.6 25.88 C71.81 27.09 70.02 28.3 68.23 29.52 C57.46 36.79 46.44 43.65 35.37 50.45 C30.09 53.71 24.89 57.06 19.76 60.54 C14.53 64.09 9.19 67.31 3.68 70.41 C-3.64 74.52 -10.63 78.94 -17.34 83.98 C-27.25 91.41 -37.71 97.82 -48.3 104.23 C-51.39 106.1 -54.47 107.97 -57.55 109.85 C-58.29 110.3 -59.03 110.75 -59.79 111.21 C-65.44 114.66 -70.99 118.25 -76.53 121.88 C-83.74 126.57 -91.1 131.01 -98.46 135.46 C-104.14 138.88 -104.14 138.88 -109.68 142.53 C-116.04 146.64 -123.81 148.3 -131.3 147.23 C-143.4 144.39 -150.3 139.58 -156.86 129.11 C-163.55 115.78 -160.34 101.03 -156.68 87.35 C-156.31 85.9 -155.94 84.45 -155.57 83 C-154.83 80.1 -154.09 77.2 -153.34 74.29 C-151.88 68.63 -150.59 62.93 -149.3 57.23 C-147.12 47.71 -144.91 38.2 -142.65 28.71 C-142.3 27.24 -141.95 25.76 -141.6 24.29 C-141.12 22.23 -140.63 20.18 -140.14 18.12 C-139.85 16.93 -139.57 15.75 -139.28 14.52 C-137.82 9.61 -136.64 6.12 -132.3 3.23 C-130.21 2.97 -130.21 2.97 -127.75 2.96 C-126.35 2.95 -126.35 2.95 -124.92 2.94 C-123.39 2.94 -123.39 2.94 -121.82 2.94 C-120.75 2.93 -119.67 2.93 -118.56 2.92 C-116.21 2.91 -113.86 2.9 -111.52 2.89 C-107.8 2.88 -104.09 2.86 -100.37 2.84 C-92.47 2.79 -84.58 2.76 -76.68 2.73 C-67.55 2.69 -58.42 2.65 -49.28 2.59 C-45.63 2.57 -41.98 2.56 -38.32 2.55 C-36.07 2.54 -33.81 2.53 -31.56 2.51 C-30.55 2.52 -29.54 2.52 -28.5 2.52 C-24.11 2.48 -20.07 2.29 -15.81 1.22 C-10.53 -0.09 -5.41 -0.04 0 0 Z " fill="#FDD40E" transform="translate(417.302978515625,1088.77294921875)"/>
<path d="M0 0 C6.62 -0.25 6.62 -0.25 10 2 C9.05 1.96 8.1 1.92 7.12 1.88 C3.9 1.65 3.9 1.65 2 4 C8.41 11.54 15.17 18.5 22.68 24.96 C25.62 27.55 28.5 30.21 31.38 32.88 C35.23 36.44 39.09 40 43 43.5 C46.91 47 50.77 50.56 54.62 54.12 C58 57.26 61.38 60.37 64.88 63.38 C68.8 66.76 72.54 70.32 76.31 73.88 C80.67 77.98 85.06 81.95 89.75 85.69 C94.68 89.62 99.06 93.96 103.46 98.45 C106.83 101.83 110.37 104.92 114 108 C123.14 115.85 132.17 123.8 141 132 C143.25 134.08 145.5 136.17 147.75 138.25 C148.3 138.76 148.86 139.27 149.43 139.8 C152.86 142.97 156.34 146.06 159.87 149.12 C162.65 151.57 165.35 154.1 168.06 156.62 C173.43 161.61 178.91 166.43 184.47 171.2 C188.51 174.68 192.47 178.24 196.38 181.88 C199.58 184.85 202.81 187.7 206.31 190.31 C211.45 194.17 216.04 198.61 220.68 203.03 C223.34 205.54 225.93 207.94 228.83 210.18 C231.11 212.09 231.88 213.29 233 216 C233.61 223.91 231.91 231.12 230.19 238.81 C228.38 246.96 226.81 255.04 225.64 263.3 C223.86 275.8 221.16 288.1 218.5 300.44 C218.01 302.74 217.52 305.05 217.03 307.35 C214.94 317.14 212.85 326.92 210.51 336.65 C209.78 340.03 209.4 342.57 210 346 C213.57 348.72 216.24 349.41 220.69 349.38 C221.64 349.38 222.59 349.39 223.57 349.4 C226.53 349.06 228.54 348.49 231.29 347.5 C238.07 345.44 244.78 345.57 251.81 345.58 C253.28 345.58 254.75 345.57 256.22 345.56 C260.18 345.53 264.14 345.53 268.11 345.53 C272.26 345.52 276.42 345.5 280.58 345.48 C288.45 345.44 296.32 345.41 304.19 345.4 C318.29 345.36 332.39 345.3 346.49 345.24 C351.43 345.22 356.38 345.2 361.32 345.19 C364.39 345.19 367.47 345.18 370.54 345.16 C371.97 345.16 373.39 345.16 374.81 345.16 C376.76 345.15 378.71 345.15 380.65 345.14 C382.28 345.13 382.28 345.13 383.95 345.13 C387.04 345 389.95 344.52 393 344 C394.75 343.91 396.51 343.87 398.27 343.86 C399.28 343.86 400.3 343.85 401.35 343.85 C403 343.84 403 343.84 404.68 343.84 C405.85 343.84 407.02 343.83 408.22 343.83 C410.76 343.82 413.29 343.81 415.83 343.8 C419.84 343.79 423.86 343.77 427.87 343.75 C439.28 343.69 450.69 343.63 462.1 343.6 C468.41 343.58 474.72 343.55 481.03 343.51 C484.37 343.49 487.7 343.48 491.03 343.47 C494.75 343.47 498.47 343.44 502.19 343.42 C503.84 343.42 503.84 343.42 505.52 343.43 C506.54 343.41 507.56 343.4 508.6 343.39 C509.48 343.39 510.36 343.39 511.27 343.38 C514.83 343.01 514.83 343.01 521 340 C521.33 313.27 521.66 286.54 522 259 C522.66 259.33 523.32 259.66 524 260 C524 303.89 524 347.78 524 393 C513.11 393.33 502.22 393.66 491 394 C488.36 394.66 485.72 395.32 483 396 C479.67 396.26 479.67 396.26 476.33 396.27 C475.06 396.28 473.78 396.29 472.47 396.3 C471.08 396.3 469.68 396.3 468.29 396.3 C466.81 396.31 465.33 396.32 463.85 396.33 C460.67 396.35 457.49 396.36 454.31 396.37 C449.29 396.38 444.26 396.4 439.23 396.43 C431.29 396.47 423.34 396.5 415.4 396.53 C401.16 396.58 386.92 396.65 372.67 396.72 C367.68 396.74 362.68 396.76 357.69 396.78 C354.58 396.79 351.48 396.8 348.37 396.82 C346.93 396.82 345.49 396.83 344.05 396.83 C342.09 396.83 340.12 396.84 338.16 396.86 C337.06 396.86 335.96 396.86 334.83 396.87 C332.35 396.98 330.38 397.39 328 398 C326.26 398.1 324.51 398.14 322.77 398.15 C321.71 398.16 320.65 398.17 319.56 398.18 C318.41 398.18 317.25 398.19 316.06 398.19 C314.84 398.2 313.62 398.21 312.36 398.22 C308.31 398.24 304.27 398.26 300.22 398.27 C298.83 398.28 297.43 398.28 296.04 398.29 C290.24 398.31 284.44 398.33 278.65 398.34 C270.34 398.36 262.04 398.39 253.73 398.45 C247.89 398.49 242.05 398.51 236.21 398.51 C232.72 398.51 229.23 398.53 225.74 398.56 C221.85 398.59 217.96 398.59 214.07 398.58 C212.92 398.6 211.76 398.62 210.57 398.63 C202.81 398.57 202.81 398.57 198.74 395.69 C196.73 392.58 196.75 390.89 197.46 387.3 C197.64 386.54 197.82 385.78 198 385 C198.34 383.25 198.68 381.49 199.02 379.73 C199.43 377.74 199.84 375.74 200.25 373.75 C201.84 365.98 203.34 358.2 204.68 350.38 C207.1 336.31 210 322.39 213.03 308.45 C215.78 295.79 218.41 283.13 220.82 270.4 C222.14 263.44 223.5 256.5 224.92 249.56 C225.25 247.95 225.58 246.34 225.91 244.74 C226.38 242.39 226.86 240.05 227.35 237.71 C227.8 235.56 228.24 233.4 228.68 231.25 C229.06 229.4 229.06 229.4 229.45 227.52 C230.22 222.57 230.77 218.54 228.5 214 C225.99 210.99 223.39 208.56 220.4 206.05 C217.57 203.63 214.85 201.1 212.12 198.56 C208.56 195.26 204.96 192.11 201.12 189.12 C195.53 184.75 190.42 179.89 185.24 175.03 C182.87 172.8 180.47 170.62 178 168.5 C173.6 164.71 169.38 160.72 165.13 156.76 C162.13 153.96 159.11 151.18 156 148.5 C152.24 145.26 148.63 141.88 145 138.5 C140.72 134.51 136.42 130.56 131.99 126.74 C129.46 124.53 126.98 122.26 124.5 120 C121.34 117.12 118.17 114.25 114.94 111.44 C107.79 105.22 100.8 98.83 93.88 92.38 C89.61 88.4 85.33 84.48 80.92 80.67 C77.72 77.89 74.59 75.03 71.45 72.19 C69.28 70.25 67.08 68.34 64.88 66.44 C61.42 63.43 58.21 60.23 54.99 56.96 C52.46 54.47 49.81 52.15 47.12 49.83 C39.95 43.63 33 37.18 26.02 30.77 C16.92 22.4 16.92 22.4 7.62 14.25 C4.33 11.36 1.46 8.65 -1 5 C-0.81 2.12 -0.81 2.12 0 0 Z " fill="#FCCB06" transform="translate(112,582)"/>
<path d="M0 0 C2.38 0.32 2.38 0.32 5.35 1.13 C6.98 1.57 6.98 1.57 8.64 2.02 C13.94 3.56 19.19 5.24 24.44 6.94 C43.15 12.86 62.14 17.78 81.12 22.73 C84.93 23.72 88.73 24.73 92.53 25.75 C113.23 31.21 134.32 35.19 155.28 39.45 C157.72 39.94 160.16 40.44 162.6 40.94 C182.43 44.98 202.36 48.24 222.36 51.29 C226.06 51.85 229.75 52.43 233.44 53.02 C251.86 55.94 270.29 58.32 288.82 60.33 C293.31 60.81 297.8 61.32 302.29 61.84 C314.69 63.28 327.07 64.48 339.52 65.35 C343.57 65.64 347.56 65.94 351.58 66.52 C356.19 67.17 360.79 67.32 365.44 67.5 C367.25 67.57 369.06 67.64 370.87 67.72 C371.66 67.75 372.46 67.78 373.28 67.81 C375.41 67.96 377.54 68.2 379.66 68.49 C384.64 69.13 389.62 69.31 394.64 69.5 C395.64 69.54 396.65 69.58 397.68 69.62 C400.87 69.75 404.06 69.88 407.25 70 C410.43 70.12 413.6 70.25 416.78 70.38 C418.74 70.46 420.71 70.53 422.68 70.61 C427.44 70.8 432.18 71.09 436.93 71.52 C443.08 72.05 449.2 72.17 455.37 72.21 C457.68 72.24 459.99 72.27 462.29 72.3 C465.89 72.34 469.47 72.38 473.07 72.4 C476.56 72.43 480.06 72.47 483.56 72.52 C484.63 72.53 485.71 72.53 486.81 72.53 C496.48 72.69 496.48 72.69 500 76 C500.52 79.25 500.76 80.93 500 84 C497.47 87.22 495.89 88.7 492 90 C489.84 90.11 487.68 90.17 485.51 90.19 C484.86 90.2 484.2 90.21 483.53 90.21 C482.11 90.23 480.69 90.25 479.27 90.26 C477.02 90.28 474.77 90.31 472.53 90.34 C467.75 90.4 462.97 90.45 458.19 90.5 C452.66 90.56 447.13 90.62 441.6 90.69 C439.39 90.72 437.18 90.74 434.97 90.76 C433.61 90.78 432.24 90.79 430.88 90.81 C429.69 90.82 428.5 90.84 427.28 90.85 C424.06 90.93 424.06 90.93 421.19 91.5 C417.95 92.01 414.92 92.13 411.64 92.14 C410.38 92.15 409.12 92.16 407.82 92.17 C406.44 92.17 405.06 92.17 403.68 92.17 C402.21 92.18 400.74 92.19 399.28 92.19 C396.13 92.21 392.98 92.22 389.83 92.23 C384.85 92.25 379.86 92.27 374.88 92.29 C360.7 92.37 346.53 92.43 332.36 92.48 C324.53 92.51 316.7 92.54 308.86 92.58 C303.91 92.61 298.96 92.63 294.01 92.64 C290.93 92.65 287.84 92.67 284.76 92.69 C283.33 92.69 281.9 92.7 280.48 92.7 C272.17 92.55 272.17 92.55 264.05 93.99 C257.81 95.84 251.1 95.37 244.64 95.43 C243.09 95.45 241.53 95.47 239.98 95.49 C235.78 95.55 231.58 95.6 227.38 95.64 C224.75 95.66 222.12 95.69 219.49 95.71 C211.26 95.8 203.03 95.88 194.79 95.94 C185.31 96.02 175.82 96.12 166.34 96.25 C158.99 96.35 151.65 96.42 144.3 96.47 C139.92 96.5 135.53 96.54 131.15 96.62 C127.03 96.68 122.91 96.71 118.79 96.72 C117.28 96.73 115.77 96.75 114.27 96.78 C106.07 96.96 100.07 96.65 93.8 90.84 C92.91 89.93 92.91 89.93 92 89 C90.73 87.85 89.47 86.71 88.19 85.57 C86.98 84.43 85.77 83.28 84.56 82.12 C83.26 80.9 81.96 79.67 80.66 78.44 C80.03 77.85 79.41 77.26 78.77 76.66 C73.72 71.92 68.55 67.33 63.31 62.81 C59.4 59.41 55.65 55.86 51.88 52.31 C46.27 47.04 40.55 41.94 34.66 37 C31.27 34.14 28.12 31.16 25 28 C22.62 25.73 20.22 23.49 17.81 21.25 C17.15 20.64 16.5 20.02 15.82 19.39 C11.23 15.11 6.58 10.91 1.86 6.77 C0 5 0 5 -2 2 C-1.34 1.34 -0.68 0.68 0 0 Z " fill="#FCBF07" transform="translate(133,593)"/>
<path d="M0 0 C3.8 1.49 5.61 3.76 8 7 C7.67 7.66 7.34 8.32 7 9 C6.34 8.67 5.68 8.34 5 8 C5 7.34 5 6.68 5 6 C4.36 5.75 3.72 5.5 3.06 5.25 C1 4 1 4 0.25 1.88 C0.17 1.26 0.08 0.64 0 0 Z " fill="#FCCB06" transform="translate(67,602)"/>
<path d="M0 0 C0.33 0 0.66 0 1 0 C1 2.64 1 5.28 1 8 C0.67 8 0.34 8 0 8 C0 5.36 0 2.72 0 0 Z " fill="#FBCE01" transform="translate(214,1195)"/>
<path d="M0 0 C0.33 0 0.66 0 1 0 C1 2.31 1 4.62 1 7 C0.67 7 0.34 7 0 7 C0 4.69 0 2.38 0 0 Z " fill="#FBCE01" transform="translate(234,1094)"/>
<path d="M0 0 C2.31 0 4.62 0 7 0 C7 0.33 7 0.66 7 1 C4.69 1 2.38 1 0 1 C0 0.67 0 0.34 0 0 Z " fill="#FBCE01" transform="translate(150,419)"/>
<path d="M0 0 C1 4 1 4 1 4 Z " fill="#FBCE01" transform="translate(247,1036)"/>
<path d="" fill="#FBCE01" transform="translate(0,0)"/>
<path d="" fill="#FBCE01" transform="translate(0,0)"/>
<path d="" fill="#FBCE01" transform="translate(0,0)"/>
<path d="" fill="#FBCE01" transform="translate(0,0)"/>
<path d="" fill="#FBCE01" transform="translate(0,0)"/>
<path d="" fill="#FBCE01" transform="translate(0,0)"/>
<path d="" fill="#FBCE01" transform="translate(0,0)"/>
<path d="" fill="#FBCE01" transform="translate(0,0)"/>
<path d="" fill="#FBCE01" transform="translate(0,0)"/>
<path d="" fill="#FBCE01" transform="translate(0,0)"/>
<path d="" fill="#FBCE01" transform="translate(0,0)"/>
<path d="" fill="#FBCE01" transform="translate(0,0)"/>
<path d="" fill="#FBCE01" transform="translate(0,0)"/>
<path d="" fill="#FBCE01" transform="translate(0,0)"/>
<path d="" fill="#FBCE01" transform="translate(0,0)"/>
<path d="" fill="#FCCB06" transform="translate(0,0)"/>
<path d="" fill="#FCCB06" transform="translate(0,0)"/>
<path d="" fill="#FBCE01" transform="translate(0,0)"/>
<path d="" fill="#FBCE01" transform="translate(0,0)"/>
<path d="" fill="#FBCE01" transform="translate(0,0)"/>
<path d="" fill="#FBCE01" transform="translate(0,0)"/>
<path d="" fill="#FBCE01" transform="translate(0,0)"/>
<path d="" fill="#FBCE01" transform="translate(0,0)"/>
<path d="" fill="#FBCE01" transform="translate(0,0)"/>
<path d="" fill="#FBCE01" transform="translate(0,0)"/>
<path d="" fill="#FBCE01" transform="translate(0,0)"/>
<path d="" fill="#FBCE01" transform="translate(0,0)"/>
<path d="" fill="#FBCE01" transform="translate(0,0)"/>
<path d="" fill="#FBCE01" transform="translate(0,0)"/>
<path d="" fill="#FBCE01" transform="translate(0,0)"/>
<path d="" fill="#FBCE01" transform="translate(0,0)"/>
<path d="" fill="#FBCE01" transform="translate(0,0)"/>
<path d="" fill="#FBCE01" transform="translate(0,0)"/>
<path d="" fill="#FBCE01" transform="translate(0,0)"/>
<path d="" fill="#FBCE01" transform="translate(0,0)"/>
<path d="" fill="#FBCE01" transform="translate(0,0)"/>
<path d="" fill="#FBCE01" transform="translate(0,0)"/>
<path d="" fill="#FBCE01" transform="translate(0,0)"/>
<path d="" fill="#FBCE01" transform="translate(0,0)"/>
<path d="" fill="#FBCE01" transform="translate(0,0)"/>
<path d="" fill="#FBCE01" transform="translate(0,0)"/>
<path d="" fill="#FBCE01" transform="translate(0,0)"/>
</svg>
